<?xml version="1.0" encoding="UTF-8" standalone="no"?>
<!-- Created with Inkscape (http://www.inkscape.org/) -->

<svg
   xmlns:dc="http://purl.org/dc/elements/1.1/"
   xmlns:cc="http://creativecommons.org/ns#"
   xmlns:rdf="http://www.w3.org/1999/02/22-rdf-syntax-ns#"
   xmlns:svg="http://www.w3.org/2000/svg"
   xmlns="http://www.w3.org/2000/svg"
   xmlns:sodipodi="http://sodipodi.sourceforge.net/DTD/sodipodi-0.dtd"
   xmlns:inkscape="http://www.inkscape.org/namespaces/inkscape"
   width="744.09448819"
   height="1052.3622047"
   id="svg9704"
   version="1.1"
   inkscape:version="0.48.5 r10040"
   sodipodi:docname="drawing.png">
  <defs
     id="defs9706">
    <inkscape:path-effect
       effect="spiro"
       id="path-effect6570"
       is_visible="true" />
    <inkscape:path-effect
       effect="spiro"
       id="path-effect6587"
       is_visible="true" />
    <inkscape:path-effect
       effect="spiro"
       id="path-effect6596"
       is_visible="true" />
    <inkscape:path-effect
       effect="spiro"
       id="path-effect6600"
       is_visible="true" />
    <inkscape:path-effect
       effect="spiro"
       id="path-effect6574"
       is_visible="true" />
  </defs>
  <sodipodi:namedview
     id="base"
     pagecolor="#ffffff"
     bordercolor="#666666"
     borderopacity="1.0"
     inkscape:pageopacity="0.0"
     inkscape:pageshadow="2"
     inkscape:zoom="0.49497475"
     inkscape:cx="582.26657"
     inkscape:cy="625.70903"
     inkscape:document-units="px"
     inkscape:current-layer="layer1"
     showgrid="false"
     inkscape:window-width="1768"
     inkscape:window-height="930"
     inkscape:window-x="-8"
     inkscape:window-y="-8"
     inkscape:window-maximized="1" />
  <metadata
     id="metadata9709">
    <rdf:RDF>
      <cc:Work
         rdf:about="">
        <dc:format>image/svg+xml</dc:format>
        <dc:type
           rdf:resource="http://purl.org/dc/dcmitype/StillImage" />
        <dc:title></dc:title>
      </cc:Work>
    </rdf:RDF>
  </metadata>
  <g
     inkscape:label="Layer 1"
     inkscape:groupmode="layer"
     id="layer1">
    <g
       id="g6628"
       transform="matrix(7.7651383,0,0,-7.5787941,-3243.9026,5250.7117)">
      <path
         sodipodi:nodetypes="cscccccccsc"
         inkscape:connector-curvature="0"
         id="path5960"
         d="m 459.27634,649.73853 c 0.0624,0.14681 -6.73323,3.50104 -10.31461,3.19284 -3.58139,-0.3082 -6.27806,-3.05145 -6.40895,-3.40213 0.0146,1.16833 -0.15205,2.16741 -0.607,2.54408 0.64716,0.35162 0.74805,0.0146 1.07489,-0.13487 -0.0655,0.56905 -0.13962,1.01922 -0.4603,1.44541 0.4432,-0.0478 1.36786,-0.89004 1.71913,-1.06145 -0.11215,0.54246 -0.39739,1.26932 -0.83523,1.70755 0.61778,-0.0283 1.29924,-0.85663 1.49962,-1.12641 1.25241,0.37369 1.0854,0.86287 5.78072,0.86287 4.69532,0 8.74586,-3.75648 8.55173,-4.02789 z"
         style="fill:#000000;fill-opacity:1;stroke:#000000;stroke-width:0.24000001;stroke-miterlimit:4;stroke-opacity:1;stroke-dasharray:none" />
      <g
         transform="translate(-41.078998,-7.0134875)"
         id="g6623">
        <path
           transform="matrix(0.8,0,0,-0.8,0,832)"
           style="fill:#000000;fill-opacity:1;stroke:#000000;stroke-width:0.30000001;stroke-miterlimit:4;stroke-opacity:1;stroke-dasharray:none"
           d="m 622.50963,228.03227 c -0.68882,2.5092 -8.61339,2.91186 -10.89595,2.91186 -2.28257,0 -2.56743,-1.59244 -2.56743,-3.78854 1.44026,1.68636 3.3016,2.16686 6.38728,2.66136 2.2538,0.36119 5.00963,-0.0357 7.0761,-1.78468 z"
           id="path5983"
           inkscape:connector-curvature="0"
           sodipodi:nodetypes="cscsc" />
        <path
           transform="matrix(0.8,0,0,-0.8,-10.369942,843.42197)"
           style="opacity:0.9;fill:#f9f9f9;fill-opacity:0.60846564;stroke:#000000;stroke-width:0.2;stroke-miterlimit:4;stroke-opacity:1;stroke-dasharray:none"
           d="m 633.18644,243.09248 c -1.52328,1.08784 -6.57569,1.06824 -8.73555,-0.90799 -1.72715,-1.58031 -1.52434,-4.5597 -1.34226,-6.89365 0.16891,-2.16533 1.16354,-5.63839 2.22204,-6.12512 2.11708,-0.97346 8.77833,1.84474 9.67176,2.40461 1.21105,0.7589 1.20816,1.23904 1.41427,2.04055 0.38043,1.47934 -0.4696,4.5583 -0.4696,4.5583 -0.68333,2.2405 -1.45846,3.9512 -2.76066,4.9233 z"
           id="path6004"
           inkscape:connector-curvature="0"
           sodipodi:nodetypes="caassacc" />
        <path
           sodipodi:type="arc"
           style="fill:#000000;fill-opacity:0.74509804;stroke:#000000;stroke-width:0.2;stroke-miterlimit:4;stroke-opacity:1;stroke-dasharray:none"
           id="path6518"
           sodipodi:cx="618.60431"
           sodipodi:cy="222.64792"
           sodipodi:rx="1.1734022"
           sodipodi:ry="3.5866253"
           d="m 619.77771,222.64792 c 0,1.98084 -0.52535,3.58662 -1.1734,3.58662 -0.64805,0 -1.1734,-1.60578 -1.1734,-3.58662 0,-1.98084 0.52535,-3.58663 1.1734,-3.58663 0.64805,0 1.1734,1.60579 1.1734,3.58663 z"
           transform="matrix(0.8,0,0,-0.8,0,832)" />
      </g>
    </g>
    <g
       id="g6635"
       transform="matrix(7.7651383,0,0,-7.5787941,-3549.668,5309.1939)">
      <path
         sodipodi:nodetypes="cscccccccsc"
         inkscape:connector-curvature="0"
         id="path5960-1"
         d="m 511.97181,658.51644 c -0.0674,0.13986 5.57654,4.15407 8.73242,4.20399 3.15589,0.0499 5.75171,-2.4112 5.89672,-2.7471 -0.11489,1.16108 -0.0566,2.17179 0.30791,2.59187 -0.59615,0.28544 -0.65483,-0.0599 -0.92731,-0.24122 0.008,0.57274 0.0328,1.02806 0.27578,1.48406 -0.38303,-0.0917 -1.11724,-1.02182 -1.40915,-1.22735 0.0506,0.55093 0.23622,1.30259 0.58043,1.78223 -0.53726,-0.0897 -1.06021,-0.98174 -1.21169,-1.27013 -1.12686,0.24713 -1.02372,0.75051 -5.12587,0.283 -4.10215,-0.4675 -7.31258,-4.60862 -7.11924,-4.85935 z"
         style="fill:#000000;fill-opacity:1;stroke:#000000;stroke-width:0.23999999;stroke-miterlimit:4;stroke-opacity:1;stroke-dasharray:none" />
      <path
         sodipodi:nodetypes="cscsc"
         inkscape:connector-curvature="0"
         id="path5983-8"
         d="m 514.31408,650.66379 c 0.55105,-2.00736 6.89071,-2.32949 8.71676,-2.32949 1.82605,0 2.05394,1.27395 2.05394,3.03083 -1.15221,-1.34909 -2.64128,-1.73349 -5.10982,-2.12909 -1.80304,-0.28895 -4.00771,0.0286 -5.66088,1.42775 z"
         style="fill:#000000;fill-opacity:1;stroke:#000000;stroke-width:0.23999999;stroke-miterlimit:4;stroke-opacity:1;stroke-dasharray:none" />
      <path
         sodipodi:nodetypes="caasssscc"
         inkscape:connector-curvature="0"
         id="path6004-5"
         d="m 515.81732,650.04176 c 1.21863,-0.87027 4.11821,-1.07676 5.60692,0.0534 1.8376,1.39495 1.88749,4.34167 1.92397,6.64847 0.0303,1.91711 -0.57659,5.18375 -1.42339,5.57314 -1.69367,0.77877 -5.39319,-1.1924 -6.10793,-1.6403 -0.96884,-0.60712 -1.92805,-1.62198 -2.05243,-2.76599 -0.0971,-0.89312 -0.30421,-4.98569 0.11912,-5.76419 0.23765,-0.43704 0.50232,-1.36222 1.93374,-2.10448 z"
         style="opacity:0.9;fill:#f9f9f9;fill-opacity:0.60846564;stroke:#000000;stroke-width:0.16;stroke-miterlimit:4;stroke-opacity:1;stroke-dasharray:none" />
      <path
         d="m 619.77771,222.64792 c 0,1.98084 -0.52535,3.58662 -1.1734,3.58662 -0.64805,0 -1.1734,-1.60578 -1.1734,-3.58662 0,-1.98084 0.52535,-3.58663 1.1734,-3.58663 0.64805,0 1.1734,1.60579 1.1734,3.58663 z"
         sodipodi:ry="3.5866253"
         sodipodi:rx="1.1734022"
         sodipodi:cy="222.64792"
         sodipodi:cx="618.60431"
         id="path6518-2"
         style="fill:#000000;fill-opacity:0.74509804;stroke:#000000;stroke-width:0.2;stroke-miterlimit:4;stroke-opacity:1;stroke-dasharray:none"
         sodipodi:type="arc"
         transform="matrix(0.8,0,0,-0.8,22.724167,832.60221)" />
    </g>
    <g
       id="g6641"
       transform="matrix(7.7651383,0,0,-7.5787941,-3562.8867,5285.6408)">
      <path
         sodipodi:nodetypes="csc"
         transform="matrix(0.8,0,0,-0.8,0,832)"
         inkscape:connector-curvature="0"
         inkscape:original-d="m 627.20617,246.56792 c 0,0 5.78944,-0.56482 8.54768,-0.75145 2.46807,-0.16698 7.07611,-0.37572 7.07611,-0.37572"
         inkscape:path-effect="#path-effect6574"
         id="path6572"
         d="m 627.20617,246.56792 c 2.84413,-0.30451 5.69404,-0.55505 8.54768,-0.75145 2.35655,-0.16219 4.71564,-0.28745 7.07611,-0.37572"
         style="fill:none;stroke:#000000;stroke-width:0.60000002;stroke-linecap:butt;stroke-linejoin:miter;stroke-miterlimit:4;stroke-opacity:1;stroke-dasharray:none" />
      <path
         sodipodi:nodetypes="sssss"
         inkscape:connector-curvature="0"
         id="path6576"
         d="m 644.61465,247.55419 c 0,0.68304 -1.93266,1.3933 -4.00772,1.3933 -2.07505,0 -5.87206,-3.00813 -5.19749,-3.11536 0.75145,-0.11946 4.71947,-0.23122 5.29142,-0.26614 0.31859,-0.0195 3.91379,1.30516 3.91379,1.9882 z"
         style="fill:#e97d87;fill-opacity:0.94709018;stroke:#000000;stroke-width:0.30000001;stroke-miterlimit:4;stroke-opacity:1;stroke-dasharray:none"
         transform="matrix(0.8,0,0,-0.8,0,832)" />
    </g>
    <g
       transform="matrix(7.7651383,0,0,-7.5787941,-3562.8867,5312.9772)"
       id="g6650"
       style="fill:#e3dbdb;stroke:#000000;stroke-opacity:0.85714285">
      <path
         inkscape:path-effect="#path-effect6587"
         sodipodi:nodetypes="ccssccc"
         inkscape:connector-curvature="0"
         inkscape:original-d="m 502.1657,629.15993 -2.20424,-1.65318 c 0,0 2.58326,-2.54413 4.2582,-3.00578 1.88908,-0.52067 4.05858,-0.31729 5.86127,0.45086 1.15329,0.49144 2.80539,2.50482 2.80539,2.50482 l -1.65318,2.15414 z"
         id="path6585"
         d="m 502.1657,629.15993 -2.20424,-1.65318 c 1.05579,-1.41636 2.57006,-2.48525 4.2582,-3.00578 1.9195,-0.59187 4.07035,-0.45875 5.86127,0.45086 1.13031,0.57409 2.10742,1.44651 2.80539,2.50482 l -1.65318,2.15414 -9.06744,-0.45086"
         style="fill:#e3dbdb;stroke:#000000;stroke-width:0.16;stroke-linecap:butt;stroke-linejoin:miter;stroke-miterlimit:4;stroke-opacity:0.85714285;stroke-dasharray:none" />
      <path
         sodipodi:nodetypes="sasssasasascccasssssssss"
         inkscape:connector-curvature="0"
         id="path6589"
         d="m 641.10789,255.05298 c 4.19557,-0.0139 3.76065,6.68445 3.51733,10.30627 -0.0958,1.42555 -1.00879,3.80456 -1.91457,3.83493 -0.52658,0.0177 -1.4714,-2.22749 -1.33033,-1.48639 0.061,0.32068 -0.37107,5.42538 -3.2564,5.32442 -0.44577,-0.0156 -0.60297,2.65209 -0.61263,4.0014 -0.0124,1.72621 0.877,4.98084 0.71043,5.12979 -0.20552,0.18379 -5.0497,1.84662 -7.69612,2.0118 -4.10175,0.25601 -11.28144,-1.08026 -12.22352,-1.61069 -0.37632,-0.21188 0.59932,-2.97522 0.748,-4.48284 0.14523,-1.47257 0.29129,-4.44365 0.1388,-4.43697 -2.27203,0.0994 -5.80537,-1.71486 -5.81234,-7.42637 -0.83961,1.70668 -1.72487,3.14335 -2.18743,2.8299 -0.77832,-1.79846 -2.57688,-3.78791 -4.86687,-4.0647 -0.71218,-0.28589 1.15906,-3.49524 1.75934,-5.23579 0.39139,-1.13485 0.42982,-2.06147 1.20114,-3.39514 0.77127,-1.33366 1.4535,-1.65611 2.39357,-1.86321 2.18509,-0.48139 3.41434,0.30241 4.32264,0.2955 0.9083,-0.007 1.3391,-0.77323 1.77072,-0.62894 1.68093,0.56192 2.59153,2.39588 4.58268,3.132 1.99115,0.73611 4.15795,0.64557 4.72859,0.64557 3.58347,0 7.07368,-3.31435 7.30586,-3.85637 0.19836,-0.46306 0.56361,0.95851 2.8205,1.51566 2.2569,0.55715 3.31267,-0.53788 3.90061,-0.53983 z"
         style="fill:#e3dbdb;fill-opacity:0.7248677;stroke:#000000;stroke-width:0.30000001;stroke-miterlimit:4;stroke-opacity:0.85714285;stroke-dasharray:none"
         transform="matrix(0.8,0,0,-0.8,5.61079,830.5472)" />
      <path
         inkscape:path-effect="#path-effect6596"
         sodipodi:nodetypes="csssssc"
         transform="matrix(0.8,0,0,-0.8,0,832)"
         inkscape:connector-curvature="0"
         inkscape:original-d="m 621.57033,262.56744 c 0,0 -1.10261,3.78268 -1.15848,5.60452 -0.0454,1.48176 0.1915,2.77252 0.908,4.07033 0.6644,1.20342 1.51492,2.34862 2.81792,2.78661 1.4295,0.48051 3.08469,0.12091 4.50867,-0.37572 0.85275,-0.29741 1.61733,-0.86341 2.09778,-1.62813 0.56063,-0.89235 0.5949,-3.19364 0.5949,-3.19364"
         id="path6594"
         d="m 621.57033,262.56744 c -0.79768,1.7505 -1.19677,3.68123 -1.15848,5.60452 0.0279,1.40096 0.29115,2.81217 0.908,4.07033 0.59521,1.21402 1.55827,2.29528 2.81792,2.78661 0.72241,0.28177 1.51631,0.35983 2.28733,0.27739 0.77102,-0.0824 1.52025,-0.32183 2.22134,-0.65311 0.80894,-0.38224 1.57429,-0.90256 2.09778,-1.62813 0.65458,-0.90726 0.87891,-2.11155 0.5949,-3.19364"
         style="opacity:0.3;fill:#e3dbdb;stroke:#000000;stroke-width:0.1;stroke-linecap:butt;stroke-linejoin:miter;stroke-miterlimit:4;stroke-opacity:0.85714285;stroke-dasharray:none" />
      <path
         inkscape:path-effect="#path-effect6600"
         sodipodi:nodetypes="csssssssc"
         transform="matrix(0.8,0,0,-0.8,0,832)"
         inkscape:connector-curvature="0"
         inkscape:original-d="m 637.16282,267.92149 c 0,0 0.14373,2.58431 0.65751,3.4128 0.65046,1.04891 1.96207,2.42735 3.0684,2.97447 1.05685,0.52266 1.99185,0.35926 3.16233,0.50097 0.38392,0.0465 1.34758,0.0339 1.72206,-0.0626 0.6674,-0.17206 1.2735,-1.03363 1.69802,-1.57658 0.60175,-0.76962 0.73643,-1.98141 0.908,-2.94316 0.1926,-1.07961 -0.10332,-1.51065 -0.20875,-2.60222 -0.13864,-1.43543 -0.37915,-2.56311 -1.42416,-3.53616"
         id="path6598"
         d="m 637.16282,267.92149 c -0.0704,1.16861 0.15798,2.354 0.65751,3.4128 0.62307,1.32065 1.70245,2.45822 3.0684,2.97447 1.00198,0.37869 2.09491,0.4116 3.16233,0.50097 0.57638,0.0483 1.17076,0.11238 1.72206,-0.0626 0.3769,-0.11962 0.71403,-0.34723 0.99468,-0.62581 0.28064,-0.27857 0.50728,-0.60737 0.70334,-0.95077 0.51314,-0.89878 0.82481,-1.91156 0.908,-2.94316 0.0702,-0.8706 -0.0207,-1.74928 -0.20875,-2.60222 -0.27487,-1.24663 -0.75831,-2.447 -1.42416,-3.53616"
         style="opacity:0.3;fill:#e3dbdb;stroke:#000000;stroke-width:0.1;stroke-linecap:butt;stroke-linejoin:miter;stroke-miterlimit:4;stroke-opacity:0.85714285;stroke-dasharray:none" />
      <path
         style="fill:none;stroke:#6c5d53;stroke-width:1px;stroke-linecap:butt;stroke-linejoin:miter;stroke-opacity:0.25396824"
         d="m 637.55719,267.6339 c 0,0 0.1595,2.43765 0.67292,3.51415 0.44921,0.94186 1.13044,1.84511 2.01877,2.39261 1.00351,0.61848 2.26088,0.84815 3.43939,0.82247 0.907,-0.0198 1.97225,-0.0688 2.69622,-0.61553 0.67886,-0.51264 1.26655,-2.30047 1.26655,-2.30047"
         id="path8394"
         inkscape:connector-curvature="0"
         transform="matrix(0.8,0,0,-0.8,0,832)"
         sodipodi:nodetypes="cssssc" />
    </g>
    <path
       style="fill:#ffe6d5;fill-opacity:0.7248677;stroke:#000000;stroke-width:1.22742403;stroke-miterlimit:4;stroke-opacity:0.55026455;stroke-dasharray:none"
       d="m 269.58379,658.57891 c -4.2817,3.7711 -13.82959,7.3258 -13.89879,10.057 -0.0696,2.7447 15.54456,26.4447 22.8369,39.9215 5.66886,10.4765 11.13427,21.0643 16.25088,31.8081 5.63351,11.8292 15.99686,32.5482 15.89586,35.9268 -0.21494,7.1847 -17.57655,30.0003 -24.03304,30.0003 -3.22819,0 -8.1839,-4.467 -9.71724,-7.3851 -0.76638,-1.459 -10.74502,-2.5575 -13.15874,-8.1409 -1.20689,-2.7919 -1.21024,-7.5102 -0.25097,-11.0025 0.95915,-3.4922 1.34952,-4.8364 2.77321,-6.8668 1.98359,-2.8289 6.03973,-5.7708 7.73849,-6.9793 0.57214,-0.4068 -0.006,-1.0192 -0.006,-4.2811 0,-3.262 -14.59827,-18.1146 -27.42752,-38.6978 -12.82925,-20.5831 -21.77289,-46.3976 -22.94288,-57.3568 -0.42863,-4.0169 1.7061,-15.4198 6.68075,-24.4761 4.97472,-9.05623 12.78919,-15.76595 16.01737,-15.76595 6.4565,0 11.86892,1.66449 18.6118,7.82956 6.74287,6.16519 13.16588,16.29389 12.89615,16.58179 0,0 -5.2342,6.1567 -8.26645,8.8273 z"
       id="path6602"
       inkscape:connector-curvature="0"
       sodipodi:nodetypes="asaasssssassssssssa" />
    <path
       style="fill:#6c5d53;fill-opacity:0.88359794;stroke:#000000;stroke-width:1.84113622;stroke-miterlimit:4;stroke-opacity:1;stroke-dasharray:none"
       d="m 490.26628,870.31881 c 0,1.9658 -15.83013,11.4764 -33.80636,14.3761 -17.97624,2.8996 -39.68968,2.4441 -42.00692,-0.322 -1.4924,-1.7816 -7.11988,-18.3707 -10.59028,-34.4534 -3.47046,-16.0826 -2.30811,-31.6587 -3.97451,-31.4145 -1.51227,0.2213 -40.02202,11.9775 -38.63821,15.2762 2.97964,7.1029 -1.8253,52.9859 -12.50597,52.8252 -10.68067,-0.1607 -29.24239,2.4835 -45.63752,0.8725 -16.39513,-1.6111 -34.87057,-5.526 -35.11333,-7.4775 -0.21681,-1.745 5.46839,-33.8897 16.00749,-55.631 10.53915,-21.7414 24.55659,-36.3011 25.93196,-40.9427 0.50939,-1.7181 27.21668,7.1309 41.18536,8.1661 22.60276,1.6751 51.46361,0.6272 67.92241,-3.2411 37.61638,-8.841 31.33072,-12.259 35.14048,-14.575 0.94921,-0.5772 12.10237,15.8681 20.81765,38.4503 8.71528,22.5822 15.26775,50.2277 15.26775,58.0908 z"
       id="path6605"
       inkscape:connector-curvature="0"
       sodipodi:nodetypes="sssssssssssassss" />
    <path
       style="fill:#ffe6d5;fill-opacity:0.7248677;stroke:#000000;stroke-width:1.22742403;stroke-miterlimit:4;stroke-opacity:0.55026455"
       d="m 452.71538,762.43451 c -1.51253,4.4957 -34.34011,15.7726 -67.17261,15.772 -32.83256,-4e-4 -53.91099,-3.8955 -67.13527,-11.4883 -3.48164,-1.999 2.63269,-35.5211 2.95715,-35.206 1.31125,1.274 34.99046,9.6221 64.07711,10.5004 29.08666,0.8785 59.2203,-12.2383 60.45539,-12.8455 0.3075,1.7534 5.51779,23.4607 6.81823,33.2674 z"
       id="path6607"
       inkscape:connector-curvature="0"
       sodipodi:nodetypes="csssscc" />
    <path
       style="fill:#ffe6d5;fill-opacity:0.7248677;stroke:#000000;stroke-width:1.22742403;stroke-miterlimit:4;stroke-opacity:0.55026455"
       d="m 268.0443,880.51931 c 0.0721,-0.1225 4.1505,19.3374 4.40395,49.9628 0.0634,7.6564 -4.04501,19.939 -6.15111,26.7725 -2.10609,6.8334 -6.74324,12.1921 -6.60036,19.3259 0.28513,14.2676 5.23513,38.83649 8.54165,42.63069 5.28943,6.0695 33.82239,10.0965 51.24991,10.0419 14.25748,-0.042 40.32673,-7.55 41.93175,-8.5261 1.74709,-1.0626 -1.90774,-43.71489 -13.00661,-49.45169 -5.98866,-3.0954 -7.20213,-24.454 -4.98671,-44.9935 2.21543,-20.5394 7.85981,-40.2597 7.70451,-40.0784 -0.22612,0.2643 -12.2919,0.4899 -13.20073,0.5681 -0.86808,0.075 -17.43467,1.3987 -27.37212,1.1368 -19.25729,-0.5069 -42.51413,-7.3893 -42.51413,-7.3893 z"
       id="path6609"
       inkscape:connector-curvature="0"
       sodipodi:nodetypes="csscscssscccc" />
    <path
       style="fill:#ffe6d5;fill-opacity:0.7248677;stroke:#000000;stroke-width:1.22742403;stroke-miterlimit:4;stroke-opacity:0.55026455"
       d="m 516.63526,991.44151 c -2.7332,7.1573 -11.18751,24.63149 -28.40816,31.32449 -17.2206,6.6929 -49.44791,2.5749 -53.11485,0.4868 -2.08758,-1.1888 -16.91366,-9.4971 -17.6916,-38.27629 -0.34229,-12.6687 20.08096,-25.862 17.88964,-41.6085 -2.19132,-15.7466 -14.84291,-28.164 -18.19074,-39.0038 -3.34777,-10.8398 -3.3036,-20.1018 -2.04105,-19.6663 4.18299,1.4433 21.99311,1.8085 39.35956,0.099 17.36651,-1.7097 30.88444,-13.1972 35.71839,-13.1972 4.83396,0 2.04453,67.019 12.52138,71.2868 17.19457,14.5784 17.44746,39.416 13.95743,48.5552 z"
       id="path6611"
       inkscape:connector-curvature="0"
       sodipodi:nodetypes="ssssssssscs" />
    <path
       style="fill:#000000;fill-opacity:0.7248677;stroke:#000000;stroke-width:1.22742403;stroke-miterlimit:4;stroke-opacity:0.97354497;stroke-dasharray:none"
       d="m 453.43847,774.01931 c 0,1.2057 -4.27337,6.3348 -18.36443,10.3279 -7.04553,1.9966 -13.59495,4.2867 -27.37466,5.8047 -13.7797,1.518 -28.95328,2.2269 -43.4416,1.83 -9.8001,-0.2686 -19.59231,-1.2966 -29.26712,-2.8446 -7.89341,-1.263 -22.42075,-5.2418 -23.38754,-5.2418 -3.8671,0 5.00783,-16.2879 6.07551,-17.6055 2.18399,1.5889 7.37092,4.0153 20.38007,7.2833 13.00916,3.2681 30.24907,5.4833 47.17222,5.3813 33.84632,-0.2037 65.46652,-12.6079 67.45309,-16.0855 0.0764,1.7497 -0.095,10.5906 0.75446,11.1502 z"
       id="path6613"
       inkscape:connector-curvature="0"
       sodipodi:nodetypes="cssaascsscc" />
    <path
       style="fill:#ffe6d5;fill-opacity:0.7248677;stroke:#000000;stroke-width:1.22742403;stroke-miterlimit:4;stroke-opacity:0.55026455"
       d="m 472.71589,650.23321 c 3.42331,0.3971 6.74741,-5.1569 6.96166,-5.4538 0.30937,45.6307 2.73495,190.2516 2.54039,188.374 -0.0932,-0.9 -4.3132,-11.9709 -10.24924,-27.0388 -2.96809,-7.534 -9.33705,-19.7012 -11.92583,-24.1529 -2.41042,-4.1453 -5.99829,-7.2654 -5.91361,-9.3132 0.15033,-3.653 -0.16525,-14.6956 -1.3466,-19.6719 -9.44819,-39.8104 -10.29136,-79.0646 -8.92463,-79.1182 1.13389,-0.048 6.36045,-0.9164 8.9468,-2.6059 3.03568,-1.9831 3.27981,-2.8516 6.90042,-8.3091 5.05392,-7.6179 4.86582,-19.4823 4.90831,-22.0664 1.66658,3.2216 6.73554,9.1976 8.10233,9.3562 z"
       id="path6615"
       inkscape:connector-curvature="0"
       sodipodi:nodetypes="scssssssascs" />
    <g
       transform="matrix(7.7651383,0,0,-7.5787941,-3562.8867,5312.9772)"
       id="g6645">
      <path
         sodipodi:nodetypes="cssscsac"
         transform="matrix(0.8,0,0,-0.8,0,832)"
         inkscape:connector-curvature="0"
         inkscape:original-d="m 670.63856,211.18494 c 0,0 1.45429,10.54751 0.28179,15.6695 -1.30217,5.68849 -3.49282,11.58326 -7.79315,15.40922 -7.9402,7.06432 -27.78785,11.11166 -29.93283,10.98126 -7.36793,-0.44794 -21.96255,-2.83387 -21.96255,-2.83387 0,0 -10.65931,-4.27998 -12.92956,-9.56433 -0.20011,-0.46579 -3.15515,-8.59593 -3.82765,-13.0929 -0.60709,-4.05959 -0.15354,-12.31324 -0.15354,-12.31324"
         inkscape:path-effect="#path-effect6570"
         id="path6568"
         d="m 670.63856,211.18494 c 1.24076,5.11809 1.33773,10.51011 0.28179,15.6695 -1.16911,5.71237 -3.78589,11.17367 -7.79315,15.40922 -3.75204,3.9658 -8.62877,6.77241 -13.80894,8.49614 -5.18017,1.72374 -10.66513,2.39929 -16.12389,2.48512 -7.40621,0.11645 -14.82847,-0.84126 -21.96255,-2.83387 -5.34321,-1.31671 -10.10674,-4.84042 -12.92956,-9.56433 -2.35105,-3.93441 -3.34462,-8.53508 -3.82765,-13.0929 -0.43322,-4.08778 -0.48469,-8.21593 -0.15354,-12.31324"
         style="fill:none;stroke:#000000;stroke-width:0.60000002;stroke-linecap:butt;stroke-linejoin:miter;stroke-miterlimit:4;stroke-opacity:1;stroke-dasharray:none" />
      <path
         sodipodi:nodetypes="caacccsccasccsccaccacsccccsccccccscccccssaasaazcccccccccccccccccccsc"
         inkscape:connector-curvature="0"
         id="path5822"
         d="m 533.17613,682.94865 c 2.60913,-2.24406 4.37763,-4.91865 5.58237,-7.91354 2.9934,-7.44134 3.59664,-15.76949 3.60923,-23.79033 0.0107,-6.81708 -3.84033,-15.75727 -3.00407,-20.22944 -2.77066,1.94015 -2.1375,0.81157 -2.32476,4.68262 1.12834,-8.88988 -3.73026,-14.01243 -4.98662,-14.94403 0.74749,3.37669 0.63179,2.92227 1.14934,5.89595 0.51755,2.97366 0.16545,4.66636 0.23979,6.62628 -1.78249,-1.71744 -2.41526,-1.918 -3.33486,-2.32256 1.83223,3.49157 6.48537,10.66389 7.70832,16.6591 0.83415,4.08921 0.47597,9.73526 -0.38705,12.51429 -1.15288,3.71254 -2.33246,6.97174 -4.31648,9.03439 0.51357,-1.94626 -1.71593,-6.39385 -3.39128,-10.4074 -0.47302,2.59917 -2.49084,7.31612 -4.97605,9.458 -0.8102,0.69826 -2.36569,-2.25736 -1.0058,-6.58355 -2.76904,1.08913 -2.96528,7.83104 -5.4073,6.79357 -0.88994,-2.80518 -0.54829,-2.59665 -1.2584,-3.68205 -0.82216,-1.25666 -0.95027,-0.97068 -3.32262,-3.04248 0.21457,2.37432 -0.41361,6.24199 -1.98615,6.4864 0.90712,-2.23521 -0.17544,-6.46466 -1.42931,-9.36168 -1.52947,-3.53378 -4.55739,-7.80982 -7.13202,-9.08713 0.82962,2.05394 2.57973,5.65247 1.82276,10.06103 -0.75697,4.40857 -5.37363,7.12235 -6.80745,7.55711 -0.0622,-3.78943 -0.66867,-6.87607 -1.38643,-8.77398 -0.89598,2.59266 -1.75882,6.53366 -2.31914,7.7238 -0.53064,-2.035 -3.0396,-5.45905 -5.80245,-6.88959 0.64368,1.12439 1.78494,6.29625 0.83987,6.82496 -1.89015,1.05742 -6.56484,-3.23233 -6.69113,-5.49639 -0.82765,1.59337 -0.86411,5.06215 -0.59146,7.45935 -1.66471,-1.68285 -2.04074,-7.88656 -2.12306,-8.58579 -0.47842,0.46791 -0.47281,8.97614 0.33322,9.83115 -2.94668,-0.84491 -2.10362,-15.84727 -2.03184,-17.26817 -1.00866,0.86535 -2.19685,8.7657 -1.87937,10.56082 -3.18863,-3.13937 -0.16178,-29.49486 0.34144,-33.57514 0.38738,-3.14105 1.40944,-3.95653 2.94625,-7.35362 -0.87826,0.41709 -1.73735,1.47591 -2.83767,2.5606 -0.49172,-4.3349 0.47047,-7.0681 1.18561,-9.0474 -3.03307,2.2051 -3.44615,7.12108 -4.16914,9.36786 -1.37512,-3.15789 -1.58103,-5.37369 -3.44032,-6.61305 0.49593,2.87628 1.27621,6.04973 1.69229,8.39095 0.41607,2.34121 -1.24712,21.45423 -1.20145,23.3763 0.12671,5.33244 -0.0864,16.26741 2.46462,23.83721 0.86111,2.55521 2.45118,4.86302 4.2079,6.90864 1.52551,1.77635 3.13802,3.01826 5.37837,4.51844 2.20234,1.47475 5.27434,3.31016 8.18349,4.34922 3.34785,1.19576 6.92254,1.71605 10.45741,2.09372 3.00758,0.32134 6.71582,0.42657 9.07303,0.13862 2.35721,-0.28794 2.82971,0.0727 4.43304,0.1016 -0.37545,2.33332 -0.17573,3.42912 -0.031,4.57436 0.53995,-1.26636 1.26069,-1.73381 2.18039,-2.3784 -0.54019,2.54319 2.27041,3.62638 2.74099,4.03264 -0.76212,-1.56704 -1.01528,-3.53733 0.67965,-4.68077 -0.66794,1.7828 1.90018,3.25256 3.35679,3.93057 -0.67248,-0.87498 -1.05377,-2.99257 -0.98276,-3.47504 0.6931,1.1391 1.64242,2.65689 4.56264,2.35178 -1.41311,-0.65579 -2.33316,-2.2327 -2.5734,-3.12497 1.11976,0.74365 3.36757,1.58332 4.70342,1.32329 -0.99364,-0.51051 -3.02446,-2.12071 -3.27314,-2.51959 0.93037,0.37953 3.07796,0.87029 4.57556,0.34784 -1.05468,-0.41153 -1.53291,-0.375 -2.56675,-1.69357 1.24556,0.56005 4.03958,-0.51054 4.16914,-0.83181 -1.59446,0.40946 -1.87373,-0.81779 -2.8303,-1.02397 0.59642,-0.18114 2.54443,-0.81904 2.62427,-1.25975 -0.94712,0.63637 -1.05726,-0.60908 -2.39798,-0.7028 0.28742,-0.46944 2.42518,-0.61374 2.34182,-1.38204 -0.43403,0.45907 -1.68649,-0.40722 -2.34324,-0.36687 0.42031,-0.4606 2.43824,-1.51743 2.95921,-1.96551 z"
         style="fill:#9bc2eb;fill-opacity:0.7248677;stroke:#000000;stroke-width:0.58960003;stroke-miterlimit:4;stroke-opacity:1;stroke-dasharray:none" />
    </g>
    <path
       style="fill:#ffe6d5;fill-opacity:0.7248677;stroke:#000000;stroke-width:1.07399607;stroke-miterlimit:4;stroke-opacity:0.55026455;stroke-dasharray:none"
       d="m 355.41261,577.55596 c -9.6343,-2.43212 -12.79577,-4.09073 -21.44253,-11.24947 -3.76908,-3.12052 -8.10855,-6.38983 -9.64319,-7.26516 -2.47732,-1.41305 -1.93563,-2.19924 4.82955,-7.00971 8.89978,-6.3283 13.41586,-6.98098 52.91954,-7.6481 l 25.11034,-0.4238 5.54425,7.08629 5.54425,7.08623 -7.1666,6.15689 c -15.14973,13.01534 -36.52411,18.10683 -55.69561,13.26708 z"
       id="path6656"
       inkscape:connector-curvature="0" />
    <path
       style="fill:#ffe6d5;fill-opacity:0.7248677;stroke:#000000;stroke-width:0.53699803;stroke-miterlimit:4;stroke-opacity:0.55026455;stroke-dasharray:none"
       d="m 532.57051,290.75433 c 0.0124,-1.10463 0.49883,-2.8392 1.07525,-3.85464 l 1.0478,-1.84619 1.64248,3.14229 c 2.18971,4.18913 2.10075,4.56692 -1.07525,4.56692 -2.42925,0 -2.71488,-0.21342 -2.69028,-2.00838 z"
       id="path6666"
       inkscape:connector-curvature="0" />
    <path
       style="fill:none;stroke:#000000;stroke-width:1.22742403;stroke-linecap:butt;stroke-linejoin:miter;stroke-miterlimit:4;stroke-opacity:0;stroke-dasharray:none"
       d="m 156.16226,445.36276 c 1.00003,0.28132 2.00005,0.22676 3.01909,0.22676 0.0777,0 0.15468,0 0.23233,0 0.0777,0 0.17767,-0.0546 0.23233,0 0.12238,0.11944 0.0882,0.35953 0.23234,0.45351 0.12859,0.0837 0.30936,0 0.46466,0 0.0777,0 0.17767,-0.0546 0.23234,0 0.0559,0.0546 0,0.15097 0,0.22676 0,0.30254 0,0.60448 0,0.90666 0,1.88888 0,3.77776 0,5.66664 0,0.30194 0,0.60448 0,0.90667 0,0.0758 -0.0696,0.1928 0,0.22675 0.13853,0.0673 0.30936,0 0.46466,0 0.23233,0 0.46467,0 0.69669,0 0.5417,0 1.08383,0 1.62571,0 1.00636,0 2.01272,0 3.01908,0 0.30937,0 0.63793,0.10307 0.9289,0 0.58643,-0.20796 1.02916,-0.7275 1.62571,-0.90666 0.44417,-0.13339 0.93082,0.0424 1.39338,0 0.39322,-0.0364 0.76887,-0.18432 1.16123,-0.22676 0.3075,-0.0364 0.62239,0.0424 0.92896,0 0.24227,-0.0364 0.45907,-0.16855 0.69668,-0.22676 0.12735,-0.0303 0.67396,-0.0242 0.69669,0 0.0559,0.0546 0,0.15097 0,0.22676 0,0.0758 0.0373,0.15885 0,0.22676 -0.0497,0.0958 -0.19754,0.1255 -0.23233,0.22675 -0.0497,0.14309 0,0.30194 0,0.45352 -0.15468,0.15097 -0.34291,0.27526 -0.46467,0.45351 -0.0435,0.0631 0.0249,0.15522 0,0.22676 -0.0777,0.15097 -0.15468,0.30194 -0.23233,0.45352 0,0.15097 0.0497,0.30982 0,0.45351 -0.0373,0.10125 -0.164,0.14309 -0.23233,0.22676 -0.24165,0.29527 -0.49759,0.58266 -0.69669,0.90667 -0.0373,0.0649 0.0373,0.15885 0,0.22675 -0.12486,0.24374 -0.37645,0.42138 -0.46467,0.67997 -0.0733,0.21524 0.0559,0.46019 0,0.67997 -0.0248,0.10368 -0.15468,0.15097 -0.23233,0.22676 -0.15468,0.15097 -0.34291,0.27526 -0.46466,0.45351 -0.0435,0.0631 0.0248,0.15522 0,0.22676 -0.0559,0.16007 -0.1901,0.28921 -0.23234,0.45352 -0.0373,0.14672 0,0.30194 0,0.45351 0,0.0758 0.0373,0.15885 0,0.22676 -0.0497,0.0958 -0.19754,0.1255 -0.23233,0.22676 -0.0497,0.14308 0.0696,0.31831 0,0.45351 -0.0373,0.0673 -0.17767,-0.0546 -0.23233,0 -0.006,0.006 0,0.62504 0,0.67997 0,0.30194 -0.0981,0.61995 0,0.90667 0.0248,0.0715 0.17021,-0.0424 0.23233,0 2.25779,2.20361 -0.35533,-0.20311 1.16123,0.90666 0.17518,0.12854 0.33297,0.28254 0.46467,0.45352 0.10374,0.1352 0.0777,0.37773 0.23233,0.45351 0.20748,0.10126 0.4715,-0.0546 0.69669,0 0.64438,0.15704 -0.0186,0.20675 0.23233,0.45352 0.11617,0.11338 0.58083,-0.11338 0.69669,0 0.0559,0.0546 0,0.15097 0,0.22676 0,0.30254 0,0.60448 0,0.90666 0,0.5287 0,1.05776 0,1.58664 0,0.0758 0.0186,0.15339 0,0.22676 -0.0621,0.2316 -0.1727,0.44805 -0.23234,0.67997 -0.0186,0.0734 0.0373,0.15885 0,0.22675 -0.0497,0.0958 -0.15468,0.15097 -0.23233,0.22676 -0.15468,0.15097 -0.33297,0.28254 -0.46466,0.45352 -0.10375,0.1352 -0.13605,0.31285 -0.23234,0.45351 -0.12113,0.17765 -0.36651,0.26192 -0.46466,0.45352 -0.0373,0.0673 0.0373,0.15885 0,0.22675 -0.0497,0.0958 -0.18326,0.13096 -0.23234,0.22676 -0.0733,0.14248 0.0733,0.76419 0,0.90667 -0.34166,0.66699 -0.23233,-0.35166 -0.23233,0.67997 0,0.15097 -0.0497,0.30982 0,0.45351 0.0373,0.10125 0.18326,0.13096 0.23233,0.22676 0.0373,0.0673 -0.0373,0.15885 0,0.22676 0.0497,0.0976 0.92312,0.9029 0.9289,0.90666 0.0646,0.0424 0.16276,-0.0364 0.23233,0 0.0982,0.0485 0.12859,0.19281 0.23234,0.22676 0.1466,0.0485 0.32613,-0.0673 0.46466,0 0.0696,0.0364 -0.0689,0.1928 0,0.22676 0.13853,0.0673 0.30937,0 0.46467,0 0.0777,0 0.17766,-0.0546 0.23233,0 0.0559,0.0546 -0.0373,0.15885 0,0.22676 0.4833,0.94334 -0.0186,-0.24253 0.46467,0.22675 0.0559,0.0546 -0.0559,0.17341 0,0.22676 0.10933,0.10671 0.39509,-0.13521 0.46466,0 0.069,0.13521 -0.0857,0.3274 0,0.45352 0.0124,0.63819 0.52368,0.0606 0.69669,0.22675 0.0559,0.0546 -0.0373,0.15885 0,0.22676 0.0497,0.0958 0.18326,0.13096 0.23233,0.22676 0.0373,0.0673 -0.0373,0.15885 0,0.22676 0.0497,0.0958 0.17146,0.13763 0.23234,0.22675 0.0963,0.14067 0.10995,0.33408 0.23233,0.45352 0.0559,0.0546 0.15903,-0.0242 0.23233,0 0.164,0.0546 0.30005,0.1734 0.46467,0.22676 0.0733,0.0243 0.17767,-0.0546 0.23233,0 0.0559,0.0546 -0.0559,0.1734 0,0.22675 0.0559,0.0546 0.17767,-0.0546 0.23233,0 0,0.60449 -0.0777,-0.0758 0.23234,0.22676 0.0559,0.0546 -0.0559,0.1734 0,0.22676 0.0559,0.0546 0.17766,-0.0546 0.23233,0 0.0248,0.0242 0,1.04696 0,1.1333 0,0.0758 0.0559,0.1734 0,0.22676 -0.61935,0 0.0777,-0.0758 -0.23233,0.22676 -0.0559,0.0546 -0.17767,-0.0546 -0.23234,0 -0.10933,0.10671 0.0857,0.3274 0,0.45351 -0.12175,0.17765 -0.46466,0.23949 -0.46466,0.45352 0,0.16915 0.5417,0.0758 0.46466,0.22675 -0.0777,0.15097 -0.30998,-0.15097 -0.46466,-0.22675"
       id="path8343"
       inkscape:connector-curvature="0" />
    <path
       style="fill:none;stroke:#6c5d53;stroke-width:6.13712025px;stroke-linecap:butt;stroke-linejoin:miter;stroke-opacity:0.25490196"
       d="m 357.74432,640.52061 c 0,0 -0.59015,13.8935 -5.57369,20.3998 -4.85079,6.3329 -17.91119,13.8807 -26.01067,14.0532 -9.28853,0.1976 -17.11542,-6.7377 -23.68814,-13.1465 -5.73856,-5.5956 -7.43161,-22.6665 -7.43161,-22.6665"
       id="path8396"
       inkscape:connector-curvature="0"
       sodipodi:nodetypes="csssc" />
    <path
       style="fill:none;stroke:#6c5d53;stroke-width:0.97547984;stroke-linecap:butt;stroke-linejoin:miter;stroke-miterlimit:4;stroke-opacity:0.25490196;stroke-dasharray:none"
       d="m 369.07198,632.18476 15.89617,-2.82149"
       id="path8398"
       inkscape:connector-curvature="0" />
    <path
       style="fill:none;stroke:#6c5d53;stroke-width:1.56525981;stroke-linecap:butt;stroke-linejoin:miter;stroke-miterlimit:4;stroke-opacity:0.25490196;stroke-dasharray:none"
       d="m 367.74476,642.54671 21.33736,-5.4121"
       id="path8398-3"
       inkscape:connector-curvature="0" />
    <path
       style="fill:none;stroke:#6c5d53;stroke-width:2.02083063;stroke-linecap:butt;stroke-linejoin:miter;stroke-miterlimit:4;stroke-opacity:0.25490196;stroke-dasharray:none"
       d="m 367.97536,654.56151 25.05655,-7.6821"
       id="path8398-2"
       inkscape:connector-curvature="0" />
    <path
       style="fill:none;stroke:#6c5d53;stroke-width:6.13712025px;stroke-linecap:butt;stroke-linejoin:miter;stroke-opacity:0.25490196"
       d="m 436.11612,692.86651 -10.1814,9.2959 10.50977,-0.9616 z"
       id="path8429"
       inkscape:connector-curvature="0"
       sodipodi:nodetypes="cccc" />
    <path
       style="fill:none;stroke:#6c5d53;stroke-width:4.20332479px;stroke-linecap:butt;stroke-linejoin:miter;stroke-opacity:0.25490196"
       d="m 438.31204,712.06841 -6.92588,6.4868 7.48969,-1.0612 z"
       id="path8429-6"
       inkscape:connector-curvature="0"
       sodipodi:nodetypes="cccc" />
    <path
       sodipodi:type="arc"
       style="fill:#ffff00;fill-opacity:0.25490196;fill-rule:nonzero;stroke:#000000;stroke-width:0.40000001;stroke-linecap:butt;stroke-linejoin:miter;stroke-miterlimit:4;stroke-opacity:0.85714285;stroke-dasharray:none"
       id="path8449"
       sodipodi:cx="631.27655"
       sodipodi:cy="280.94281"
       sodipodi:rx="3.5141537"
       sodipodi:ry="3.2150767"
       d="m 633.86746,283.11488 a 3.5141537,3.2150767 0 1 1 0.31558,-3.97921 l -2.90649,1.80714 z"
       transform="matrix(3.6725701,-1.4635242,1.4734617,3.5221746,-2382.1282,652.40731)"
       sodipodi:start="0.74176493"
       sodipodi:end="5.6862827" />
    <path
       transform="matrix(6.2121107,0,0,6.0630352,-3562.8867,-992.57966)"
       sodipodi:type="arc"
       style="fill:#000000;fill-opacity:1;fill-rule:nonzero;stroke:#000000;stroke-width:0.40000001;stroke-linecap:butt;stroke-linejoin:miter;stroke-miterlimit:4;stroke-opacity:1;stroke-dasharray:none"
       id="path8451"
       sodipodi:cx="629.17737"
       sodipodi:cy="281.39728"
       sodipodi:rx="0.34365389"
       sodipodi:ry="0.39652371"
       d="m 629.52102,281.39728 a 0.34365389,0.39652371 0 1 1 -0.68731,0 0.34365389,0.39652371 0 1 1 0.68731,0 z" />
    <path
       style="fill:none;stroke:#000000;stroke-width:2.45484805;stroke-linecap:butt;stroke-linejoin:miter;stroke-miterlimit:4;stroke-opacity:0.53968255"
       d="m 388.82171,756.17551 c 0,3.4521 -1.00462,7.3727 -4.26965,7.3727 -3.26496,0 -4.26958,-3.6 -4.26958,-7.0522 0,-3.4522 0.84044,-6.4111 4.1054,-6.4111 3.26502,0 4.43383,2.6383 4.43383,6.0906 z"
       id="path8453"
       inkscape:connector-curvature="0"
       sodipodi:nodetypes="sssss" />
    <path
       style="fill:none;stroke:#000000;stroke-width:1.19589841;stroke-linecap:butt;stroke-linejoin:miter;stroke-miterlimit:4;stroke-opacity:0.63529412;stroke-dasharray:none"
       d="m 286.67591,818.20211 c 0,0 11.25914,6.0401 16.68026,4.4878 7.61139,-2.1795 14.18822,-7.9365 19.33023,-14.1043 1.81487,-2.1769 3.89723,-10.0974 3.89723,-10.0974"
       id="path8456"
       inkscape:connector-curvature="0"
       sodipodi:nodetypes="cssc" />
    <path
       style="fill:none;stroke:#000000;stroke-width:1.22742403;stroke-linecap:butt;stroke-linejoin:miter;stroke-miterlimit:4;stroke-opacity:0.63492067;stroke-dasharray:none"
       d="m 424.78517,800.57181 c 0,0 6.80406,11.7431 12.31626,14.2645 5.48361,2.5084 11.68386,3.6199 17.73539,3.8467 6.18838,0.2322 19.70593,-4.648 19.70593,-4.648"
       id="path8458"
       inkscape:connector-curvature="0"
       sodipodi:nodetypes="cssc" />
    <path
       style="fill:none;stroke:#000000;stroke-width:1.22742403;stroke-linecap:butt;stroke-linejoin:miter;stroke-miterlimit:4;stroke-opacity:1;stroke-dasharray:none"
       d="m 381.26778,794.00051 -2.29904,31.2538"
       id="path8460"
       inkscape:connector-curvature="0"
       sodipodi:nodetypes="cc" />
    <path
       style="fill:none;stroke:#000000;stroke-width:0.61371201;stroke-linecap:butt;stroke-linejoin:miter;stroke-miterlimit:4;stroke-opacity:1;stroke-dasharray:none"
       d="m 379.78986,809.70751 7.55393,-1.7631 3.94121,-14.2645"
       id="path8462"
       inkscape:connector-curvature="0"
       sodipodi:nodetypes="ccc" />
    <path
       style="fill:none;stroke:#241f1c;stroke-width:1.84113622;stroke-linecap:butt;stroke-linejoin:miter;stroke-miterlimit:4;stroke-opacity:0.47619048;stroke-dasharray:none"
       d="m 378.54402,811.44701 -3.33715,2.8572 3.19303,0.2207 z"
       id="path8466"
       inkscape:connector-curvature="0"
       sodipodi:nodetypes="cccc" />
    <path
       style="fill:#483e37;fill-opacity:0.4745098;stroke:#000000;stroke-width:1.22742403;stroke-linecap:butt;stroke-linejoin:miter;stroke-miterlimit:4;stroke-opacity:0;stroke-dasharray:none"
       d="m 476.82402,823.43871 -7.37353,10.1999 8.59278,-3.6267 -7.1994,11.1066 8.94115,-4.42 -15.90822,16.4331 c 2.22729,0.074 -0.77415,4.2311 -1.16123,6.3466 2.24494,-1.1144 4.7896,-3.9837 6.73486,-3.3432 l 12.30862,-12.1266 -7.19934,17.2832 9.75394,-8.16 -6.73486,12.2399 10.27651,-5.7799"
       id="path8480"
       inkscape:connector-curvature="0"
       sodipodi:nodetypes="ccccccccccccc" />
    <path
       style="fill:#6c5d53;fill-opacity:0.4745098;fill-rule:nonzero;stroke:#000000;stroke-width:1.22742403;stroke-linecap:butt;stroke-linejoin:miter;stroke-miterlimit:4;stroke-opacity:0"
       d="m 473.86283,815.16541 c 4.59373,0.7859 -17.1571,37.7396 -34.95169,35.2463 -19.65251,0 -18.2651,-42.2728 -15.67608,-48.6195 2.09013,4.2737 9.68698,15.1066 23.57217,17.3399 13.16681,2.1177 23.36288,-4.5985 27.0556,-3.9667 z"
       id="path8482"
       inkscape:connector-curvature="0"
       sodipodi:nodetypes="sccss" />
    <path
       style="fill:#6c5d53;fill-opacity:0.4745098;fill-rule:nonzero;stroke:#000000;stroke-width:1.22742403;stroke-linecap:butt;stroke-linejoin:miter;stroke-miterlimit:4;stroke-opacity:0"
       d="m 323.8375,851.43181 c -14.22256,5.7235 -37.84722,-14.3932 -34.60338,-29.8064 2.7793,1.1333 12.46174,6.9144 26.9395,-4.6466 4.86763,-3.887 9.28195,-9.4066 11.14739,-17.3399 14.17404,0 12.90497,45.1978 -3.48351,51.7929 z"
       id="path8485"
       inkscape:connector-curvature="0"
       sodipodi:nodetypes="acsca" />
    <path
       style="fill:#483e37;stroke:#483e37;stroke-width:6.13712025px;stroke-linecap:butt;stroke-linejoin:miter;stroke-opacity:0.48677248"
       d="m 384.91603,794.42561 -0.69669,13.9399"
       id="path8488"
       inkscape:connector-curvature="0"
       sodipodi:nodetypes="cc" />
    <path
       style="fill:#999999;fill-opacity:0.22222224;fill-rule:nonzero;stroke:none"
       d="m 482.68801,828.65201 c 0,18.0264 -8.89711,-28.1063 -14.63095,-32.6396 -3.03978,-2.4033 4.88085,-10.3597 5.28358,-67.075 0.48268,-67.9538 -7.99032,-77.5923 -8.1865,-86.6034 2.90292,3.5067 6.70088,13.3554 14.39868,3.2866 0.74073,0.2268 3.13519,165.005 3.13519,183.0314 z"
       id="path8490"
       inkscape:connector-curvature="0"
       sodipodi:nodetypes="sssccs" />
    <path
       style="fill:#999999;fill-opacity:0.22222224;fill-rule:nonzero;stroke:none"
       d="m 306.71332,774.60711 c -12.12542,-32.1777 -60.53217,-96.3839 -59.61067,-104.6601 -0.32862,-4.6499 11.68958,-11.5397 29.55903,-19.5535 -4.2361,6.2507 -10.40485,9.4452 -21.75345,17.784 6.55105,14.9101 24.34384,37.8494 27.14078,43.681 14.55559,30.3485 24.66431,50.8873 24.66431,62.7486 z"
       id="path8493"
       inkscape:connector-curvature="0"
       sodipodi:nodetypes="ccccsc" />
    <path
       style="fill:#1a1a1a;fill-opacity:0.90476194;fill-rule:nonzero;stroke:none"
       d="m 361.46556,1020.0786 c -3.25135,2.6755 -27.82615,7.7997 -40.63242,8.345 -12.8062,0.545 -43.50173,-2.5905 -52.69733,-9.6083 -1.04103,-0.7944 -7.94728,-29.13179 -7.94728,-44.00279 0,-0.9295 0.19692,-7.1763 2.2973,-8.6348 1.22037,-6.8882 11.82345,-17.7707 9.06223,-44.1517 18.25844,-14.2001 59.93699,-22.1016 70.75904,-1.2309 2.00776,8.1241 -0.15033,15.8761 -0.14101,27.6475 -0.31868,12.0919 10.39814,26.2799 0.0559,20.9908 20.75776,-3.3584 18.08028,35.77609 19.24151,50.64709 z"
       id="path8510"
       inkscape:connector-curvature="0"
       sodipodi:nodetypes="csssccccccc" />
    <path
       style="fill:none;stroke:#000000;stroke-width:1.22742403;stroke-linecap:butt;stroke-linejoin:miter;stroke-miterlimit:4;stroke-opacity:0.27513224;stroke-dasharray:none"
       d="m 346.13246,969.86371 c 0,0 -11.22311,-3.0558 -16.60497,-4.0799 -6.30834,-1.2004 -13.43028,-2.6052 -19.85633,-2.72 -7.71861,-0.1376 -16.77947,0.7472 -24.3849,2.04 -8.91742,1.5158 -25.08164,6.5733 -25.08164,6.5733"
       id="path8517"
       inkscape:connector-curvature="0"
       sodipodi:nodetypes="csssc" />
    <path
       style="fill:none;stroke:#000000;stroke-width:3.06856012;stroke-linecap:butt;stroke-linejoin:miter;stroke-miterlimit:4;stroke-opacity:0.27513224;stroke-dasharray:none"
       d="m 298.17416,968.86141 17.40695,0 -5.58332,5.1288 7.88236,0 -2.95591,5.7699"
       id="path8519"
       inkscape:connector-curvature="0" />
    <path
       style="fill:none;stroke:#000000;stroke-width:14.11537647;stroke-linecap:butt;stroke-linejoin:miter;stroke-miterlimit:4;stroke-opacity:0.2962963;stroke-dasharray:none"
       d="m 268.53885,1012.3981 c 0,0 5.99282,2.9686 9.16224,4.0253 5.59928,1.8668 12.0943,3.0482 17.26159,4.0401 9.32084,1.7895 20.04201,1.8019 29.88118,0.7579 11.51788,-1.2222 34.65799,-8.26 34.65799,-8.26"
       id="path8521"
       inkscape:connector-curvature="0"
       sodipodi:nodetypes="cassc" />
    <path
       style="fill:none;stroke:#000000;stroke-width:1.22742403;stroke-linecap:butt;stroke-linejoin:miter;stroke-miterlimit:4;stroke-opacity:0.16931218;stroke-dasharray:none"
       d="m 300.4732,910.84151 c 0,0 9.92465,10.399 11.82363,16.9893 1.83978,6.3848 0.59201,13.4229 -0.9853,19.8742 -1.30827,5.3502 -6.89712,15.0659 -6.89712,15.0659"
       id="path8525"
       inkscape:connector-curvature="0"
       sodipodi:nodetypes="cssc" />
    <path
       style="fill:none;stroke:#000000;stroke-width:1.22742403;stroke-linecap:butt;stroke-linejoin:miter;stroke-miterlimit:4;stroke-opacity:0.16931218;stroke-dasharray:none"
       d="m 328.10541,910.38821 c 0,0 -5.86753,10.8522 -3.96855,17.4425 1.83978,6.3849 0.82398,13.1962 -0.75321,19.6475 -1.30827,5.3503 -5.27148,15.2926 -5.27148,15.2926"
       id="path8525-0"
       inkscape:connector-curvature="0"
       sodipodi:nodetypes="cssc" />
    <path
       style="fill:none;stroke:#ffffff;stroke-width:0.61371201;stroke-linecap:butt;stroke-linejoin:miter;stroke-miterlimit:4;stroke-opacity:1;stroke-dasharray:none"
       d="m 306.30376,960.23051 12.30855,0.3401 -8.2444,-7.7066 10.91511,0 -8.82499,-8.6132 11.3796,1.36 -9.98616,-8.3866 10.33453,0.5669 -10.79901,-7.5933 11.14739,-0.2267 c 0,0 5.79111,29.2051 16.95328,37.3996 2.74725,2.0169 10.91518,2.38 10.91518,2.38"
       id="path8545"
       inkscape:connector-curvature="0"
       sodipodi:nodetypes="ccccccccccsc" />
    <path
       style="fill:none;stroke:#ff0000;stroke-width:0.61371201;stroke-linecap:butt;stroke-linejoin:miter;stroke-miterlimit:4;stroke-opacity:0.42328042;stroke-dasharray:none"
       d="m 306.41986,960.11721 13.9342,-4.76 -8.82498,-7.9332 11.84407,0.2267 -10.21843,-7.0266 11.14739,0.68 -9.98622,-7.0266 10.4507,-0.9066 -11.14739,-3.1734 c 0,0 -8.04704,25.6223 -18.57899,32.6397 -4.77413,3.1811 -11.51135,1.1892 -17.18556,2.2666 -3.68602,0.7 -11.26355,3.74 -11.26355,3.74"
       id="path8547"
       inkscape:connector-curvature="0"
       sodipodi:nodetypes="cccccccccssc" />
    <path
       style="fill:#1a1a1a;fill-opacity:0.90476194;fill-rule:nonzero;stroke:none"
       d="m 519.53831,984.40811 c 0,5.5324 -6.31107,17.83359 -15.29627,26.82829 -8.98526,8.9948 -22.28681,14.6831 -27.72844,14.6831 -0.68022,0 -28.89451,4.0003 -46.38688,-2.3346 -8.51395,-11.7807 -8.42195,-12.6586 -10.65266,-20.0368 -2.23076,-7.37809 -3.70204,-17.15369 -2.85806,-21.84199 0.92529,-5.1403 5.35875,-9.9907 9.61305,-15.9129 8.27851,-11.5239 7.644,-23.12 6.95552,-27.0014 -1.06321,-5.9938 -6.92129,-15.5261 -6.92129,-21.0584 0,-5.5323 27.41293,-10.3006 42.7205,-7.9158 15.30751,2.3849 22.45094,6.7938 25.92202,11.9227 2.99921,4.4316 3.14264,16.9077 8.67937,18.8503 7.31346,2.566 9.95882,13.668 12.5161,21.8448 2.55722,8.1769 3.43704,19.2066 3.43704,21.9727 z"
       id="path8549"
       inkscape:connector-curvature="0"
       sodipodi:nodetypes="ssscssssssssss" />
    <path
       style="fill:none;stroke:#000000;stroke-width:1.27735376;stroke-linecap:butt;stroke-linejoin:miter;stroke-miterlimit:4;stroke-opacity:0.30158733;stroke-dasharray:none"
       d="m 423.31688,972.47851 c 11.40562,-5.3774 29.62773,-12.5953 40.90519,-13.7837 16.14093,-1.7006 31.27841,-0.3049 50.86464,3.8468"
       id="path8552"
       inkscape:connector-curvature="0"
       sodipodi:nodetypes="csc" />
    <path
       style="fill:none;stroke:#000000;stroke-width:1.22742403;stroke-linecap:butt;stroke-linejoin:miter;stroke-miterlimit:4;stroke-opacity:0.26984127;stroke-dasharray:none"
       d="m 477.811,957.39721 c 0,0 -4.90409,-8.966 -6.27038,-13.8265 -1.38201,-4.9165 -2.6804,-10.152 -1.85792,-15.1865 0.95437,-5.8417 7.66382,-16.0932 7.66382,-16.0932"
       id="path8554"
       inkscape:connector-curvature="0"
       sodipodi:nodetypes="cssc" />
    <path
       style="fill:none;stroke:#000000;stroke-width:1.22742403;stroke-linecap:butt;stroke-linejoin:miter;stroke-miterlimit:4;stroke-opacity:0.26984127;stroke-dasharray:none"
       d="m 464.12125,958.64391 c 0,0 -3.2785,-8.9661 -4.6448,-13.8266 -1.38194,-4.9165 -1.15352,-13.0397 -0.92895,-18.1331 0.2578,-5.8417 -6.96707,-16.3199 -6.96707,-16.3199"
       id="path8554-4"
       inkscape:connector-curvature="0"
       sodipodi:nodetypes="cssc" />
    <path
       style="fill:none;stroke:#ff0000;stroke-width:0.61371201;stroke-linecap:butt;stroke-linejoin:miter;stroke-miterlimit:4;stroke-opacity:0.42352941;stroke-dasharray:none"
       d="m 462.94784,955.13061 12.54083,-0.4535 -14.16654,-5.6666 12.07635,-0.2268 -13.90606,-6.2664 10.69458,-1.2135 -11.15906,-7.0266 9.95559,-0.4808 -9.85943,-6.0925 10.5586,-0.4535 c 0,0 9.28077,22.1131 18.81121,28.5597 5.72806,3.8747 20.43691,4.3066 20.43691,4.3066"
       id="path8574"
       inkscape:connector-curvature="0"
       sodipodi:nodetypes="ccccccccccsc" />
    <path
       style="fill:none;stroke:#ffffff;stroke-width:0.61371201;stroke-linecap:butt;stroke-linejoin:miter;stroke-miterlimit:4;stroke-opacity:1;stroke-dasharray:none"
       d="m 463.21186,954.75711 10.57202,-3.6062 -12.95312,-4.8884 10.1814,-2.4041 -11.57726,-5.3693 9.52869,-2.4608 -9.61082,-4.431 9.68878,-1.7631 -10.26352,-2.1637 c 0,0 2.85328,21.531 -3.77697,29.7312 -3.84473,4.7551 -17.07852,7.4528 -17.07852,7.4528"
       id="path8576"
       inkscape:connector-curvature="0"
       sodipodi:nodetypes="cccccccccsc" />
    <path
       style="fill:none;stroke:#000000;stroke-width:6.13712025px;stroke-linecap:butt;stroke-linejoin:miter;stroke-opacity:0.3386243"
       d="m 455.28396,968.27711 19.04348,0 -14.86316,9.5199 15.32764,2.2666 -6.50265,8.1599"
       id="path8578"
       inkscape:connector-curvature="0" />
    <path
       style="fill:none;stroke:#000000;stroke-width:11.66052818;stroke-linecap:butt;stroke-linejoin:miter;stroke-miterlimit:4;stroke-opacity:0.29803922;stroke-dasharray:none"
       d="m 434.1503,1016.3299 c 0,0 11.50048,5.1802 19.27581,5.4399 9.90782,0.3311 19.72127,-1.6773 29.2619,-4.3066 6.00636,-1.6552 12.46621,-6.2137 17.18555,-10.1999 4.75407,-4.0155 5.93157,-9.31869 9.28947,-14.50649 0.92448,-1.4283 2.32239,-4.5332 2.32239,-4.5332"
       id="path8580"
       inkscape:connector-curvature="0"
       sodipodi:nodetypes="cssssc" />
    <path
       style="fill:#000000;fill-opacity:0.66666667;stroke:none"
       d="m 368.71336,778.67821 c 0,-4.4301 -0.41062,8.9704 -0.41062,12.9748 l 25.98718,-0.03 -0.0702,-12.8534 z"
       id="path8582"
       inkscape:connector-curvature="0"
       sodipodi:nodetypes="ccccc" />
    <g
       transform="matrix(0.03119076,0,0,0.02652881,369.90757,774.18491)"
       id="g9147">
      <rect
         y="200"
         x="199.9016"
         height="49.988083"
         width="50.109375"
         id="rect8596"
         style="fill:#ffffff;fill-opacity:1;fill-rule:nonzero;stroke:#ffffff;stroke-width:0.2;stroke-miterlimit:4;stroke-opacity:1;stroke-dasharray:none" />
      <rect
         y="199.97192"
         x="500"
         height="50.034958"
         width="49.984375"
         id="rect8596-3"
         style="fill:#ffffff;fill-opacity:0.66666667;fill-rule:nonzero;stroke:none" />
      <path
         sodipodi:nodetypes="ccccccccccccccccccccccccccccccccccccccccccc"
         inkscape:connector-curvature="0"
         id="rect8616"
         d="m 249.98728,250.00428 50.38327,0.0404 0.22471,50.26151 149.32387,-0.29963 0.0374,-50.1117 50.06781,0.0345 0.0596,49.99347 49.90543,0.0736 0.0509,50.01821 50.06888,-0.0114 -0.0504,49.89661 49.98065,0.13036 0.0763,149.98939 -50.13363,0.0249 -0.0356,-100.08189 -49.85893,0.0846 -0.0719,99.9822 -50.11537,0.11313 0.10866,-200.12125 -49.40386,0.37953 -0.0617,49.92036 55.33951,-0.39923 -5.35877,100.40932 -201.81119,-0.18782 1.16549,-150.07735 -49.83966,-0.0597 -0.0242,50.00514 52.59893,-0.0172 -3.67107,100.01363 -48.67289,0.4461 -0.1394,49.44972 -50.51808,0.0462 0.39098,-99.91255 -49.96389,-0.0321 -0.0105,99.99365 -50.06397,0.0147 0.02764,-150.04476 50.00649,0.0281 -0.0206,-49.99824 50.01048,-0.0276 -0.0146,-49.96739 50.04111,-0.0276 z"
         style="fill:#ffffff;fill-opacity:0.66666667;fill-rule:nonzero;stroke:none" />
      <rect
         y="549.86096"
         x="249.60869"
         height="50.381561"
         width="100.40916"
         id="rect8619"
         style="fill:#ffffff;fill-opacity:0.66666667;fill-rule:nonzero;stroke:none" />
      <rect
         y="549.75122"
         x="399.78052"
         height="50.402805"
         width="100.37883"
         id="rect8619-9"
         style="fill:#ffffff;fill-opacity:0.66666667;fill-rule:nonzero;stroke:none" />
    </g>
    <path
       style="fill:none;stroke:#000000;stroke-width:1.84113622;stroke-linecap:butt;stroke-linejoin:miter;stroke-miterlimit:4;stroke-opacity:0.3280423;stroke-dasharray:none"
       d="m 344.50675,775.61251 c 0,0 -3.33174,3.8123 -4.18026,6.1199 -0.90671,2.466 -0.81279,7.8199 -0.81279,7.8199"
       id="path9187"
       inkscape:connector-curvature="0"
       sodipodi:nodetypes="csc" />
    <path
       style="fill:none;stroke:#000000;stroke-width:1.84113622;stroke-linecap:butt;stroke-linejoin:miter;stroke-miterlimit:4;stroke-opacity:0.32275133;stroke-dasharray:none"
       d="m 324.88269,769.71921 c 0,0 -3.34243,3.7636 -4.41246,5.7799 -1.37567,2.5924 -1.62571,8.6133 -1.62571,8.6133"
       id="path9189"
       inkscape:connector-curvature="0"
       sodipodi:nodetypes="csc" />
    <path
       style="fill:none;stroke:#000000;stroke-width:1.84113622;stroke-linecap:butt;stroke-linejoin:miter;stroke-miterlimit:4;stroke-opacity:0.41798945;stroke-dasharray:none"
       d="m 418.47441,775.83921 c 0,0 1.99278,2.8747 2.32234,4.5332 0.45845,2.3069 -0.69694,7.0267 -0.69694,7.0267"
       id="path9191"
       inkscape:connector-curvature="0"
       sodipodi:nodetypes="csc" />
    <path
       style="fill:none;stroke:#000000;stroke-width:1.84113622;stroke-linecap:butt;stroke-linejoin:miter;stroke-miterlimit:4;stroke-opacity:0.38624339;stroke-dasharray:none"
       d="m 437.05334,770.62591 c 0,0 3.62806,2.2567 4.41253,4.08 0.86938,2.0204 0.46466,7.0265 0.46466,7.0265"
       id="path9193"
       inkscape:connector-curvature="0"
       sodipodi:nodetypes="csc" />
    <path
       style="fill:#e2d0c5;fill-opacity:0.22352941;fill-rule:nonzero;stroke:none"
       d="m 411.17232,534.20029 c -0.54356,1.04418 28.16745,-3.57252 41.80043,-7.28565 18.44984,-5.02504 37.1327,-10.64669 53.62604,-20.15298 22.13549,-12.75826 44.59041,-27.62755 59.01922,-48.4519 4.21994,-6.09056 30.2016,-41.88854 27.17344,-47.05 -0.54852,-0.93443 10.92108,-28.93638 14.47255,-62.8818 3.55146,-33.94548 -6.38854,-77.2344 -12.59723,-68.39661 -6.2087,8.83772 -10.90064,71.28498 -23.40363,104.94004 -12.031,32.38449 -42.14619,86.51763 -49.02331,91.59925 -34.45025,25.45577 -110.45232,56.49748 -111.06751,57.67965 z"
       id="path8379"
       inkscape:connector-curvature="0"
       sodipodi:nodetypes="saassssass" />
    <path
       style="fill:none;stroke:#e2d0c5;stroke-width:10.43310452;stroke-linecap:butt;stroke-linejoin:miter;stroke-miterlimit:4;stroke-opacity:0.26666667;stroke-dasharray:none"
       d="m 441.91625,395.33508 26.93142,7.05204 45.98074,0.64116"
       id="path9207"
       inkscape:connector-curvature="0" />
    <path
       style="fill:none;stroke:#e2d0c5;stroke-width:10.43310452;stroke-linecap:butt;stroke-linejoin:miter;stroke-miterlimit:4;stroke-opacity:0.23921569;stroke-dasharray:none"
       d="m 297.11083,399.746 -26.93143,7.05203 -45.98074,0.64117"
       id="path9207-5"
       inkscape:connector-curvature="0" />
    <path
       style="fill:none;stroke:#000000;stroke-width:6.13712025;stroke-linecap:butt;stroke-linejoin:miter;stroke-miterlimit:4;stroke-opacity:0.2745098;stroke-dasharray:none"
       d="m 308.11459,261.032 c 0,0 14.09838,6.60773 19.4923,10.98597 7.28084,5.90983 14.16529,12.76967 18.66863,20.90014 4.33991,7.8355 7.6286,16.88803 8.78523,25.72333 1.16011,8.86143 1.38686,17.96471 -6e-5,26.79504 -1.28572,8.18583 -5.11362,15.95621 -7.68705,23.84762 -2.55417,7.83247 -2.12771,19.82842 -2.12771,19.82842"
       id="path9227"
       inkscape:connector-curvature="0"
       sodipodi:nodetypes="csssssc" />
    <path
       style="fill:none;stroke:#000000;stroke-width:6.13712025px;stroke-linecap:butt;stroke-linejoin:miter;stroke-opacity:0.2745098"
       d="m 276.31144,270.61384 8.59073,30.6695"
       id="path9229"
       inkscape:connector-curvature="0"
       sodipodi:nodetypes="cc" />
    <path
       style="fill:none;stroke:#000000;stroke-width:6.13712025px;stroke-linecap:butt;stroke-linejoin:miter;stroke-opacity:0.2745098"
       d="m 235.78568,265.07131 c 0,0 0.9576,10.36161 0.61314,15.54241 -0.34478,5.1808 -2.68165,15.54247 -2.68165,15.54247"
       id="path9231"
       inkscape:connector-curvature="0"
       sodipodi:nodetypes="csc" />
    <path
       style="fill:none;stroke:#000000;stroke-width:6.13712025px;stroke-linecap:butt;stroke-linejoin:miter;stroke-opacity:0.2745098"
       d="m 178.15307,258.97178 c 0,0 -1.15738,17.36732 -0.76707,26.04376 0.26836,5.97149 0.35782,12.09024 2.13541,17.81017 0.94921,3.05438 9.06354,7.7893 9.06354,7.7893"
       id="path9233"
       inkscape:connector-curvature="0"
       sodipodi:nodetypes="cssc" />
    <path
       style="fill:none;stroke:#000000;stroke-width:6.13712025px;stroke-linecap:butt;stroke-linejoin:miter;stroke-opacity:0.2745098"
       d="m 162.14639,248.22881 c 0,0 -1.88159,22.04786 -2.48292,33.06433 -0.35471,6.49867 0.71675,12.83066 0.92797,19.31441 0.16524,5.07518 0.78931,11.50364 2.6512,16.22941 0.71091,1.80442 3.96295,2.06877 3.96295,2.06877"
       id="path9235"
       inkscape:connector-curvature="0"
       sodipodi:nodetypes="csssc" />
    <path
       style="fill:none;stroke:#000000;stroke-width:4.29598427;stroke-linecap:butt;stroke-linejoin:miter;stroke-miterlimit:4;stroke-opacity:0.2745098;stroke-dasharray:none"
       d="m 134.96921,299.22578 c 0,0 0.38391,19.22916 1.17154,28.79942 0.72278,8.77837 2.68929,17.66326 5.11102,26.14684 1.69671,5.94359 1.47382,6.24826 4.91297,11.42531 1.44463,2.17462 7.65829,7.55981 7.65829,7.55981"
       id="path9237"
       inkscape:connector-curvature="0"
       sodipodi:nodetypes="csssc" />
    <path
       style="fill:none;stroke:#000000;stroke-width:6.13712025px;stroke-linecap:butt;stroke-linejoin:miter;stroke-opacity:0.2745098"
       d="m 413.85925,253.70264 c 0,0 7.33675,12.75893 8.46363,19.65508 1.44307,8.83124 4.45116,26.13193 4.45116,26.13193"
       id="path9239"
       inkscape:connector-curvature="0"
       sodipodi:nodetypes="csc" />
    <path
       style="fill:none;stroke:#000000;stroke-width:6.13712025px;stroke-linecap:butt;stroke-linejoin:miter;stroke-opacity:0.2745098"
       d="m 465.81094,246.74379 c 0,0 8.72398,16.21886 12.79242,24.47035 3.46039,7.01826 10.75987,15.48171 10.75987,15.48171"
       id="path9241"
       inkscape:connector-curvature="0"
       sodipodi:nodetypes="csc" />
    <path
       style="fill:none;stroke:#000000;stroke-width:6.13712025px;stroke-linecap:butt;stroke-linejoin:miter;stroke-opacity:0.2745098"
       d="m 508.44491,250.6251 c 0,0 11.87327,10.2395 16.19777,16.61296 4.5713,6.73718 6.94538,14.68522 9.8834,22.23994 3.75858,9.66484 13.57179,35.72983 13.57179,37.33757"
       id="path9243"
       inkscape:connector-curvature="0"
       sodipodi:nodetypes="cssc" />
    <path
       style="fill:none;stroke:#000000;stroke-width:6.13712025px;stroke-linecap:butt;stroke-linejoin:miter;stroke-opacity:0.2745098"
       d="m 579.33969,248.63564 c 0,0 10.71359,15.82221 14.12379,23.50954 3.84878,8.67584 7.55852,17.97605 10.69036,26.92236 1.10551,3.15793 5.07492,18.17237 5.07492,18.17237"
       id="path9245"
       inkscape:connector-curvature="0"
       sodipodi:nodetypes="cssc" />
    <path
       style="fill:#f2f2f2;fill-opacity:0.22352941;fill-rule:nonzero;stroke:none"
       d="m 362.19872,363.12138 c 7.68705,-42.88112 13.01312,-117.24746 -34.31738,-115.21889 -7.4341,0.31831 -6.98204,-15.16862 -7.13803,-16.34497 -1.05668,-7.96768 7.26308,-14.3837 8.78523,-15.00528 92.03677,-37.58476 65.34029,118.44321 32.67018,146.56914 z"
       id="path9249"
       inkscape:connector-curvature="0"
       sodipodi:nodetypes="csssc" />
    <path
       style="fill:#f2f2f2;fill-opacity:0.22352941;fill-rule:nonzero;stroke:none"
       d="m 376.76568,322.94104 c 3.70099,-26.29205 6.65423,-93.86373 -16.13422,-92.62359 -1.0437,-0.29891 1.7128,-2.08096 5.45212,-5.76971 23.92862,-15.27642 26.41147,81.14821 10.6821,98.3933 z"
       id="path9249-6"
       inkscape:connector-curvature="0"
       sodipodi:nodetypes="cccc" />
    <path
       style="fill:none;stroke:#000000;stroke-width:1.84113622;stroke-linecap:butt;stroke-linejoin:miter;stroke-miterlimit:4;stroke-opacity:0.11372549;stroke-dasharray:none"
       d="m 337.76481,176.89544 93.3433,13.93346 -66.98755,-42.87215 71.38019,7.50258 -29.65028,-39.65667 64.79126,10.71799 -25.25757,-25.72328"
       id="path9270"
       inkscape:connector-curvature="0" />
    <path
       style="fill:#6597f2;fill-opacity:0.22352941;fill-rule:nonzero;stroke:none"
       d="m 565.98179,116.23774 c -4.3583,-0.22615 -3.64844,3.06638 -23.5111,3.06638 -9.93137,0 -35.02307,-7.9909 -57.63193,-17.85006 -22.60885,-9.859216 -42.73485,-21.586706 -42.73485,-29.059946 0,-1.86832 -3.27129,-27.85425 -2.18436,-26.13544 4.10819,6.49618 13.57793,10.45031 18.87078,12.688 -2.84857,-13.74872 6.75312,-22.75439 9.46135,-27.1279 -0.20376,4.53163 -1.81685,14.92689 -0.49945,17.95416 2.37166,5.44964 15.55084,14.13251 18.52898,14.8203 -5.73992,-13.16624 8.42965,-28.70823 13.97011,-28.45479 -4.16597,8.40064 -3.51773,21.8442 -1.79393,25.91317 17.78794,-21.41483 22.14027,-21.93649 26.35314,-22.37733 -6.99813,4.48537 -13.5534,23.83021 -13.55253,26.61193 3.00989,-1.48138 28.15465,-12.75238 30.63751,-12.75238 -2.20437,0.87635 -8.17172,5.01595 -13.11743,10.03396 -4.94565,5.01807 -8.86959,10.91456 -8.9283,11.70469 1.33113,-0.56629 25.54855,-7.66877 30.55309,-7.21198 -3.05996,1.39468 -16.058,16.88434 -16.93769,17.38212 2.83906,2.03384 8.98898,-4.55456 10.42348,-2.85836 3.21912,-1.61968 16.1272,-0.21767 19.58635,1.42111 -1.46195,1.40554 -7.66686,3.69257 -10.04461,6.31253 -3.71621,1.61519 -9.99901,2.95312 -10.86181,3.39839 3.0102,1.82837 19.41931,6.04042 22.04647,7.367256 -1.07146,0.49595 -3.40921,2.68216 -6.7561,3.83172 -3.34684,1.14955 -7.70284,1.26244 -8.28075,1.76507 0.82578,1.72566 2.2937,5.90497 5.84541,7.74468 3.55165,1.8397 9.7706,1.67485 10.5581,1.81272 z"
       id="path9272"
       inkscape:connector-curvature="0"
       sodipodi:nodetypes="cssssccsccccccsccccccccscsc" />
    <path
       style="fill:#f2f2f2;fill-opacity:0.22352941;fill-rule:nonzero;stroke:none"
       d="m 635.74062,306.93511 c -13.41983,-35.53599 -42.49171,-93.66625 -75.87857,-71.46287 -5.24408,3.48722 -11.77431,-8.3314 -12.40826,-9.14603 -4.29362,-5.51706 -1.10793,-13.96681 -0.28016,-15.09841 50.02631,-68.41844 99.77848,60.32684 88.56749,95.70731 z"
       id="path9249-9"
       inkscape:connector-curvature="0"
       sodipodi:nodetypes="csssc" />
    <path
       style="fill:#f2f2f2;fill-opacity:0.22352941;fill-rule:nonzero;stroke:none"
       d="m 551.99901,289.25573 c -10.08418,-24.64654 -41.70383,-84.82835 -60.8926,-72.76697 -1.05861,0.24312 0.43609,-2.635 1.82195,-7.64476 13.07854,-24.81655 64.02332,57.83505 59.07065,80.41173 z"
       id="path9249-6-5"
       inkscape:connector-curvature="0"
       sodipodi:nodetypes="cccc" />
    <path
       style="fill:#f2f2f2;fill-opacity:0.22352941;fill-rule:nonzero;stroke:none"
       d="m 488.48602,271.62715 c -6.26989,-16.07717 -25.9296,-55.33435 -37.86027,-47.46659 -0.65848,0.15824 0.27085,-1.71887 1.13278,-4.98679 8.13165,-16.18806 39.80683,37.72633 36.72749,52.45338 z"
       id="path9249-6-5-5"
       inkscape:connector-curvature="0"
       sodipodi:nodetypes="cccc" />
    <path
       style="fill:#f2f2f2;fill-opacity:0.22352941;fill-rule:nonzero;stroke:none"
       d="m 442.71842,278.44807 c -4.87123,-15.418 -20.14563,-53.06557 -29.41497,-45.52042 -0.51063,0.15218 0.21059,-1.6483 0.88038,-4.78228 6.31778,-15.52435 30.92737,36.17952 28.53483,50.3027 z"
       id="path9249-6-5-2"
       inkscape:connector-curvature="0"
       sodipodi:nodetypes="cccc" />
    <path
       style="fill:#000000;fill-opacity:0.11372549;fill-rule:nonzero;stroke:none"
       d="m 292.74055,294.66844 c 0,11.75017 -4.84141,-52.14592 -18.24833,-52.14592 0,0 -1.79306,-9.94235 0.67017,-10.42933 13.40672,0 17.57853,50.82509 17.57853,62.57525 z"
       id="path9336"
       inkscape:connector-curvature="0"
       sodipodi:nodetypes="sccs" />
    <path
       style="fill:#000000;fill-opacity:0.11372549;fill-rule:nonzero;stroke:none"
       d="m 439.88228,284.25591 c 1.47146,10.07458 -11.60187,-44.00381 -25.6467,-42.04976 0,0 -3.12333,-8.26319 -0.60382,-9.03968 14.04465,-1.95406 24.77974,41.01498 26.25114,51.08944 z"
       id="path9336-3"
       inkscape:connector-curvature="0"
       sodipodi:nodetypes="sccs" />
    <path
       style="fill:#000000;fill-opacity:0.11372549;fill-rule:nonzero;stroke:none"
       d="m 539.86135,264.75591 c 5.46362,10.4705 -28.5608,-44.32242 -40.50762,-38.38416 0,0 -6.22081,-8.06536 -4.25231,-9.59027 11.94663,-5.93832 39.29675,37.50381 44.76024,47.97431 z"
       id="path9336-5"
       inkscape:connector-curvature="0"
       sodipodi:nodetypes="sccs" />
    <path
       style="fill:#000000;fill-opacity:0.11372549;fill-rule:nonzero;stroke:none"
       d="m 367.51976,320.53705 c 0,11.75016 -4.84141,-52.14586 -18.24832,-52.14586 0,0 -1.79307,-9.94241 0.67016,-10.42933 13.40673,0 17.57853,50.82503 17.57853,62.57519 z"
       id="path9336-32"
       inkscape:connector-curvature="0"
       sodipodi:nodetypes="sccs" />
    <path
       style="fill:#000000;fill-opacity:0.11372549;fill-rule:nonzero;stroke:none"
       d="m 251.11531,287.06509 c 0,9.38946 -4.13746,-41.66942 -15.5947,-41.66942 0,0 -1.53228,-7.94488 0.57213,-8.33394 11.45719,0 15.02232,40.6139 15.02232,50.00336 z"
       id="path9336-6"
       inkscape:connector-curvature="0"
       sodipodi:nodetypes="sccs" />
    <path
       style="fill:#000000;fill-opacity:0.11372549;fill-rule:nonzero;stroke:none"
       d="m 190.70737,284.61411 c -4.40171,9.44148 23.1723,-40.28547 33.24567,-35.8118 0,0 5.07188,-7.39066 3.40312,-8.60412 -10.07338,-4.47355 -32.24769,34.9739 -36.64947,44.41556 z"
       id="path9336-9"
       inkscape:connector-curvature="0"
       sodipodi:nodetypes="sccs" />
    <path
       style="fill:#f2f2f2;fill-opacity:0.22352941;fill-rule:nonzero;stroke:none"
       d="m 113.22521,298.3829 c 13.41971,-35.53599 42.49164,-93.66625 75.87845,-71.46287 5.24414,3.48721 11.77437,-8.3314 12.40831,-9.14603 4.29357,-5.51706 1.10793,-13.96681 0.28017,-15.09841 -50.02631,-68.41845 -99.77842,60.32683 -88.56743,95.70731 z"
       id="path9249-9-6"
       inkscape:connector-curvature="0"
       sodipodi:nodetypes="csssc" />
    <path
       style="fill:#f2f2f2;fill-opacity:0.22352941;fill-rule:nonzero;stroke:none"
       d="m 291.56963,282.41529 c -0.56531,-16.12494 -5.20644,-56.36258 -16.17659,-51.44952 -0.53424,0.0121 0.64532,-1.53704 2.13262,-4.39043 10.26222,-13.3682 20.14215,42.82098 14.04421,55.84001 z"
       id="path9249-6-5-2-5"
       inkscape:connector-curvature="0"
       sodipodi:nodetypes="cccc" />
    <path
       style="fill:#f2f2f2;fill-opacity:0.22352941;fill-rule:nonzero;stroke:none"
       d="m 249.95159,284.07747 c -0.41124,-15.22913 -3.79125,-53.23151 -11.77947,-48.59141 -0.38887,0.0121 0.46964,-1.45161 1.55285,-4.14657 7.47279,-12.62548 14.66722,40.44227 10.22681,52.73804 z"
       id="path9249-6-5-2-5-3"
       inkscape:connector-curvature="0"
       sodipodi:nodetypes="cccc" />
    <path
       style="fill:#f2f2f2;fill-opacity:0.22352941;fill-rule:nonzero;stroke:none"
       d="m 190.54822,281.00006 c 6.92967,-13.65081 26.35687,-46.74976 31.60815,-39.26319 0.34664,0.1734 0.19879,-1.50994 0.37583,-4.39958 -1.34573,-14.52151 -30.72031,30.68411 -31.98429,43.66277 z"
       id="path9249-6-5-2-5-3-8"
       inkscape:connector-curvature="0"
       sodipodi:nodetypes="cccc" />
    <path
       style="fill:#f2f2f2;fill-opacity:0.22352941;fill-rule:nonzero;stroke:none"
       d="m 117.7147,273.71011 c 11.86631,-23.8786 47.81959,-81.69637 66.07425,-68.32501 1.03823,0.31649 -0.24228,-2.65871 -1.25628,-7.7525 -11.2246,-25.66671 -68.10188,53.21265 -64.81797,76.07751 z"
       id="path9249-6-9"
       inkscape:connector-curvature="0"
       sodipodi:nodetypes="cccc" />
    <path
       style="fill:#f2f2f2;fill-opacity:0.22352941;fill-rule:nonzero;stroke:none"
       d="m 635.48853,277.47246 c -13.38827,-23.09919 -53.01241,-78.58451 -70.36513,-64.11423 -1.0155,0.38076 0.0696,-2.66846 0.75247,-7.81453 9.54062,-26.30757 71.41032,48.90711 69.61304,71.92876 z"
       id="path9249-6-96"
       inkscape:connector-curvature="0"
       sodipodi:nodetypes="cccc" />
    <path
       style="fill:#000000;fill-opacity:0.11372549;fill-rule:nonzero;stroke:none"
       d="m 380.62918,287.02508 c -0.5858,10.16037 -2.51715,-45.37097 -16.68157,-46.14837 0,0 -1.39897,-8.70106 1.22745,-8.97936 14.1643,0.77741 16.03986,44.96754 15.45443,55.12779 z"
       id="path9336-3-5"
       inkscape:connector-curvature="0"
       sodipodi:nodetypes="sccs" />
    <path
       style="fill:#000000;fill-opacity:0.02352941;fill-rule:nonzero;stroke:none"
       d="m 351.49171,142.5977 c -10.11524,12.56867 -27.81286,54.12611 -47.22074,54.12611 -19.40781,0 -94.9905,-27.42566 -94.9905,-43.40806 0,-1.99783 2.7081,-4.48422 7.49056,-7.31214 4.78246,-2.82798 11.63926,-5.99744 19.93659,-9.36139 8.29739,-3.36389 18.03537,-6.92223 28.58018,-10.52792 10.54481,-3.60568 21.89639,-7.25878 33.42109,-10.81208 11.52471,-3.55331 23.22249,-7.00687 34.45958,-10.21355 11.23708,-3.20674 22.01348,-6.166646 31.69543,-8.732646 9.68194,-2.56594 18.2695,-4.73802 25.12879,-6.36904 6.85935,-1.63108 11.99043,-2.72109 14.7596,-3.12301 -31.65641,23.579626 -45.57347,46.182136 -53.26058,55.733726 z"
       id="path9514"
       inkscape:connector-curvature="0"
       sodipodi:nodetypes="sssssssssscs" />
    <path
       style="fill:#000000;fill-opacity:0.02745098;fill-rule:nonzero;stroke:none"
       d="m 497.5234,143.07995 c 4.68821,7.5412 12.89081,32.47568 21.88601,32.47568 8.99526,0 44.02647,-16.45538 44.02647,-26.0448 0,-9.58948 -80.33017,-37.94181 -90.59786,-39.87107 14.6722,14.14779 21.12248,27.70929 24.68538,33.44019 z"
       id="path9514-9"
       inkscape:connector-curvature="0"
       sodipodi:nodetypes="ssscs" />
    <path
       style="fill:none;stroke:#e2d0c5;stroke-width:7.36454487;stroke-linecap:butt;stroke-linejoin:miter;stroke-miterlimit:4;stroke-opacity:0.44705882;stroke-dasharray:none"
       d="m 336.18221,480.95271 c 19.1812,-3.23153 46.20593,-3.2616 50.0347,-3.41645"
       id="path9535"
       inkscape:connector-curvature="0"
       sodipodi:nodetypes="cc" />
    <path
       transform="matrix(6.2121107,0,0,6.0630352,-3562.8867,-992.57966)"
       sodipodi:type="arc"
       style="fill:#ffffff;fill-opacity:0.02745098;fill-rule:nonzero;stroke:none"
       id="path9537"
       sodipodi:cx="618.42188"
       sodipodi:cy="219.07812"
       sodipodi:rx="0.328125"
       sodipodi:ry="0.484375"
       d="m 618.75,219.07812 a 0.328125,0.484375 0 1 1 -0.65625,0 0.328125,0.484375 0 1 1 0.65625,0 z" />
    <path
       style="fill:#ffe6d6;fill-opacity:0.7254902;stroke:none"
       d="m 337.06271,540.02335 c -1.92184,-0.16067 -8.2116,-0.6488 -13.97725,-1.08516 -20.10009,-1.52134 -39.737,-4.42244 -61.88523,-9.14282 -16.44724,-3.50534 -35.85437,-8.76884 -42.99451,-11.66079 -30.90544,-12.51738 -54.5232,-34.29404 -68.45318,-63.11692 -9.7112,-20.09363 -15.32738,-43.94367 -18.51215,-78.61465 -1.21502,-13.22742 -1.03021,-50.40777 0.29197,-58.73566 l 1.02276,-6.44197 0.56344,9.09455 c 0.76248,12.30517 1.74939,18.80542 4.48763,29.5573 3.2144,12.62136 4.98671,16.04952 11.57708,22.39303 3.06164,2.947 5.70035,5.22767 5.86373,5.06821 0.16338,-0.15945 -0.0907,-8.6203 -0.5653,-18.80183 -0.84441,-18.12539 -0.40938,-61.24939 0.74092,-73.4581 0.52741,-5.59642 0.5448,-5.51742 1.14644,5.11817 1.25106,22.12044 2.5384,28.34748 6.32654,30.60214 4.38643,2.61074 4.80594,2.17627 5.40125,-5.5946 0.68401,-8.92843 3.27458,-28.51306 4.60075,-34.78206 l 1.01909,-4.81714 0.47026,11.36819 c 0.57462,13.89775 1.72473,18.10095 5.97804,21.85136 1.68037,1.48168 4.1244,3.2336 5.43118,3.89313 2.21822,1.11954 2.38011,1.10984 2.43925,-0.14672 0.0373,-0.80123 0.54791,-0.27223 1.2615,1.30683 0.65898,1.45888 1.41667,6.00367 1.68379,10.09956 l 0.48578,7.44698 3.70503,-4.19416 c 6.77661,-7.6712 18.75909,-15.43031 30.02823,-19.44434 3.55624,-1.26675 6.75703,-2.20476 7.1128,-2.08447 0.35595,0.12005 -0.58766,3.11755 -2.09646,6.66067 -3.99762,9.38739 -4.01358,9.45888 -1.86519,8.33667 1.66392,-0.86914 1.7443,-0.81281 1.23025,0.86132 -3.4084,11.1005 -4.74512,36.06184 -2.40148,44.84384 2.51255,9.4148 7.37297,15.52428 15.14848,19.04151 5.00777,2.26521 3.628,2.56181 -2.43943,0.52445 -6.9029,-2.31796 -10.81436,-4.5828 -15.58563,-9.02458 -2.47789,-2.30681 -4.69983,-4.00434 -4.9377,-3.77224 -0.23792,0.23221 -0.0882,4.04701 0.33235,8.47758 0.95164,10.02413 2.87714,13.80625 8.34405,16.38923 3.4484,1.62932 4.17106,1.67988 17.67668,1.23759 29.09262,-0.95281 50.0903,-6.01726 57.05718,-13.7617 4.29816,-4.77785 2.78502,-7.03579 -2.39657,-3.5761 -3.45163,2.30468 -7.91926,4.69467 -8.77566,4.69467 -0.27458,0 1.14029,-1.77932 3.14364,-3.95401 11.28858,-12.25436 20.13196,-45.16531 15.52698,-57.78418 -0.60257,-1.65139 -0.97207,-3.12313 -0.82099,-3.27058 0.36403,-0.3553 9.55889,4.17118 12.27364,6.04175 l 2.13541,1.47138 0,-2.12164 c 0,-1.61907 -1.16315,-3.20195 -4.91104,-6.68304 -3.67751,-3.41567 -14.25779,-11.16714 -16.64467,-12.1944 -0.1112,-0.0485 0.47026,-3.29502 1.29212,-7.21617 1.27938,-6.10596 2.10236,-12.07574 4.46526,-32.38867 0.44541,-3.82984 0.2547,-3.84809 8.67043,0.83088 19.31842,10.74042 31.30295,27.93416 34.72415,49.81741 2.2886,14.63859 1.22708,24.64339 -4.28356,40.37248 -3.63614,10.3787 -5.45287,19.00913 -5.45287,25.90426 0,1.79466 -0.54853,4.54388 -1.2185,6.10942 -1.49427,3.49049 -1.28734,3.44398 7.57815,-1.70305 21.40215,-12.42546 47.47233,-48.15663 59.15439,-81.07563 3.59364,-10.12661 7.13436,-24.48691 8.35914,-33.90292 0.93828,-7.21338 1.02307,-7.43644 1.96806,-5.1762 1.10712,2.64816 5.94312,29.19922 5.8013,31.85095 -0.0497,0.93783 0.13418,1.70522 0.40938,1.70522 0.58829,0 5.40367,-3.49922 7.63555,-5.54822 0.85417,-0.78419 4.1738,-3.49297 7.37688,-6.0195 12.68812,-10.00801 17.52729,-15.95033 20.17911,-24.77902 0.81901,-2.72673 2.23394,-7.47778 3.14433,-10.55787 l 1.65521,-5.60018 7.93442,14.69474 7.93436,14.69473 -2.36974,0.62668 c -9.72189,2.57103 -16.13825,5.0288 -22.09132,8.46218 -11.22479,6.47374 -20.84964,14.63635 -27.55475,23.36851 -2.63114,3.42653 -3.65651,6.57342 -2.14193,6.57342 0.36651,0 5.63935,-3.23996 11.71691,-7.19985 6.07755,-3.95995 11.40338,-7.19986 11.83525,-7.19986 0.43174,0 -0.97232,1.87688 -3.12047,4.17083 -2.28456,2.4397 -4.63162,5.97863 -5.6547,8.52614 -1.65826,4.12923 -1.75181,5.43703 -1.80201,25.197 -0.0621,23.30771 0.19755,24.77066 5.54823,31.61212 1.49438,1.91083 2.21157,3.2849 1.59365,3.05347 -0.6181,-0.23161 -1.58086,-0.14491 -2.13988,0.1922 -1.62969,0.983 1.40344,5.3003 5.71607,8.13605 9.34767,6.14664 33.71424,10.7229 57.85363,10.86544 10.77174,0.0637 13.84599,-0.65135 16.949,-3.94152 3.02673,-3.20934 4.31593,-7.44425 4.69853,-15.43436 l 0.36279,-7.5788 -3.77398,3.52881 c -6.91396,6.46477 -16.20411,10.77141 -26.6812,12.36871 l -3.49432,0.53294 3.5096,-2.21416 c 4.65362,-2.9359 7.19872,-6.00871 10.40932,-12.56758 4.07005,-8.31478 5.15779,-14.61761 5.647,-32.72153 0.34725,-12.84636 0.17456,-17.50386 -0.89442,-24.1521 -1.45544,-9.05133 -4.29978,-18.38998 -6.80717,-22.34968 l -1.61614,-2.55224 2.64107,0.54689 c 6.405,1.32592 16.96093,6.74349 24.40701,12.52635 l 4.85663,3.77175 3.90456,10.79942 c 2.66282,7.36501 4.23287,10.71381 4.93677,10.53022 0.56778,-0.14794 1.7861,-0.27587 2.70742,-0.28436 1.45134,-0.0121 2.87205,-2.7628 10.62886,-20.57242 11.69449,-26.8504 15.78218,-37.13912 17.83572,-44.89223 0.92641,-3.49764 1.87282,-6.35934 2.10317,-6.35934 0.47212,0 7.56014,11.65213 9.91192,16.29441 4.65461,9.18774 10.62581,25.12261 14.62579,39.03079 l 2.94255,10.23137 -0.0186,17.81017 c -0.0124,12.62712 -0.41,20.56709 -1.36157,27.28366 -4.41278,31.14369 -14.68767,59.1138 -30.60931,83.32387 -29.06218,44.19146 -78.31105,73.80108 -141.88057,85.30229 -22.1927,4.01513 -34.34645,5.00947 -64.45065,5.27278 -15.37497,0.1346 -29.52697,0.11338 -31.44881,-0.0485 l -6e-5,-6e-5 z m 92.2519,-50.7279 c 10.63308,-2.38877 15.17382,-6.23935 12.33837,-10.46298 -0.70023,-1.04308 -4.11826,-3.28628 -7.59555,-4.98497 -3.49189,-1.70583 -5.58686,-3.08851 -4.67946,-3.08851 1.30784,0 1.64292,-0.46382 1.64292,-2.27363 0,-2.17039 -0.14971,-2.27346 -3.30019,-2.26903 -9.87887,0.0121 -54.05698,2.85265 -77.06899,4.95222 -17.74142,1.61877 -17.47157,1.55844 -17.47157,3.90247 l 0,1.96976 5.62973,-0.4432 c 3.09636,-0.24374 14.27723,-1.17357 24.84639,-2.06653 l 19.21661,-1.6235 4.23939,3.68784 c 5.35851,4.66133 15.63874,10.65761 21.30493,12.4268 5.43951,1.69838 14.05223,1.81091 20.89742,0.27284 l 0,0 z"
       id="path9559"
       inkscape:connector-curvature="0" />
    <path
       style="fill:#ffe6d6;fill-opacity:0.7254902;fill-rule:nonzero;stroke:none"
       d="m 197.29022,299.76242 c -2.34892,-1.4262 -4.37338,-2.88552 -4.49874,-3.24293 -0.39075,-1.11293 8.893,-12.55418 13.74087,-16.93467 6.33853,-5.72756 15.55277,-11.60471 20.65509,-13.17449 2.3378,-0.71919 4.46073,-1.10262 4.7176,-0.85191 1.25186,1.22188 1.23621,13.15327 -0.0311,21.31575 l -1.34847,8.70646 -3.14264,0.51839 c -1.72846,0.28496 -6.06749,1.48314 -9.64225,2.66252 l -6.49967,2.14425 -1.18987,-1.77235 c -2.62828,-3.91508 -12.7639,-8.72871 -12.7639,-6.06194 0,0.55659 0.36341,1.23164 0.80801,1.49969 1.05537,0.63662 4.62759,6.16817 4.62759,7.16578 0,1.14622 -0.73682,0.87854 -5.4356,-1.97437 z"
       id="path9561"
       inkscape:connector-curvature="0" />
    <path
       style="fill:#ffe6d6;fill-opacity:0.7254902;fill-rule:nonzero;stroke:none"
       d="m 276.74449,297.52389 c -1.78449,-0.52203 -5.88846,-1.36576 -9.12,-1.87457 l -5.87554,-0.92504 2.72301,-3.49661 c 1.49768,-1.92313 4.20399,-5.79572 6.01401,-8.60575 1.80996,-2.8101 3.49102,-5.11211 3.73565,-5.11569 0.45287,-0.006 6.3553,20.56388 5.97531,20.82453 -0.1143,0.0782 -1.66795,-0.28436 -3.45244,-0.80687 l 0,0 z"
       id="path9563"
       inkscape:connector-curvature="0" />
    <path
       style="fill:#ffe6d6;fill-opacity:0.7254902;fill-rule:nonzero;stroke:none"
       d="m 514.49612,280.50228 c -2.56249,-0.75103 -6.31883,-1.3928 -8.34752,-1.42615 l -3.68844,-0.0606 0.0124,-5.11568 c 0.0124,-5.50639 1.46998,-13.34662 3.2713,-17.62203 l 1.11706,-2.65125 6.92309,6.83571 c 3.80771,3.75969 7.90367,8.61558 9.10205,10.79093 l 2.17896,3.95522 -2.41036,3.41931 c -1.32573,1.88064 -2.65568,3.37899 -2.95548,3.3297 -0.30004,-0.0485 -2.6417,-0.7041 -5.20419,-1.45513 z"
       id="path9565"
       inkscape:connector-curvature="0" />
  </g>
</svg>
