<?xml version="1.0" encoding="UTF-8" standalone="no"?>
<!-- Created with Inkscape (http://www.inkscape.org/) -->

<svg
   xmlns:dc="http://purl.org/dc/elements/1.1/"
   xmlns:cc="http://creativecommons.org/ns#"
   xmlns:rdf="http://www.w3.org/1999/02/22-rdf-syntax-ns#"
   xmlns:svg="http://www.w3.org/2000/svg"
   xmlns="http://www.w3.org/2000/svg"
   xmlns:sodipodi="http://sodipodi.sourceforge.net/DTD/sodipodi-0.dtd"
   xmlns:inkscape="http://www.inkscape.org/namespaces/inkscape"
   width="744.09448819"
   height="1052.3622047"
   id="svg6271"
   version="1.1"
   inkscape:version="0.48.5 r10040"
   sodipodi:docname="New document 36">
  <defs
     id="defs6273" />
  <sodipodi:namedview
     id="base"
     pagecolor="#ffffff"
     bordercolor="#666666"
     borderopacity="1.0"
     inkscape:pageopacity="0.0"
     inkscape:pageshadow="2"
     inkscape:zoom="0.98994949"
     inkscape:cx="126.32423"
     inkscape:cy="627.64048"
     inkscape:document-units="px"
     inkscape:current-layer="layer1"
     showgrid="false"
     inkscape:window-width="1366"
     inkscape:window-height="706"
     inkscape:window-x="-8"
     inkscape:window-y="-8"
     inkscape:window-maximized="1" />
  <metadata
     id="metadata6276">
    <rdf:RDF>
      <cc:Work
         rdf:about="">
        <dc:format>image/svg+xml</dc:format>
        <dc:type
           rdf:resource="http://purl.org/dc/dcmitype/StillImage" />
        <dc:title></dc:title>
      </cc:Work>
    </rdf:RDF>
  </metadata>
  <g
     inkscape:label="Layer 1"
     inkscape:groupmode="layer"
     id="layer1">
    <rect
       style="fill:#bfa872;fill-opacity:1;fill-rule:nonzero;stroke:none;stroke-width:1.39999998000000000;stroke-linecap:butt;stroke-linejoin:miter;stroke-miterlimit:4;stroke-opacity:1;stroke-dasharray:none"
       id="rect6279"
       width="602.85712"
       height="224.28572"
       x="85.714287"
       y="100.93361" />
    <path
       style="fill:#948254;fill-opacity:1;fill-rule:nonzero;stroke:none"
       d="m 127.10123,382.52022 c -7.31599,11.1392 -16.16246,30.37161 -32.354931,30.55468 -13.574266,0.15355 5.114887,-5.676 6.399831,-21.70913 0.96704,-12.0664 -4.023747,-16.62509 -6.095194,-20.97312 2.786231,-0.98182 14.857044,-5.22121 18.456084,-6.24438 7.6731,-2.18136 20.89932,-10.66226 24.33938,-12.03887 -1.89962,5.12752 -10.10907,8.28874 -9.37076,12.01602 0.73833,3.72729 17.64392,-4.10697 16.44262,-0.63761 -0.60065,1.73468 -7.66969,5.68573 -7.51501,7.01429 0.0899,0.77253 13.79509,-1.58744 11.89916,0.082 -1.89592,1.66943 -9.06653,5.24984 -10.66029,6.23924 -2.00577,1.24516 -10.97446,4.83445 -11.54089,5.6969 z"
       id="path6807"
       inkscape:connector-curvature="0"
       sodipodi:nodetypes="ssscscssssss" />
    <path
       style="fill:#948254;fill-opacity:1;fill-rule:nonzero;stroke:none"
       d="m 281.57935,366.08917 c 0,8.03001 -0.338,2.89838 -11.96388,13.20677 -5.81292,5.15422 13.59959,-1.56857 5.65723,6.15708 -3.97116,3.86285 -17.28528,7.9167 -27.48271,14.42592 -10.19742,6.50925 -17.27817,15.47385 -18.79952,15.47385 -6.08542,0 -19.10744,-1.11661 -32.11064,1.7034 -13.00319,2.82002 -22.98249,11.2872 -35.00281,8.90198 0,-8.03002 26.75766,-15.89851 40.2617,-29.62799 3.37601,-3.43238 -2.27768,-11.4219 -13.46995,-7.40625 -11.19226,4.01565 -27.92307,20.03648 -26.66743,16.72957 1.25564,-3.3069 3.21854,-23.88889 17.51861,-33.72298 7.15004,-4.91705 12.62632,-3.04184 21.26331,-4.04266 8.63699,-1.00082 20.45686,-0.86537 21.19536,-1.11448 6.08542,-2.05266 22.23771,-15.21907 35.61655,-16.45681 6.6894,-0.61889 -4.96939,19.27747 0.73163,21.5163 5.70103,2.23886 23.25255,-9.75872 23.25255,-5.7437 z"
       id="path6810"
       inkscape:connector-curvature="0"
       sodipodi:nodetypes="sssssscsssssssss" />
    <path
       sodipodi:type="arc"
       style="fill:#dfc98d;fill-opacity:1;fill-rule:nonzero;stroke:none"
       id="path6813"
       sodipodi:cx="365.67523"
       sodipodi:cy="763.45856"
       sodipodi:rx="4.0406103"
       sodipodi:ry="2.5253813"
       d="m 369.71584,763.45856 a 4.0406103,2.5253813 0 1 1 -8.08122,0 4.0406103,2.5253813 0 1 1 8.08122,0 z"
       transform="matrix(3.8749999,0,0,4.8500001,-1081.1158,-3303.8542)" />
  </g>
</svg>
