<?xml version="1.0" encoding="UTF-8" standalone="no"?>
<!-- Created with Inkscape (http://www.inkscape.org/) -->

<svg
   xmlns:dc="http://purl.org/dc/elements/1.1/"
   xmlns:cc="http://creativecommons.org/ns#"
   xmlns:rdf="http://www.w3.org/1999/02/22-rdf-syntax-ns#"
   xmlns:svg="http://www.w3.org/2000/svg"
   xmlns="http://www.w3.org/2000/svg"
   xmlns:sodipodi="http://sodipodi.sourceforge.net/DTD/sodipodi-0.dtd"
   xmlns:inkscape="http://www.inkscape.org/namespaces/inkscape"
   width="744.09448819"
   height="1052.3622047"
   id="svg6720"
   version="1.1"
   inkscape:version="0.48.5 r10040"
   sodipodi:docname="New document 11">
  <defs
     id="defs6722" />
  <sodipodi:namedview
     id="base"
     pagecolor="#ffffff"
     bordercolor="#666666"
     borderopacity="1.0"
     inkscape:pageopacity="0.0"
     inkscape:pageshadow="2"
     inkscape:zoom="0.35"
     inkscape:cx="375"
     inkscape:cy="520"
     inkscape:document-units="px"
     inkscape:current-layer="layer1"
     showgrid="false"
     inkscape:window-width="463"
     inkscape:window-height="423"
     inkscape:window-x="-32000"
     inkscape:window-y="-32000"
     inkscape:window-maximized="0" />
  <metadata
     id="metadata6725">
    <rdf:RDF>
      <cc:Work
         rdf:about="">
        <dc:format>image/svg+xml</dc:format>
        <dc:type
           rdf:resource="http://purl.org/dc/dcmitype/StillImage" />
        <dc:title></dc:title>
      </cc:Work>
    </rdf:RDF>
  </metadata>
  <g
     inkscape:label="Layer 1"
     inkscape:groupmode="layer"
     id="layer1">
    <path
       style="fill:#ffff00;fill-opacity:1;fill-rule:nonzero;stroke:#000000;stroke-width:7.10470009;stroke-linecap:butt;stroke-linejoin:miter;stroke-miterlimit:4;stroke-opacity:1"
       d="m 411.89387,427.58595 c 17.87502,25.58406 -56.0904,69.94416 -69.92278,75.0798 -13.75669,5.10748 -80.43751,25.07328 -80.43751,13.79026 0,-5.64165 -26.96585,-13.04742 -10.02184,-30.79014 16.94401,-17.74259 74.64342,-45.31135 82.04753,-45.31135 7.40412,0 35.39944,-29.1242 52.08064,-33.34375 16.68119,-4.2194 22.99269,15.90732 26.25396,20.57518 z"
       id="path6701"
       inkscape:connector-curvature="0"
       sodipodi:nodetypes="sssssss" />
    <path
       style="fill:#ffff00;fill-opacity:1;fill-rule:nonzero;stroke:#000000;stroke-width:7.10470009;stroke-miterlimit:4;stroke-opacity:1"
       d="m 402.43067,405.62368 c -6.3089,21.91199 -125.20097,83.76258 -157.72073,92.95613 2.17875,-21.45149 -9.4632,-65.93666 -23.13238,-103.17096 -26.41529,5.95901 -54.39461,-59.47695 2.5256,-89.55352 13.81003,-19.8616 63.22926,-13.61744 79.48921,-13.61744 16.25981,0 67.25618,-2.66887 86.84935,22.81085 19.59316,25.47986 11.98895,71.95786 11.98895,90.57494 z"
       id="path6190"
       inkscape:connector-curvature="0"
       sodipodi:nodetypes="ccccssc" />
    <path
       style="fill:#ffff00;fill-opacity:1;fill-rule:nonzero;stroke:#000000;stroke-width:7.10470009;stroke-linecap:butt;stroke-linejoin:miter;stroke-miterlimit:4;stroke-opacity:1"
       d="m 465.51893,511.34839 c 6.30875,39.86325 -29.07727,53.62844 -77.80898,60.77903 -36.74866,5.39208 -74.33145,-6.66782 -104.09552,-26.0482 -9.68248,-6.30452 -19.58898,-14.01813 -20.93735,-27.20868 86.53334,-7.16488 132.19248,-70.06083 153.82831,-79.69527 19.84689,1.94773 47.09414,60.04529 49.01354,72.17312 z"
       id="path6704"
       inkscape:connector-curvature="0"
       sodipodi:nodetypes="ssaccs" />
  </g>
</svg>
