<?xml version="1.0" encoding="UTF-8" standalone="no"?>
<!-- Created with Inkscape (http://www.inkscape.org/) -->

<svg
   xmlns:dc="http://purl.org/dc/elements/1.1/"
   xmlns:cc="http://creativecommons.org/ns#"
   xmlns:rdf="http://www.w3.org/1999/02/22-rdf-syntax-ns#"
   xmlns:svg="http://www.w3.org/2000/svg"
   xmlns="http://www.w3.org/2000/svg"
   xmlns:sodipodi="http://sodipodi.sourceforge.net/DTD/sodipodi-0.dtd"
   xmlns:inkscape="http://www.inkscape.org/namespaces/inkscape"
   width="744.09448819"
   height="1052.3622047"
   id="svg3853"
   version="1.1"
   inkscape:version="0.48.5 r10040"
   sodipodi:docname="New document 7">
  <defs
     id="defs3855" />
  <sodipodi:namedview
     id="base"
     pagecolor="#ffffff"
     bordercolor="#666666"
     borderopacity="1.0"
     inkscape:pageopacity="0.0"
     inkscape:pageshadow="2"
     inkscape:zoom="0.35"
     inkscape:cx="375"
     inkscape:cy="520"
     inkscape:document-units="px"
     inkscape:current-layer="layer1"
     showgrid="false"
     inkscape:window-width="1366"
     inkscape:window-height="706"
     inkscape:window-x="-8"
     inkscape:window-y="-8"
     inkscape:window-maximized="1" />
  <metadata
     id="metadata3858">
    <rdf:RDF>
      <cc:Work
         rdf:about="">
        <dc:format>image/svg+xml</dc:format>
        <dc:type
           rdf:resource="http://purl.org/dc/dcmitype/StillImage" />
        <dc:title></dc:title>
      </cc:Work>
    </rdf:RDF>
  </metadata>
  <g
     inkscape:label="Layer 1"
     inkscape:groupmode="layer"
     id="layer1">
    <path
       style="fill:#ff0000;fill-opacity:0.73544976;fill-rule:nonzero;stroke:#000000;stroke-width:1;stroke-linecap:butt;stroke-linejoin:miter;stroke-miterlimit:4;stroke-opacity:1"
       d="m 413.3707,389.17989 c 4.30909,12.37077 -0.0361,35.9749 4.03209,55.23397 4.0682,19.25907 1.43561,43.85309 3.89622,63.38246 -18.74229,0.90522 -64.4388,0.68971 -78.61157,0.68971 -14.17278,0 -45.73806,-0.17372 -72.30861,-0.68971 5.2887,-6.56526 26.01497,-36.42475 34.09505,-51.4788 8.08008,-15.05405 3.51398,-15.30265 8.64166,-27.47661 10.25536,-24.34793 -5.09442,-53.62719 -10.04675,-62.17162 -5.86019,-10.1108 -27.76633,-57.2536 -25.15449,-82.76849 0.93061,-9.09102 -15.7951,-17.93923 -9.59706,-29.04735 6.19804,-11.10812 45.22436,-23.58362 52.30982,-23.69794 27.90424,-0.45021 9.58778,-22.17826 27.10684,2.58073 23.07409,32.60971 61.86937,144.6279 65.6368,155.44365 z"
       id="path2987"
       inkscape:connector-curvature="0"
       sodipodi:nodetypes="sscscssssssss" />
    <path
       style="fill:#ff0000;fill-opacity:0.73544976;fill-rule:nonzero;stroke:#000000;stroke-width:1;stroke-linecap:butt;stroke-linejoin:miter;stroke-miterlimit:4;stroke-opacity:1"
       d="m 330.0815,205.04322 c 4.16282,8.75819 19.48852,22.32144 13.1108,26.85725 -18.08324,9.48814 -23.60275,14.40757 -36.52182,19.06437 -12.70909,4.58111 -26.41733,6.53027 -39.63119,8.48159 -4.35587,-3.30135 -19.68926,-10.67517 -31.12376,-7.77677 -13.53628,-4.09482 -17.31524,-3.0704 -15.37173,7.24337 -7.59338,3.96969 -14.98782,-9.77474 -20.48391,-13.56802 -4.14546,-15.49879 4.41251,-28.70003 9.36484,-38.95115 0,-9.69716 -1.36642,-23.76628 5.5477,-35.29856 6.91412,-11.53227 22.50117,-19.46067 37.22242,-25.48003 39.46248,-16.13579 68.88242,40.48384 77.88665,59.42795 z"
       id="path3758"
       inkscape:connector-curvature="0"
       sodipodi:nodetypes="scacccccsss" />
    <path
       style="fill:#ff0000;fill-opacity:0.73544976;fill-rule:nonzero;stroke:#000000;stroke-width:1;stroke-linecap:butt;stroke-linejoin:miter;stroke-miterlimit:4;stroke-opacity:1"
       d="m 252.64507,218.99979 c -1.87351,3.97093 -22.52292,5.64289 -22.96081,-5.40254 8.10381,-7.06947 15.95167,-14.85699 22.51059,-21.15995 7.45936,0 9.45446,20.84365 0.45022,26.56249 z"
       id="path3761"
       inkscape:connector-curvature="0"
       sodipodi:nodetypes="cccc" />
    <path
       sodipodi:type="arc"
       style="fill:#ff0000;fill-opacity:0.73544976;fill-rule:nonzero;stroke:#000000;stroke-width:1;stroke-linecap:butt;stroke-linejoin:miter;stroke-miterlimit:4;stroke-opacity:1;stroke-dasharray:none"
       id="path3764"
       sodipodi:cx="179.18433"
       sodipodi:cy="175.80774"
       sodipodi:rx="3.1514831"
       sodipodi:ry="4.7272243"
       d="m 182.33581,175.80774 a 3.1514831,4.7272243 0 1 1 -6.30297,0 3.1514831,4.7272243 0 1 1 6.30297,0 z"
       transform="matrix(0.43895141,0.37713446,-0.57720402,0.71729722,231.57314,46.926984)" />
    <path
       sodipodi:type="arc"
       style="fill:#ff0000;fill-opacity:0.73544976;fill-rule:nonzero;stroke:#000000;stroke-width:1;stroke-linecap:butt;stroke-linejoin:miter;stroke-miterlimit:4;stroke-opacity:1;stroke-dasharray:none"
       id="path3766"
       sodipodi:cx="208.6732"
       sodipodi:cy="150.37076"
       sodipodi:rx="3.8268008"
       sodipodi:ry="3.6016948"
       d="m 212.5,150.37076 a 3.8268008,3.6016948 0 1 1 -7.6536,0 3.8268008,3.6016948 0 1 1 7.6536,0 z"
       transform="translate(28.43956,61.875854)" />
    <path
       style="fill:none;stroke:#000000;stroke-width:1px;stroke-linecap:butt;stroke-linejoin:miter;stroke-opacity:1"
       d="m 222.69233,249.79834 c 0,0 9.7506,-10.61604 17.08074,-10.88468 4.02411,-0.14748 9.40434,2.773 11.52136,6.19841 1.10456,1.78721 -0.0796,6.86008 -0.0796,6.86008"
       id="path3768"
       inkscape:connector-curvature="0"
       sodipodi:nodetypes="cssc" />
    <path
       style="fill:#ff0000;fill-opacity:0.73544976;fill-rule:nonzero;stroke:#000000;stroke-width:1;stroke-linecap:butt;stroke-linejoin:miter;stroke-miterlimit:4;stroke-opacity:1"
       d="m 323.77855,566.78844 c -9.00424,17.77813 -17.64382,50.50992 -61.67903,27.68803 -52.86679,-19.64781 -24.44981,-36.03341 -11.70551,-59.65307 8.55403,-15.97728 41.58372,-63.73388 77.88665,-49.74841 47.76142,18.39976 3.5306,65.85352 -4.50211,81.71345 z"
       id="path3770"
       inkscape:connector-curvature="0"
       sodipodi:nodetypes="sccss" />
    <path
       style="fill:none;stroke:#000000;stroke-width:1px;stroke-linecap:butt;stroke-linejoin:miter;stroke-opacity:1"
       d="m 206.27325,212.69682 11.25529,2.25106 -0.90042,9.90466 9.00424,-3.6017 -0.45021,7.65361 11.25529,-1.35064 0,6.75318 12.15572,0 c 0,0 3.2789,8.80712 3.17645,13.50635 -0.0322,1.47718 -0.58207,4.18612 -0.58207,4.18612"
       id="path3773"
       inkscape:connector-curvature="0"
       sodipodi:nodetypes="ccccccccsc" />
    <path
       style="fill:#ff0000;fill-opacity:0.73544976;fill-rule:nonzero;stroke:#000000;stroke-width:1;stroke-linecap:butt;stroke-linejoin:miter;stroke-miterlimit:4;stroke-opacity:1"
       d="m 299.01689,611.80963 c -4.24097,8.01466 9.27032,7.42101 11.87388,36.10982 1.50451,16.57831 -0.86051,62.48953 -3.17179,84.80623 -2.44799,23.63671 -27.97983,21.03889 -51.47222,20.67558 -21.29636,-0.32934 -61.83912,2.55818 -45.52758,-38.5421 9.54453,-24.04941 14.22432,-89.12908 14.01275,-101.24868 -1.35064,-77.3679 26.56156,-51.28809 44.57097,-43.44544 19.64297,8.55402 44.32063,14.04072 29.71399,41.64459 z"
       id="path3775"
       inkscape:connector-curvature="0"
       sodipodi:nodetypes="ssssssss" />
    <path
       style="fill:#ff0000;fill-opacity:0.73544976;fill-rule:nonzero;stroke:#000000;stroke-width:1.0489279;stroke-linecap:butt;stroke-linejoin:miter;stroke-miterlimit:4;stroke-opacity:1"
       d="m 416.27253,567.00559 c 1.40584,20.9707 11.11181,55.30088 -40.53889,58.35116 -57.87678,10.68878 -41.13456,-19.48487 -42.30169,-47.76739 -0.84932,-19.09546 3.30198,-80.19481 43.30838,-87.08721 52.63381,-9.0679 38.27801,57.79541 39.5322,76.50344 z"
       id="path3770-7"
       inkscape:connector-curvature="0"
       sodipodi:nodetypes="sccss" />
    <path
       style="fill:#ff0000;fill-opacity:0.73544976;fill-rule:nonzero;stroke:#000000;stroke-width:1.06808233;stroke-linecap:butt;stroke-linejoin:miter;stroke-miterlimit:4;stroke-opacity:1"
       d="m 420.27034,596.55393 c -0.84126,9.03752 5.85339,3.16479 21.48685,28.50307 9.03406,14.64213 24.50371,59.56751 32.11841,80.98767 8.06512,22.68713 -19.87059,30.36634 -44.6631,39.29493 -22.47495,8.09398 -65.48151,26.7326 -66.86718,-17.46948 -0.81082,-25.86439 -26.24141,-86.46786 -29.04897,-98.57163 -10.10297,-43.55526 4.77793,-57.60593 27.18629,-57.49926 24.44093,0.11633 62.68517,-6.37208 59.7877,24.7547 z"
       id="path3775-4"
       inkscape:connector-curvature="0"
       sodipodi:nodetypes="ssssssss" />
  </g>
</svg>
