<?xml version="1.0" encoding="UTF-8" standalone="no"?>
<!-- Created with Inkscape (http://www.inkscape.org/) -->

<svg
   xmlns:dc="http://purl.org/dc/elements/1.1/"
   xmlns:cc="http://creativecommons.org/ns#"
   xmlns:rdf="http://www.w3.org/1999/02/22-rdf-syntax-ns#"
   xmlns:svg="http://www.w3.org/2000/svg"
   xmlns="http://www.w3.org/2000/svg"
   xmlns:xlink="http://www.w3.org/1999/xlink"
   xmlns:sodipodi="http://sodipodi.sourceforge.net/DTD/sodipodi-0.dtd"
   xmlns:inkscape="http://www.inkscape.org/namespaces/inkscape"
   width="744.09448819"
   height="1052.3622047"
   id="svg53727"
   version="1.1"
   inkscape:version="0.48.5 r10040"
   sodipodi:docname="Clouds.svg">
  <defs
     id="defs53729">
    <linearGradient
       inkscape:collect="always"
       id="linearGradient54989">
      <stop
         style="stop-color:#cccccc;stop-opacity:1;"
         offset="0"
         id="stop54991" />
      <stop
         style="stop-color:#cccccc;stop-opacity:0;"
         offset="1"
         id="stop54993" />
    </linearGradient>
    <linearGradient
       inkscape:collect="always"
       id="linearGradient54963">
      <stop
         style="stop-color:#cccccc;stop-opacity:1;"
         offset="0"
         id="stop54965" />
      <stop
         style="stop-color:#cccccc;stop-opacity:0;"
         offset="1"
         id="stop54967" />
    </linearGradient>
    <linearGradient
       inkscape:collect="always"
       id="linearGradient54937">
      <stop
         style="stop-color:#cccccc;stop-opacity:1;"
         offset="0"
         id="stop54939" />
      <stop
         style="stop-color:#cccccc;stop-opacity:0;"
         offset="1"
         id="stop54941" />
    </linearGradient>
    <radialGradient
       inkscape:collect="always"
       xlink:href="#linearGradient54937"
       id="radialGradient54943"
       cx="102.93024"
       cy="473.55701"
       fx="102.93024"
       fy="473.55701"
       r="105.33784"
       gradientTransform="matrix(0.03020072,0.9790787,-1.3819521,0.0426278,906.33847,698.82092)"
       gradientUnits="userSpaceOnUse" />
    <radialGradient
       inkscape:collect="always"
       xlink:href="#linearGradient54963"
       id="radialGradient54969"
       cx="36.472324"
       cy="273.72479"
       fx="36.472324"
       fy="273.72479"
       r="145.07306"
       gradientTransform="matrix(-0.21062538,1.5269737,-1.5185443,-0.2094627,503.55832,589.84795)"
       gradientUnits="userSpaceOnUse" />
    <radialGradient
       inkscape:collect="always"
       xlink:href="#linearGradient54989"
       id="radialGradient54995"
       cx="413.1496"
       cy="254.96004"
       fx="413.1496"
       fy="254.96004"
       r="104.73962"
       gradientTransform="matrix(-0.00638234,1.5049,-2.2783744,-0.00966267,996.68088,24.245943)"
       gradientUnits="userSpaceOnUse" />
    <linearGradient
       inkscape:collect="always"
       id="linearGradient54989-9">
      <stop
         style="stop-color:#cccccc;stop-opacity:1;"
         offset="0"
         id="stop54991-8" />
      <stop
         style="stop-color:#cccccc;stop-opacity:0;"
         offset="1"
         id="stop54993-5" />
    </linearGradient>
    <linearGradient
       inkscape:collect="always"
       id="linearGradient54963-0">
      <stop
         style="stop-color:#cccccc;stop-opacity:1;"
         offset="0"
         id="stop54965-4" />
      <stop
         style="stop-color:#cccccc;stop-opacity:0;"
         offset="1"
         id="stop54967-0" />
    </linearGradient>
    <linearGradient
       inkscape:collect="always"
       id="linearGradient54937-2">
      <stop
         style="stop-color:#cccccc;stop-opacity:1;"
         offset="0"
         id="stop54939-5" />
      <stop
         style="stop-color:#cccccc;stop-opacity:0;"
         offset="1"
         id="stop54941-8" />
    </linearGradient>
    <linearGradient
       inkscape:collect="always"
       id="linearGradient55106">
      <stop
         style="stop-color:#fe8a0f;stop-opacity:1;"
         offset="0"
         id="stop55108" />
      <stop
         style="stop-color:#fe8a0f;stop-opacity:0;"
         offset="1"
         id="stop55110" />
    </linearGradient>
    <radialGradient
       r="164.65486"
       fy="407.49405"
       fx="121.07245"
       cy="407.49405"
       cx="121.07245"
       gradientTransform="matrix(-0.17851478,2.0389735,-3.1269,-0.27376408,1369.5569,142.27795)"
       gradientUnits="userSpaceOnUse"
       id="radialGradient55134"
       xlink:href="#linearGradient55106"
       inkscape:collect="always" />
    <radialGradient
       inkscape:collect="always"
       xlink:href="#linearGradient54963-0"
       id="radialGradient55155"
       gradientUnits="userSpaceOnUse"
       gradientTransform="matrix(-0.21062538,1.5269737,-1.5185443,-0.2094627,515.61512,230.44263)"
       cx="36.472324"
       cy="273.72479"
       fx="36.472324"
       fy="273.72479"
       r="145.07306" />
    <linearGradient
       inkscape:collect="always"
       id="linearGradient55183-1">
      <stop
         style="stop-color:#fe8a0f;stop-opacity:1;"
         offset="0"
         id="stop55185-0" />
      <stop
         style="stop-color:#fe8a0f;stop-opacity:0;"
         offset="1"
         id="stop55187-4" />
    </linearGradient>
    <radialGradient
       r="126.26907"
       fy="226.37848"
       fx="413.62515"
       cy="226.37848"
       cx="413.62515"
       gradientTransform="matrix(-0.32478482,3.0341078,-2.9617115,-0.31703525,1236.1332,-911.70662)"
       gradientUnits="userSpaceOnUse"
       id="radialGradient55211"
       xlink:href="#linearGradient55183-1"
       inkscape:collect="always" />
    <radialGradient
       inkscape:collect="always"
       xlink:href="#linearGradient54989-9"
       id="radialGradient55232"
       gradientUnits="userSpaceOnUse"
       gradientTransform="matrix(-0.00638234,1.5049,-2.2783744,-0.00966267,1008.7376,-335.15938)"
       cx="413.1496"
       cy="254.96004"
       fx="413.1496"
       fy="254.96004"
       r="104.73962" />
    <linearGradient
       inkscape:collect="always"
       id="linearGradient55183-3">
      <stop
         style="stop-color:#fe8a0f;stop-opacity:1;"
         offset="0"
         id="stop55185-5" />
      <stop
         style="stop-color:#fe8a0f;stop-opacity:0;"
         offset="1"
         id="stop55187-9" />
    </linearGradient>
    <radialGradient
       r="126.26907"
       fy="220.89378"
       fx="397.98181"
       cy="220.89378"
       cx="397.98181"
       gradientTransform="matrix(-0.71491259,2.9665123,-3.0417115,-0.73303523,1195.8142,-662.32577)"
       gradientUnits="userSpaceOnUse"
       id="radialGradient55254"
       xlink:href="#linearGradient55183-3"
       inkscape:collect="always" />
    <radialGradient
       inkscape:collect="always"
       xlink:href="#linearGradient54937-2"
       id="radialGradient55273"
       gradientUnits="userSpaceOnUse"
       gradientTransform="matrix(0.03020072,0.9790787,-1.3819521,0.0426278,918.3949,339.4161)"
       cx="102.93024"
       cy="473.55701"
       fx="102.93024"
       fy="473.55701"
       r="105.33784" />
    <radialGradient
       inkscape:collect="always"
       xlink:href="#linearGradient54989-2"
       id="radialGradient54995-4"
       cx="413.1496"
       cy="254.96004"
       fx="413.1496"
       fy="254.96004"
       r="104.73962"
       gradientTransform="matrix(-0.00638234,1.5049,-2.2783744,-0.00966267,1024.1258,447.75052)"
       gradientUnits="userSpaceOnUse" />
    <linearGradient
       inkscape:collect="always"
       id="linearGradient54989-2">
      <stop
         style="stop-color:#cccccc;stop-opacity:1;"
         offset="0"
         id="stop54991-7" />
      <stop
         style="stop-color:#cccccc;stop-opacity:0;"
         offset="1"
         id="stop54993-0" />
    </linearGradient>
    <linearGradient
       inkscape:collect="always"
       id="linearGradient54963-2">
      <stop
         style="stop-color:#cccccc;stop-opacity:1;"
         offset="0"
         id="stop54965-3" />
      <stop
         style="stop-color:#cccccc;stop-opacity:0;"
         offset="1"
         id="stop54967-01" />
    </linearGradient>
    <linearGradient
       inkscape:collect="always"
       id="linearGradient54937-5">
      <stop
         style="stop-color:#cccccc;stop-opacity:1;"
         offset="0"
         id="stop54939-7" />
      <stop
         style="stop-color:#cccccc;stop-opacity:0;"
         offset="1"
         id="stop54941-5" />
    </linearGradient>
    <radialGradient
       inkscape:collect="always"
       xlink:href="#linearGradient55377-4"
       id="radialGradient55383-2"
       cx="143.02879"
       cy="1214.4175"
       fx="143.02879"
       fy="1214.4175"
       r="173.74623"
       gradientTransform="matrix(0.52575021,2.4664329,-3.4685959,0.73937382,4185.6133,-239.73346)"
       gradientUnits="userSpaceOnUse" />
    <linearGradient
       inkscape:collect="always"
       id="linearGradient55377-4">
      <stop
         style="stop-color:#000000;stop-opacity:1;"
         offset="0"
         id="stop55379-8" />
      <stop
         style="stop-color:#000000;stop-opacity:0;"
         offset="1"
         id="stop55381-0" />
    </linearGradient>
    <radialGradient
       r="173.74623"
       fy="1214.4175"
       fx="143.02879"
       cy="1214.4175"
       cx="143.02879"
       gradientTransform="matrix(0.52575021,2.4664329,-3.4685959,0.73937382,4185.6046,-239.71932)"
       gradientUnits="userSpaceOnUse"
       id="radialGradient55402"
       xlink:href="#linearGradient55377-4"
       inkscape:collect="always" />
    <radialGradient
       inkscape:collect="always"
       xlink:href="#linearGradient54963-2"
       id="radialGradient55423"
       gradientUnits="userSpaceOnUse"
       gradientTransform="matrix(-0.21062538,1.5269737,-1.5185443,-0.2094627,531.00319,1013.3526)"
       cx="36.472324"
       cy="273.72479"
       fx="36.472324"
       fy="273.72479"
       r="145.07306" />
    <radialGradient
       inkscape:collect="always"
       xlink:href="#linearGradient55377-5"
       id="radialGradient55404-9"
       gradientUnits="userSpaceOnUse"
       gradientTransform="matrix(0.52575021,2.4664329,-3.4685959,0.73937382,4549.2682,-217.5101)"
       cx="143.02879"
       cy="1214.4175"
       fx="143.02879"
       fy="1214.4175"
       r="173.74623" />
    <linearGradient
       inkscape:collect="always"
       id="linearGradient55377-5">
      <stop
         style="stop-color:#000000;stop-opacity:1;"
         offset="0"
         id="stop55379-4" />
      <stop
         style="stop-color:#000000;stop-opacity:0;"
         offset="1"
         id="stop55381-1" />
    </linearGradient>
    <radialGradient
       r="173.74623"
       fy="1214.4175"
       fx="143.02879"
       cy="1214.4175"
       cx="143.02879"
       gradientTransform="matrix(0.52575021,2.4664329,-3.4685959,0.73937382,4549.2722,-217.51395)"
       gradientUnits="userSpaceOnUse"
       id="radialGradient55445"
       xlink:href="#linearGradient55377-5"
       inkscape:collect="always" />
    <radialGradient
       inkscape:collect="always"
       xlink:href="#linearGradient55377-7"
       id="radialGradient55447-4"
       gradientUnits="userSpaceOnUse"
       gradientTransform="matrix(0.52575021,2.4664329,-3.4685959,0.73937382,4300.7707,-59.926303)"
       cx="143.02879"
       cy="1214.4175"
       fx="143.02879"
       fy="1214.4175"
       r="173.74623" />
    <linearGradient
       inkscape:collect="always"
       id="linearGradient55377-7">
      <stop
         style="stop-color:#000000;stop-opacity:1;"
         offset="0"
         id="stop55379-9" />
      <stop
         style="stop-color:#000000;stop-opacity:0;"
         offset="1"
         id="stop55381-02" />
    </linearGradient>
    <radialGradient
       r="173.74623"
       fy="1214.4175"
       fx="143.02879"
       cy="1214.4175"
       cx="143.02879"
       gradientTransform="matrix(0.52575021,2.4664329,-3.4685959,0.73937382,4300.7699,-59.921001)"
       gradientUnits="userSpaceOnUse"
       id="radialGradient55483"
       xlink:href="#linearGradient55377-7"
       inkscape:collect="always" />
    <radialGradient
       inkscape:collect="always"
       xlink:href="#linearGradient54937-5"
       id="radialGradient55502"
       gradientUnits="userSpaceOnUse"
       gradientTransform="matrix(0.03020072,0.9790787,-1.3819521,0.0426278,933.78338,1122.3255)"
       cx="102.93024"
       cy="473.55701"
       fx="102.93024"
       fy="473.55701"
       r="105.33784" />
  </defs>
  <sodipodi:namedview
     id="base"
     pagecolor="#ffffff"
     bordercolor="#666666"
     borderopacity="1.0"
     inkscape:pageopacity="0.0"
     inkscape:pageshadow="2"
     inkscape:zoom="0.35"
     inkscape:cx="703.72263"
     inkscape:cy="391.67532"
     inkscape:document-units="px"
     inkscape:current-layer="layer1"
     showgrid="false"
     inkscape:window-width="1366"
     inkscape:window-height="706"
     inkscape:window-x="-8"
     inkscape:window-y="-8"
     inkscape:window-maximized="1" />
  <metadata
     id="metadata53732">
    <rdf:RDF>
      <cc:Work
         rdf:about="">
        <dc:format>image/svg+xml</dc:format>
        <dc:type
           rdf:resource="http://purl.org/dc/dcmitype/StillImage" />
        <dc:title></dc:title>
      </cc:Work>
    </rdf:RDF>
  </metadata>
  <g
     inkscape:label="Layer 1"
     inkscape:groupmode="layer"
     id="layer1">
    <path
       style="fill:#fdff0a;fill-opacity:1;fill-rule:nonzero;stroke:none"
       d="m 594.62239,390.97767 c 0.86688,2.47353 1.98123,18.31278 -1.69742,19.87732 -3.67885,1.56455 -13.01737,-5.48684 -16.06113,-5.48684 -3.04376,0 -8.86111,6.59213 -13.30529,6.40538 -4.44418,-0.18679 -6.29021,-10.21414 -6.29021,-12.83518 0,-2.62102 0.7744,-9.28045 6.5965,-14.67225 5.82189,-5.39182 15.4665,-6.4542 18.51026,-6.4542 6.08753,0 10.41014,7.9237 12.24729,13.16577 z"
       id="path54263-6-1"
       inkscape:connector-curvature="0"
       sodipodi:nodetypes="ssssssss" />
    <path
       style="fill:#fdff0a;fill-opacity:1;fill-rule:nonzero;stroke:none"
       d="m 576.25145,434.45527 c -2.44954,3.5511 -15.40024,13.77814 -19.28941,13.77814 -3.88938,0 3.18886,-10.85501 5.20517,-13.77814 2.44954,-3.55107 6.82685,-8.26687 10.71623,-8.26687 3.88917,0 5.38432,5.34375 3.36801,8.26687 z"
       id="path54265-8-1"
       inkscape:connector-curvature="0"
       sodipodi:nodetypes="sssss" />
    <path
       style="fill:#ffff00;fill-opacity:0.78039217;fill-rule:nonzero;stroke:none"
       d="m 543.18409,405.67432 c 3.04604,2.41829 -1.62456,8.08813 -4.89887,14.39048 -0.79546,1.5309 -8.45823,9.60196 -11.86112,10.99668 -3.4029,1.39474 -0.70878,-5.72396 -5.89723,-7.01632 -1.8871,-0.47003 -25.70119,10.69038 -24.70264,8.64928 0.99835,-2.04109 27.27519,-18.14088 28.98913,-19.36561 5.77834,-4.12918 13.47186,-11.54379 18.37073,-7.65451 z"
       id="path54261-0-0"
       inkscape:connector-curvature="0"
       sodipodi:nodetypes="sssssss" />
    <path
       style="fill:#ffff00;fill-opacity:0.78039217;fill-rule:nonzero;stroke:none"
       d="m 507.66719,420.98335 c -1.53086,2.11373 -9.61488,3.72117 -17.0632,6.63727 -7.44831,2.91611 -14.26092,7.14085 -15.69828,7.14085 -1.43736,0 -5.00228,-6.08307 -1.64128,-9.39253 3.361,-3.30944 13.64771,-3.84525 15.41944,-4.99795 3.67431,-2.39039 14.57753,-10.10397 17.45225,-10.10397 2.87473,0 4.01075,7.29253 1.53107,10.71633 z"
       id="path54270-7-4"
       inkscape:connector-curvature="0"
       sodipodi:nodetypes="sssssss" />
    <path
       style="fill:url(#radialGradient55232);fill-opacity:1;fill-rule:nonzero;stroke:none"
       d="m 651.28302,408.98673 c 0,4.78282 28.28933,18.28165 13.88133,28.85402 -6.90655,5.06791 -46.89263,-12.1551 -56.32485,-6.03901 -7.05616,4.57558 -8.6316,12.83981 -18.60768,14.75508 -9.97587,1.91528 -33.25126,7.27936 -38.39266,7.27936 -5.1416,0 -14.5121,-7.27228 -23.83844,-8.37566 -9.32654,-1.10339 0.98659,-9.50983 -8.87804,-11.77817 -9.86442,-2.26833 -22.53689,11.10855 -30.12845,11.5786 -22.67703,1.40407 -27.55713,-11.94698 -28.19118,-16.68761 -2.44955,-18.3128 9.27886,-16.96126 9.54202,-18.39456 1.34634,-7.33392 4.98226,-12.38745 9.33439,-16.73289 8.70425,-8.69086 19.97507,-15.14321 35.43599,-16.06468 8.99837,-0.53631 22.67807,-7.87251 31.64651,-17.16632 6.07906,-6.29945 20.71976,-17.22786 25.86136,-17.22786 5.1416,0 15.01923,3.45908 20.44855,8.94665 5.42953,5.48757 24.10187,13.0036 32.23419,21.11749 8.13253,8.11389 -0.79263,16.86606 10.42081,17.96864 8.92613,0.87767 36.18681,1.50734 34.10631,9.59743 -1.45986,5.67673 -18.55016,5.97807 -18.55016,8.36949 z"
       id="path53750-9-1-4"
       inkscape:connector-curvature="0"
       sodipodi:nodetypes="sssssssssssssssssss" />
    <path
       inkscape:connector-curvature="0"
       style="fill:url(#radialGradient55211);fill-opacity:1;fill-rule:nonzero;stroke:none"
       d="m 572.61602,342.99238 c -5.1416,0 -19.79594,10.9193 -25.875,17.21875 -8.96844,9.29381 -22.62663,16.61994 -31.625,17.15625 -15.46092,0.92147 -26.73325,7.37164 -35.4375,16.0625 -4.35213,4.34544 -7.99741,9.41608 -9.34375,16.75 -0.26316,1.4333 -11.9808,0.0622 -9.53125,18.375 0.61424,4.59249 5.19011,17.27017 26.09375,16.78125 0.67431,-0.0158 1.38509,-0.0499 2.09375,-0.0937 7.59156,-0.47005 20.26058,-13.83083 30.125,-11.5625 9.24809,2.12657 0.75583,9.62772 7.34375,11.46875 0.2196,0.0614 0.46444,0.13917 0.71875,0.1875 0.25431,0.0483 0.52105,0.0905 0.8125,0.125 9.32634,1.10338 18.70215,8.375 23.84375,8.375 5.1414,0 28.39913,-5.36597 38.375,-7.28125 0.62351,-0.1197 1.21999,-0.27064 1.78125,-0.4375 0.56126,-0.16686 1.08795,-0.3534 1.59375,-0.5625 1.50885,-0.62378 2.80209,-1.43087 3.9375,-2.34375 0.38008,-0.30645 0.77327,-0.63966 1.125,-0.96875 3.51729,-3.29091 5.7774,-7.57776 10.1875,-10.4375 9.12845,-5.91912 46.88018,9.99845 55.5625,6.4375 0.13925,-0.0581 0.28243,-0.11902 0.40625,-0.1875 0.12382,-0.0685 0.23584,-0.13956 0.34375,-0.21875 14.408,-10.57237 -13.875,-24.06093 -13.875,-28.84375 0,-2.39142 17.10264,-2.69827 18.5625,-8.375 2.0805,-8.09009 -25.19887,-8.71608 -34.125,-9.59375 -9.11092,-0.89585 -4.93334,-6.85598 -7.40625,-13.40625 -0.19022,-0.50387 -0.40942,-1.02225 -0.6875,-1.53125 -0.55616,-1.018 -1.29593,-2.01701 -2.3125,-3.03125 -8.13232,-8.11389 -26.82047,-15.63743 -32.25,-21.125 -5.08999,-5.1446 -14.06463,-8.50613 -19.40625,-8.90625 -0.36679,-0.0282 -0.70108,-0.0313 -1.03125,-0.0313 z"
       id="rect55181-5" />
    <path
       style="fill:#fcff00;fill-opacity:1;fill-rule:nonzero;stroke:none"
       d="m 291.42181,344.88662 c 0,1.60394 13.20393,4.10535 10.21816,11.40343 -1.38577,3.38722 -8.49285,0.55797 -10.55953,1.86162 -1.03334,0.65182 -3.06709,0.1171 -4.8638,1.03181 -1.79672,0.91471 -3.3564,3.27884 -4.45175,3.66746 -1.09536,0.38863 -2.23147,-2.96603 -4.31746,-4.14501 -2.08599,-1.17897 -5.12186,-0.18225 -5.97613,-0.18225 -1.70855,0 -6.46138,1.07968 -12.62956,2.59896 -6.16819,1.51927 -15.01443,-6.37084 -19.85903,-4.61247 -7.12221,2.58506 -11.24339,12.1551 -16.55731,12.87241 -5.31391,0.71731 -13.33102,1.60419 -13.33102,2.5e-4 0,-5.48073 11.61285,-15.96106 26.35279,-24.37674 3.68499,-2.10392 13.16862,-4.03145 16.69364,-7.57018 3.52503,-3.53874 5.88967,-7.93107 7.45854,-8.39861 3.27739,-0.9767 5.3724,0.96941 7.60834,1.76563 2.23593,0.79622 4.41949,-0.0584 5.27376,-0.0584 6.83418,0 18.94036,7.72638 18.94036,14.14214 z"
       id="path53700-7-7"
       inkscape:connector-curvature="0"
       sodipodi:nodetypes="cssssssssssssssssc" />
    <path
       style="fill:#fcff00;fill-opacity:1;fill-rule:nonzero;stroke:none"
       d="m 336.62611,401.45519 c 0.18191,0.54581 -1.68726,0.97821 -2.61803,1.22971 -5.25338,1.4195 -13.31084,0.47393 -16.26118,1.44596 -2.95034,0.97203 -5.55174,6.79641 -6.59141,7.32657 -0.88094,0.44923 -8.49906,0.61032 -9.13627,1.61715 -1.154,1.82339 -0.27173,3.91323 -0.55813,5.49375 -0.40285,2.22314 -0.10172,5.44946 -1.79502,5.44724 -1.75418,-0.002 -6.1634,-1.80729 -11.25727,-1.67349 -4.42541,0.11624 -9.10461,-0.31848 -13.34482,-0.39173 -4.04536,-0.0699 -6.86942,3.35987 -7.39799,1.62991 -0.70108,-2.29461 -5.73681,-3.68979 -7.81147,-3.68979 -4.14932,0 -9.20415,-0.74356 -13.85997,-1.38884 -9.13543,-1.26614 -11.07265,-3.87414 -13.45095,-7.49178 -1.01454,-1.54323 -5.80357,-4.74553 -8.31865,-6.33446 -2.51509,-1.58892 -4.01892,-3.0797 -4.01892,-4.23035 0,-2.3013 0.83831,-4.80504 9.05458,-4.20806 4.10813,0.29849 9.55568,2.63484 15.5186,3.63389 5.96293,0.99904 12.44122,0.66077 16.59054,0.66077 4.14932,0 11.46,0.77129 19.16775,0.48122 7.70775,-0.29006 15.56002,-0.63133 23.823,-0.83615 8.26297,-0.20482 16.05276,-0.65199 21.86776,-0.39625 5.815,0.25575 9.90776,0.20425 10.27158,1.29587 z"
       id="path53703-7-4"
       inkscape:connector-curvature="0"
       sodipodi:nodetypes="sasssssssssssssssssssss" />
    <path
       style="fill:#fcff00;fill-opacity:1;fill-rule:nonzero;stroke:none"
       d="m 205.30627,394.88918 c 3.03673,-0.73919 -16.93864,9.59645 -20.8344,11.8693 -2.71056,1.58138 -14.81812,6.49764 -16.28871,4.29314 -0.44194,-0.66249 1.86137,-4.0025 3.66022,-7.14513 1.95591,-3.41701 2.96386,-7.18541 3.5283,-7.23313 2.81795,-0.23824 10.30904,-0.26895 11.87811,-0.26895 3.13814,0 15.11345,-0.79885 18.05648,-1.51523 z"
       id="path53706-9-9"
       inkscape:connector-curvature="0"
       sodipodi:nodetypes="sssssss" />
    <path
       style="fill:url(#radialGradient55155);fill-opacity:1;fill-rule:nonzero;stroke:none"
       d="m 377.34292,400.39117 c 0,6.2132 -31.43009,4.73463 -29.78549,12.19033 2.42194,10.9797 -19.34188,3.88718 -14.27557,6.90089 8.94224,5.31932 0.53302,9.56171 -10.05622,11.61945 -21.17847,4.11548 -33.12199,3.53299 -56.79134,3.53299 -2.95866,0 -16.09574,-3.70209 -23.86796,-3.67932 -6.58207,0.0193 -13.21002,-0.27018 -22.48843,-0.52299 -8.24208,-0.22457 -20.37711,-2.48577 -29.36959,-2.30237 -7.79361,0.15895 -9.31275,-2.26761 -14.71195,-1.94636 -12.23041,0.72769 -21.90009,2.69503 -25.12931,2.25129 -5.68979,-0.78186 -0.76887,-5.15611 -7.93211,-6.17107 -35.793,-5.07153 -54.682847,3.20248 -55.738147,-6.05703 9.52899,-13.89672 19.406367,-23.76244 31.100487,-26.7152 1.5317,-0.25596 4.19511,0.3343 6.67586,0.31301 2.48076,-0.0213 4.77885,-0.65416 7.00849,-0.4992 4.32538,0.3006 9.18057,-2.33758 13.64892,-3.89034 4.46835,-1.55277 6.76416,0.47988 8.47076,-0.59215 0.518,-0.32538 2.73326,-2.80451 5.06817,-4.53416 2.33491,-1.72965 4.79729,-2.69701 7.26159,-4.24614 7.9357,-4.98864 16.90466,-1.54306 17.03242,-3.99878 0.3951,-7.59427 12.26478,-19.07483 17.33612,-22.75894 4.09055,-2.97161 4.87951,-4.89829 6.81229,-5.7751 7.73111,-3.50721 6.47266,-0.19292 9.38862,-1.596 3.66167,-1.7619 0.12941,-1.35844 7.66145,-4.97638 7.53204,-3.61794 7.37772,-0.16075 11.18618,-2.88279 5.02113,-3.58878 -4.12163,-4.30348 6.04929,-8.52386 2.66332,-1.10513 6.06353,0.0312 9.27101,-0.34149 3.20748,-0.37272 6.22224,-2.25451 8.11469,-2.25307 7.18607,0.005 2.93648,4.66942 9.10583,5.02656 5.90745,0.34198 14.25219,-3.65827 21.32942,-0.38145 7.07722,3.27683 5.03968,11.70305 8.78364,16.58633 7.48794,9.76657 13.15267,15.36138 19.74463,21.53152 4.80999,4.5022 5.58068,6.15794 10.3905,11.57435 6.02341,6.78303 -5.46934,8.19472 0.99807,9.99742 6.46741,1.80269 17.95116,-2.3096 25.10451,-0.0234 5.02809,1.60696 22.60317,6.93025 22.60317,13.14345 z"
       id="path53189-3-9-6"
       inkscape:connector-curvature="0"
       sodipodi:nodetypes="sssssssssssccsssssssssssssssssssssss" />
    <path
       inkscape:connector-curvature="0"
       style="fill:url(#radialGradient55134);fill-opacity:1;fill-rule:nonzero;stroke:none"
       d="m 259.2907,322.94653 c -1.89245,-10e-4 -4.91752,1.87728 -8.125,2.25 -3.20748,0.37269 -6.58668,-0.76138 -9.25,0.34375 -10.17092,4.22038 -1.04137,4.94247 -6.0625,8.53125 -0.71409,0.51038 -1.26901,0.80547 -1.78125,0.96875 -0.17075,0.0544 -0.3403,0.0962 -0.5,0.125 -1.91636,0.34562 -3.25722,-0.9322 -8.90625,1.78125 -7.53204,3.61794 -3.99458,3.20685 -7.65625,4.96875 -0.3645,0.17539 -0.67774,0.29325 -0.9375,0.34375 -0.24805,0.0482 -0.45788,0.0255 -0.65625,0 -0.01,-10e-4 -0.0214,0.002 -0.0312,0 -1.23863,-0.17582 -1.95167,-1.38041 -7.75,1.25 -1.93278,0.87681 -2.72195,2.80964 -6.8125,5.78125 -5.07134,3.68411 -16.94865,15.15573 -17.34375,22.75 -0.11179,2.14875 -6.99649,-0.21607 -14.03125,2.5 -1.00497,0.38801 -2.00804,0.87642 -3,1.5 -2.4643,1.54913 -4.94634,2.52035 -7.28125,4.25 -1.75118,1.29724 -3.42398,3.0219 -4.375,3.9375 -0.31701,0.3052 -0.558,0.51241 -0.6875,0.59375 -0.42665,0.26801 -0.88121,0.35929 -1.40625,0.34375 -0.26252,-0.008 -0.54735,-0.0543 -0.84375,-0.0937 -1.48198,-0.1973 -3.42603,-0.62673 -6.21875,0.34375 -3.63053,1.26162 -7.50664,3.24503 -11.15625,3.78125 -0.28074,0.0412 -0.56603,0.0706 -0.84375,0.0937 -0.55544,0.0464 -1.11558,0.0688 -1.65625,0.0312 -2.22964,-0.15496 -4.51924,0.4787 -7,0.5 -2.48075,0.0213 -5.12455,-0.56846 -6.65625,-0.3125 -11.69412,2.95276 -21.59601,12.82203 -31.125,26.71875 1.0553,9.25951 19.957,0.95972 55.75,6.03125 1.34311,0.1903 2.26321,0.52557 2.90625,0.90625 0.21435,0.12689 0.40378,0.26499 0.5625,0.40625 1.90469,1.69509 0.20141,4.28861 4.46875,4.875 0.40365,0.0555 0.90266,0.0752 1.5,0.0625 0.59734,-0.0127 1.28663,-0.0583 2.0625,-0.125 4.65523,-0.40022 12.38969,-1.64173 21.5625,-2.1875 4.7243,-0.28109 6.4768,1.55267 12.0625,1.90625 0.39898,0.0253 0.80944,0.0223 1.25,0.0312 0.44056,0.009 0.91915,0.01 1.40625,0 1.12406,-0.0229 2.29148,-0.0135 3.5,0.0312 1.20852,0.0447 2.45325,0.1239 3.71875,0.21875 7.59303,0.56912 15.94344,1.89407 22.125,2.0625 9.27841,0.25281 15.91793,0.55055 22.5,0.53125 7.77222,-0.0228 20.91634,3.65625 23.875,3.65625 8.87601,0 16.09778,0.0834 22.78125,-0.0312 2.22782,-0.0382 4.38329,-0.0953 6.53125,-0.1875 8.59186,-0.36881 16.87951,-1.25476 27.46875,-3.3125 0.66183,-0.12861 1.32766,-0.26084 1.96875,-0.40625 4.5123,-1.02343 8.39619,-2.43963 10.40625,-4.1875 0.14426,-0.12392 0.25028,-0.24793 0.375,-0.375 0.62362,-0.63536 0.99674,-1.29093 1.0625,-2 0.0263,-0.28363 0.0134,-0.58052 -0.0625,-0.875 -0.1898,-0.73619 -0.71528,-1.51443 -1.625,-2.3125 -0.54583,-0.47884 -1.22416,-0.97006 -2.0625,-1.46875 -2.21651,-1.3185 0.71768,-0.69062 4.5,-0.5 0.54033,0.0272 1.09313,0.0595 1.65625,0.0625 0.56312,0.003 1.12651,-0.0275 1.6875,-0.0625 0.56099,-0.035 1.1223,-0.10074 1.65625,-0.1875 0.26698,-0.0434 0.5257,-0.0661 0.78125,-0.125 0.25555,-0.0589 0.509,-0.14261 0.75,-0.21875 0.96402,-0.30455 1.79948,-0.75709 2.40625,-1.40625 0.15169,-0.16229 0.28467,-0.34312 0.40625,-0.53125 0.60791,-0.94064 0.81593,-2.19067 0.4375,-3.90625 -1.6446,-7.4557 29.78125,-5.9743 29.78125,-12.1875 0,-2.32995 -2.45798,-4.53814 -5.8125,-6.46875 -1.11817,-0.64354 -2.33818,-1.26666 -3.59375,-1.84375 -5.02228,-2.30834 -10.67345,-4.04027 -13.1875,-4.84375 -7.15335,-2.2862 -18.65759,1.83394 -25.125,0.0312 -6.07044,-1.69205 3.69836,-3.04434 -0.0625,-8.8125 -0.12414,-0.19169 -0.25115,-0.36085 -0.40625,-0.5625 -0.1551,-0.20165 -0.34302,-0.41303 -0.53125,-0.625 -4.80982,-5.41641 -5.56501,-7.09155 -10.375,-11.59375 -6.59196,-6.17014 -12.26206,-11.76468 -19.75,-21.53125 -3.74396,-4.88328 -1.70403,-13.28567 -8.78125,-16.5625 -3.09629,-1.43361 -6.44748,-1.47289 -9.71875,-1.09375 -1.40197,0.16249 -2.77229,0.38486 -4.125,0.625 -1.80361,0.32018 -3.54153,0.64074 -5.15625,0.78125 -0.40368,0.0351 -0.80015,0.0528 -1.1875,0.0625 -0.38735,0.01 -0.78703,0.0214 -1.15625,0 -6.16935,-0.35714 -1.90768,-5.02625 -9.09375,-5.03125 z"
       id="rect55104" />
    <path
       style="fill:#fffc55;fill-opacity:1;fill-rule:nonzero;stroke:none"
       d="m 465.78196,545.29288 c -4.01022,1.59393 -17.63199,-1.65601 -24.36809,-1.77829 -2.37608,-0.0687 -11.40988,-2.33903 -17.68469,-0.6933 -3.38765,0.88845 -1.54922,9.84878 -12.31874,4.73726 -3.94512,-1.87244 -3.53158,-6.08813 -8.31776,-6.91799 -4.78617,-0.82988 -3.3739,-2.90306 -5.15039,-4.45444 -2.2299,-1.94749 -2.96915,0.63847 -5.92523,0.37568 -2.00871,-0.17861 -5.52227,-3.35897 -6.56627,-4.02742 -2.9518,-1.89015 -8.26798,-8.27634 -13.43684,-8.63422 -5.88064,-0.40718 -12.56291,3.28365 -20.13781,4.89251 -7.57468,1.60889 -16.042,1.13581 -16.042,-0.0385 0,-2.34876 9.27436,-9.90936 19.16859,-14.04754 9.89423,-4.13818 24.18834,-4.85393 26.66781,-4.85393 1.23951,0 17.98472,0.0313 26.10268,5.34949 8.11774,5.3182 14.22384,18.28604 17.81241,20.0598 19.74115,9.7578 40.19633,3.9019 40.19633,10.03098 z"
       id="path54303-6-1"
       inkscape:connector-curvature="0"
       sodipodi:nodetypes="ccsssssssssssssc" />
    <path
       style="fill:url(#radialGradient55273);fill-opacity:1;fill-rule:nonzero;stroke:none"
       d="m 470.9797,549.54542 c 0,2.15305 -0.2514,5.69819 -5.97796,8.32909 -1.45732,0.66951 -5.28283,-2.4014 -10.27826,-0.84671 -3.30814,1.02954 1.84271,4.56107 -5.93041,5.57164 -7.77312,1.0106 -49.76554,4.90236 -53.4192,4.90236 -1.82671,0 -7.62581,-0.55502 -11.69301,-2.70264 -4.56927,-2.4128 -4.63099,-4.11336 -11.10919,-5.04467 -6.47842,-0.93131 -21.44322,-3.07352 -28.99673,-4.29947 -7.55351,-1.22597 -19.63153,8.74689 -27.4952,7.79668 -9.68543,-1.17032 -14.79936,-12.0951 -22.00239,-13.56834 -7.20303,-1.47322 -30.18881,10.91311 -33.42172,5.91739 -0.59847,-0.92464 11.5759,-12.72282 8.05783,-13.98731 -3.51784,-1.26449 -6.64285,0.41541 -7.06766,-0.57369 -4.72536,-10.99979 4.23861,-11.73334 8.22924,-14.61462 6.6789,-4.82244 17.18421,-7.43769 21.86295,-9.54445 9.35725,-4.21352 14.89799,2.31671 20.42296,0.61043 6.61718,-2.04365 10.98163,-7.83438 19.97917,-12.8981 8.99776,-5.06373 19.71915,-9.62755 28.22859,-10.86622 7.97786,-1.16129 9.6147,2.65261 13.26836,2.65261 1.82672,0 2.9081,-5.4367 6.70795,-5.9141 7.00211,-0.87969 12.1007,7.41989 17.00626,9.38712 4.90533,1.9672 11.28825,5.62122 16.84926,8.14751 5.56102,2.5263 9.91045,3.70463 15.59309,6.39306 6.62957,3.1365 3.45522,11.01815 6.22053,14.14769 3.85345,4.36103 16.48234,2.17528 20.14028,2.67595 4.66951,0.63912 9.61966,3.45866 11.91016,5.39115 2.2907,1.93252 2.9151,11.86112 2.9151,12.93764 z"
       id="path54306-9-0-0"
       inkscape:connector-curvature="0"
       sodipodi:nodetypes="sssssssssssssssssssssssssss" />
    <path
       inkscape:connector-curvature="0"
       style="fill:url(#radialGradient55254);fill-opacity:1;fill-rule:nonzero;stroke:none"
       d="m 380.99064,490.40843 c -0.21515,0.01 -0.43743,0.035 -0.65625,0.0625 -1.89992,0.2387 -3.12008,1.70615 -4.09375,3.125 -0.24342,0.35471 -0.46815,0.7043 -0.6875,1.03125 -0.65805,0.98085 -1.25248,1.75 -1.9375,1.75 -0.22835,0 -0.44161,-0.004 -0.65625,-0.0312 -3.21957,-0.41475 -5.11451,-3.71371 -12.59375,-2.625 -8.50944,1.23867 -19.25224,5.81127 -28.25,10.875 -8.99754,5.06372 -13.35157,10.8626 -19.96875,12.90625 -0.34531,0.10664 -0.68489,0.17182 -1.03125,0.21875 -5.19543,0.70393 -10.60258,-4.79393 -19.375,-0.84375 -4.67874,2.10676 -15.1961,4.74006 -21.875,9.5625 -3.99063,2.88128 -12.94411,3.59396 -8.21875,14.59375 0.42481,0.9891 3.54466,-0.67074 7.0625,0.59375 2.63855,0.94837 -3.55585,7.79491 -6.5625,11.5625 -0.004,0.005 0.004,0.0259 0,0.0312 -0.99145,1.24361 -1.64867,2.1453 -1.5,2.375 0.60617,0.9367 1.89545,1.26704 3.65625,1.1875 1.17387,-0.053 2.54898,-0.27286 4.0625,-0.625 1.51352,-0.35214 3.19188,-0.84578 4.90625,-1.375 0.85718,-0.26461 1.71238,-0.5265 2.59375,-0.8125 7.05094,-2.28796 14.58598,-5.01786 18.1875,-4.28125 7.20303,1.47324 12.34582,12.39218 22.03125,13.5625 0.49148,0.0594 0.97773,0.083 1.5,0.0625 1.04454,-0.0411 2.13915,-0.23522 3.28125,-0.53125 7.42367,-1.92418 16.55027,-8.3086 22.6875,-7.3125 7.55351,1.22595 22.52158,3.34994 29,4.28125 4.04888,0.58207 5.6095,1.45587 7.3125,2.625 0.3406,0.23383 0.68772,0.49336 1.0625,0.75 0.74956,0.51328 1.60768,1.0843 2.75,1.6875 4.0672,2.14762 9.86079,2.6875 11.6875,2.6875 3.65366,0 45.63313,-3.89565 53.40625,-4.90625 0.48582,-0.0632 0.92243,-0.13712 1.3125,-0.21875 0.39007,-0.0816 0.75774,-0.15235 1.0625,-0.25 4.26671,-1.36704 0.66788,-4.1929 3.5625,-5.09375 4.99543,-1.55469 8.82393,1.51326 10.28125,0.84375 5.72656,-2.6309 5.96875,-6.1907 5.96875,-8.34375 0,-1.07652 -0.61555,-11.00498 -2.90625,-12.9375 -2.2905,-1.93249 -7.23674,-4.73588 -11.90625,-5.375 -0.91449,-0.12517 -2.39768,-0.0976 -4.15625,-0.0312 -0.87928,0.0332 -1.82618,0.098 -2.8125,0.125 -1.47948,0.0404 -3.03715,0.0437 -4.5625,-0.0312 -1.0169,-0.05 -2.01812,-0.13488 -2.96875,-0.28125 -2.37658,-0.36593 -4.45205,-1.10593 -5.65625,-2.46875 -2.07398,-2.34716 -0.77881,-7.34463 -2.8125,-11.03125 -0.16947,-0.30722 -0.37459,-0.61987 -0.59375,-0.90625 -0.65748,-0.85913 -1.56946,-1.59941 -2.8125,-2.1875 -4.98143,-2.35669 -8.91583,-3.57015 -13.5625,-5.53125 -0.66224,-0.27925 -1.33612,-0.55921 -2.03125,-0.875 -5.56101,-2.52629 -11.93842,-6.18905 -16.84375,-8.15625 -4.75226,-1.90575 -9.67409,-9.7486 -16.34375,-9.4375 z"
       id="rect55181" />
    <path
       style="opacity:0.42035397;fill:#ff0000;fill-opacity:1;fill-rule:nonzero;stroke:none"
       d="m 386.25652,88.407486 c 0,6.2132 -31.43009,4.73463 -29.78549,12.190334 2.42194,10.9797 -19.34188,3.88718 -14.27557,6.90089 8.94224,5.31932 0.53302,9.56171 -10.05622,11.61945 -21.17847,4.11548 -33.12199,3.53299 -56.79134,3.53299 -2.95866,0 -16.09574,-3.70209 -23.86796,-3.67932 -6.58207,0.0193 -13.21002,-0.27018 -22.48843,-0.52299 -8.24208,-0.22457 -20.37711,-2.48577 -29.36959,-2.30237 -7.79361,0.15895 -9.31275,-2.26761 -14.71195,-1.94636 -12.23041,0.72769 -21.90009,2.69503 -25.12931,2.25129 -5.68979,-0.78186 -0.76887,-5.15611 -7.93211,-6.17107 -35.793,-5.07153 -54.682846,3.20248 -55.738146,-6.05703 9.528986,-13.896724 19.406366,-23.762444 31.100486,-26.715204 1.5317,-0.25596 4.19511,0.3343 6.67586,0.31301 2.48076,-0.0213 4.77885,-0.65416 7.00849,-0.4992 4.32538,0.3006 9.18057,-2.33758 13.64892,-3.89034 4.46835,-1.55277 6.76416,0.47988 8.47076,-0.59215 0.518,-0.32538 2.73326,-2.80451 5.06817,-4.53416 2.33491,-1.72965 4.79729,-2.69701 7.26159,-4.24614 7.9357,-4.98864 16.90466,-1.54306 17.03242,-3.99878 0.3951,-7.59427 12.26478,-19.07483 17.33612,-22.75894 4.09055,-2.97161 4.87951,-4.89829 6.81229,-5.7751 7.73111,-3.50721 6.47266,-0.19292 9.38862,-1.596 3.66167,-1.7619 0.12941,-1.35844 7.66145,-4.97638 7.53204,-3.61794 7.37772,-0.16075 11.18618,-2.88279 5.02113,-3.58878 -4.12163,-4.30348 6.04929,-8.52386 2.66332,-1.10513 6.06353,0.0312 9.27101,-0.34149 3.20748,-0.37272 6.22224,-2.25451 8.11469,-2.25307 7.18607,0.005 2.93648,4.66942 9.10583,5.02656 5.90745,0.34198 14.25219,-3.65827 21.32942,-0.38145 7.07722,3.27683 5.03968,11.70305 8.78364,16.58633 7.48794,9.76657 13.15267,15.36138 19.74463,21.53152 4.80999,4.5022 5.58068,6.15794 10.3905,11.57435 6.02341,6.78303 -5.46934,8.19472 0.99807,9.99742 6.46741,1.80269 17.95116,-2.3096 25.10451,-0.0234 5.02809,1.60696 22.60317,6.93025 22.60317,13.14345 z"
       id="path53189"
       inkscape:connector-curvature="0"
       sodipodi:nodetypes="sssssssssssccsssssssssssssssssssssss" />
    <path
       style="opacity:0.19026549;fill:#ff0000;fill-opacity:1;fill-rule:nonzero;stroke:none"
       d="m 300.33522,32.902806 c 0,1.60394 13.20393,4.10535 10.21816,11.40343 -1.38577,3.38722 -8.49285,0.55797 -10.55953,1.86162 -1.03334,0.65182 -3.06709,0.1171 -4.8638,1.03181 -1.79672,0.91471 -3.3564,3.27884 -4.45175,3.66746 -1.09536,0.38863 -2.23147,-2.96603 -4.31746,-4.14501 -2.08599,-1.17897 -5.12186,-0.18225 -5.97613,-0.18225 -1.70855,0 -6.46138,1.07968 -12.62956,2.59896 -6.16819,1.51927 -15.01443,-6.37084 -19.85903,-4.61247 -7.12221,2.58506 -11.24339,12.1551 -16.55731,12.87241 -5.31391,0.71731 -13.33102,1.60419 -13.33102,2.5e-4 0,-5.48073 11.61285,-15.96106 26.35279,-24.37674 3.68499,-2.10392 13.16862,-4.03145 16.69364,-7.57018 3.52503,-3.53874 5.88967,-7.93107 7.45854,-8.39861 3.27739,-0.9767 5.3724,0.96941 7.60834,1.76563 2.23593,0.79622 4.41949,-0.0584 5.27376,-0.0584 6.83418,0 18.94036,7.72638 18.94036,14.14214 z"
       id="path53700"
       inkscape:connector-curvature="0"
       sodipodi:nodetypes="cssssssssssssssssc" />
    <path
       style="opacity:0.1017699;fill:#ff0000;fill-opacity:1;fill-rule:nonzero;stroke:none"
       d="m 345.53952,89.471376 c 0.18191,0.54581 -1.68726,0.97821 -2.61803,1.22971 -5.25338,1.4195 -13.31084,0.47393 -16.26118,1.44596 -2.95034,0.97203 -5.55174,6.79641 -6.59141,7.32657 -0.88094,0.44923 -8.49906,0.610324 -9.13627,1.617154 -1.154,1.82339 -0.27173,3.91323 -0.55813,5.49375 -0.40285,2.22314 -0.10172,5.44946 -1.79502,5.44724 -1.75418,-0.002 -6.1634,-1.80729 -11.25727,-1.67349 -4.42541,0.11624 -9.10461,-0.31848 -13.34482,-0.39173 -4.04536,-0.0699 -6.86942,3.35987 -7.39799,1.62991 -0.70108,-2.29461 -5.73681,-3.68979 -7.81147,-3.68979 -4.14932,0 -9.20415,-0.74356 -13.85997,-1.38884 -9.13543,-1.26614 -11.07265,-3.87414 -13.45095,-7.491784 -1.01454,-1.54323 -5.80357,-4.74553 -8.31865,-6.33446 -2.51509,-1.58892 -4.01892,-3.0797 -4.01892,-4.23035 0,-2.3013 0.83831,-4.80504 9.05458,-4.20806 4.10813,0.29849 9.55568,2.63484 15.5186,3.63389 5.96293,0.99904 12.44122,0.66077 16.59054,0.66077 4.14932,0 11.46,0.77129 19.16775,0.48122 7.70775,-0.29006 15.56002,-0.63133 23.823,-0.83615 8.26297,-0.20482 16.05276,-0.65199 21.86776,-0.39625 5.815,0.25575 9.90776,0.20425 10.27158,1.29587 z"
       id="path53703"
       inkscape:connector-curvature="0"
       sodipodi:nodetypes="sasssssssssssssssssssss" />
    <path
       style="opacity:0.1017699;fill:#ff0000;fill-opacity:1;fill-rule:nonzero;stroke:none"
       d="m 214.21968,82.905366 c 3.03673,-0.73919 -16.93864,9.59645 -20.8344,11.8693 -2.71056,1.58138 -14.81812,6.497644 -16.28871,4.29314 -0.44194,-0.66249 1.86137,-4.0025 3.66022,-7.14513 1.95591,-3.41701 2.96386,-7.18541 3.5283,-7.23313 2.81795,-0.23824 10.30904,-0.26895 11.87811,-0.26895 3.13814,0 15.11345,-0.79885 18.05648,-1.51523 z"
       id="path53706"
       inkscape:connector-curvature="0"
       sodipodi:nodetypes="sssssss" />
    <path
       style="opacity:0.1017699;fill:#ff0000;fill-opacity:1;fill-rule:nonzero;stroke:none"
       d="m 268.58324,115.64749 c -0.60948,0.26777 -12.10583,-0.33938 -17.69416,-0.64312 -2.79417,-0.15187 -5.08591,-0.93843 -5.55526,-0.35739 -0.46936,0.58104 0.88365,2.52969 0.32823,3.80762 -0.2154,0.4956 -5.72524,0.59661 -9.49342,-0.61741 -3.76818,-1.21402 -5.7947,-3.74306 -8.63991,-3.96187 -2.8452,-0.21881 -6.13701,2.05702 -10.90555,1.99101 -4.86179,-0.0673 -8.10601,-4.28874 -8.51065,-4.24676 -2.97156,0.30828 -3.26035,2.29803 -4.77206,3.16962 -1.87589,1.08157 -3.68436,-2.87647 -6.44951,-5.66816 -1.35124,-1.36421 -0.13966,5.20614 -4.28609,5.33814 -3.80566,0.12115 -3.27642,-3.55988 -4.62047,-3.50312 -1.53571,0.0649 -1.02569,1.21377 -4.37656,0.70959 -1.67543,-0.25208 -2.76929,-0.22296 -3.56218,-0.68092 -0.79289,-0.45797 -1.2848,-1.40302 -2.26143,-1.58316 -1.95324,-0.36029 -4.58262,-0.59666 -7.60758,-1.45752 -3.02495,-0.86087 -6.44548,-2.34622 -6.44548,-2.67907 0,-0.33285 1.04757,-1.64797 2.0033,-1.92681 0.95573,-0.27885 3.46111,0.73111 5.11404,0.50273 1.65292,-0.22838 1.44323,-2.70527 3.53481,-2.88673 2.09157,-0.18147 3.60509,-0.0612 5.22059,1.54186 0.6939,0.68857 2.43589,3.27638 3.2684,3.40692 1.71333,0.26865 4.2911,-2.9538 5.38774,-3.76054 1.76849,-1.30099 1.12599,-2.829134 2.98232,-2.891094 1.85633,-0.062 4.60202,2.905694 5.37174,3.904754 0.37788,0.49047 1.54905,1.14265 2.6766,0.66206 1.12756,-0.48059 2.21149,-2.09395 2.4149,-2.09395 0.40682,0 1.76479,0.13649 3.82976,0.38054 2.06498,0.24405 1.30142,-5.465244 4.53627,-5.034984 3.23484,0.43026 8.19524,0.93917 12.11166,1.4978 3.91642,0.55863 3.74989,3.118594 5.84782,3.563914 1.3168,0.27952 3.14324,-6.297024 6.95796,-5.655184 3.81472,0.64185 9.63271,8.094104 12.66415,10.206024 2.53505,1.7661 17.67098,1.91395 19.43084,2.40764 1.75986,0.49369 2.25679,6.22472 1.49918,6.55757 z"
       id="path53709"
       inkscape:connector-curvature="0"
       sodipodi:nodetypes="sssssssssssssssssssssssssssssssssss" />
    <path
       style="opacity:0.5575221;fill:#a50000;fill-opacity:1;fill-rule:nonzero;stroke:none"
       d="m 623.93067,79.082606 c 0,2.31727 13.70615,8.85744 6.72549,13.97974 -3.34622,2.4554 -22.71943,-5.88913 -27.28933,-2.92589 -3.4187,2.21686 -4.182,6.22087 -9.0154,7.14882 -4.8333,0.92795 -16.1102,3.526844 -18.6012,3.526844 -2.4911,0 -7.0311,-3.523414 -11.5497,-4.058004 -4.5187,-0.53459 0.478,-4.6075 -4.3014,-5.70651 -4.7793,-1.099 -10.9191,5.38208 -14.5972,5.60982 -10.987,0.68027 -13.3514,-5.7883 -13.6586,-8.08513 -1.1868,-8.87253 4.4956,-8.21771 4.6231,-8.91214 0.6523,-3.55328 2.4139,-6.00171 4.5225,-8.10707 4.2172,-4.21071 9.6779,-7.33687 17.1687,-7.78332 4.3597,-0.25984 10.9875,-3.81422 15.3327,-8.31706 2.9453,-3.05208 10.0387,-8.34688 12.5298,-8.34688 2.4911,0 7.2768,1.67592 9.9073,4.33464 2.6306,2.65872 11.67733,6.30023 15.61743,10.2314 3.9402,3.93117 -0.38403,8.17159 5.04887,8.70579 4.3247,0.42523 17.53247,0.7303 16.52447,4.64994 -0.7073,2.75037 -8.98753,2.89637 -8.98753,4.05501 z"
       id="path53750"
       inkscape:connector-curvature="0"
       sodipodi:nodetypes="sssssssssssssssssss" />
    <path
       style="opacity:0.5575221;fill:#a50000;fill-opacity:1;fill-rule:nonzero;stroke:none"
       d="m 571.55693,77.477506 c 1.4758,1.17166 -0.7871,3.91869 -2.3735,6.97217 -0.3854,0.74172 -4.098,4.65214 -5.7467,5.32788 -1.6487,0.67575 -0.3434,-2.77325 -2.8572,-3.3994 -0.9143,-0.22773 -12.4522,5.17948 -11.9684,4.19057 0.4837,-0.98891 13.2148,-8.78924 14.0452,-9.38262 2.7996,-2.00058 6.5271,-5.59295 8.9006,-3.7086 z"
       id="path54261"
       inkscape:connector-curvature="0"
       sodipodi:nodetypes="sssssss" />
    <path
       style="opacity:0.5575221;fill:#a50000;fill-opacity:1;fill-rule:nonzero;stroke:none"
       d="m 596.47873,70.356996 c 0.42,1.19842 0.9599,8.87252 -0.8224,9.63054 -1.7824,0.75802 -6.3069,-2.65837 -7.7816,-2.65837 -1.4747,0 -4.2932,3.19388 -6.4464,3.1034 -2.1532,-0.0905 -3.0476,-4.94874 -3.0476,-6.21863 0,-1.26988 0.3752,-4.49637 3.196,-7.10869 2.8207,-2.61233 7.4935,-3.12705 8.9682,-3.12705 2.9494,0 5.0437,3.83902 5.9338,6.3788 z"
       id="path54263"
       inkscape:connector-curvature="0"
       sodipodi:nodetypes="ssssssss" />
    <path
       style="opacity:0.5575221;fill:#a50000;fill-opacity:1;fill-rule:nonzero;stroke:none"
       d="m 587.57803,91.421846 c -1.1868,1.7205 -7.4614,6.67549 -9.3457,6.67549 -1.8844,0 1.545,-5.25924 2.5219,-6.67549 1.1868,-1.72049 3.3076,-4.00529 5.192,-4.00529 1.8843,0 2.6087,2.58904 1.6318,4.00529 z"
       id="path54265"
       inkscape:connector-curvature="0"
       sodipodi:nodetypes="sssss" />
    <path
       style="opacity:0.5575221;fill:#a50000;fill-opacity:1;fill-rule:nonzero;stroke:none"
       d="m 554.34903,84.894716 c -0.7417,1.0241 -4.6584,1.8029 -8.2671,3.21575 -3.6087,1.41285 -6.9094,3.45973 -7.6058,3.45973 -0.6964,0 -2.4236,-2.94724 -0.7952,-4.55067 1.6284,-1.60342 6.6123,-1.86302 7.4707,-2.4215 1.7802,-1.15814 7.0628,-4.89536 8.4556,-4.89536 1.3928,0 1.9432,3.53322 0.7418,5.19205 z"
       id="path54270"
       inkscape:connector-curvature="0"
       sodipodi:nodetypes="sssssss" />
    <path
       style="opacity:0.32300882;fill:#a50000;fill-opacity:1;fill-rule:nonzero;stroke:none"
       d="m 630.64217,172.64262 c -1.7804,0.70765 -7.828,-0.73521 -10.8186,-0.7895 -1.0549,-0.0305 -5.0656,-1.03845 -7.8514,-0.3078 -1.504,0.39444 -0.6878,4.37252 -5.4691,2.10318 -1.7515,-0.8313 -1.5679,-2.70292 -3.6928,-3.07135 -2.1249,-0.36844 -1.4979,-1.28886 -2.2866,-1.97762 -0.99,-0.86462 -1.3182,0.28346 -2.6306,0.16679 -0.8918,-0.0793 -2.4517,-1.49127 -2.9152,-1.78804 -1.3105,-0.83916 -3.6707,-3.67441 -5.9655,-3.8333 -2.6108,-0.18077 -5.5775,1.45783 -8.9405,2.17211 -3.3629,0.71429 -7.1221,0.50426 -7.1221,-0.0171 0,-1.04277 4.1175,-4.39942 8.5102,-6.23663 4.3927,-1.83721 10.7388,-2.15498 11.8396,-2.15498 0.5503,0 7.9846,0.0139 11.5887,2.37499 3.604,2.3611 6.3149,8.11838 7.9081,8.90587 8.7644,4.33213 17.8458,1.73231 17.8458,4.45341 z"
       id="path54303"
       inkscape:connector-curvature="0"
       sodipodi:nodetypes="ccsssssssssssssc" />
    <path
       style="opacity:0.32300882;fill:#a50000;fill-opacity:1;fill-rule:nonzero;stroke:none"
       d="m 632.94987,174.53075 c 0,0.95588 -0.1116,2.5298 -2.654,3.69783 -0.647,0.29724 -2.3454,-1.06614 -4.5632,-0.37591 -1.4687,0.45708 0.8181,2.02496 -2.6329,2.47362 -3.451,0.44867 -22.0942,2.17648 -23.7163,2.17648 -0.811,0 -3.3856,-0.24641 -5.1913,-1.19988 -2.0286,-1.0712 -2.056,-1.82619 -4.9321,-2.23966 -2.8762,-0.41347 -9.52006,-1.36454 -12.87356,-1.90882 -3.3535,-0.54429 -8.71573,3.88332 -12.20693,3.46146 -4.3,-0.51958 -6.57041,-5.36981 -9.76831,-6.02388 -3.1979,-0.65406 -13.4028,4.84505 -14.8381,2.62712 -0.2657,-0.41051 5.1393,-5.6485 3.5774,-6.20989 -1.5618,-0.56139 -2.9492,0.18443 -3.1378,-0.2547 -2.0979,-4.88353 1.8818,-5.2092 3.6535,-6.48839 2.9652,-2.141 7.6292,-3.30208 9.7064,-4.23741 4.1543,-1.87066 6.6142,1.02854 9.0671,0.27101 2.9378,-0.90731 4.87547,-3.4782 8.87007,-5.72632 3.9947,-2.24812 8.75463,-4.2743 12.53253,-4.82423 3.5419,-0.51557 4.2686,1.17767 5.8907,1.17767 0.811,0 1.2911,-2.41371 2.9781,-2.62566 3.1087,-0.39055 5.3723,3.29418 7.5502,4.16756 2.1778,0.87337 5.0116,2.49563 7.4805,3.61722 2.4689,1.12159 4.3999,1.64473 6.9228,2.8383 2.9433,1.3925 1.534,4.89168 2.7617,6.28109 1.7108,1.93615 7.3176,0.96575 8.9416,1.18803 2.0731,0.28375 4.2708,1.53553 5.2877,2.39349 1.017,0.85797 1.2942,5.26593 1.2942,5.74387 z"
       id="path54306"
       inkscape:connector-curvature="0"
       sodipodi:nodetypes="sssssssssssssssssssssssssss" />
    <path
       style="fill:#f2f2f2;fill-opacity:1;fill-rule:nonzero;stroke:none"
       d="m 365.28631,759.79612 c 0,6.2132 -31.43009,4.73463 -29.78549,12.19033 2.42194,10.9797 -19.34188,3.88718 -14.27557,6.90089 8.94224,5.31932 0.53302,9.56171 -10.05622,11.61945 -21.17847,4.11548 -33.12199,3.53299 -56.79134,3.53299 -2.95866,0 -16.09574,-3.70209 -23.86796,-3.67932 -6.58207,0.0193 -13.21002,-0.27018 -22.48843,-0.52299 -8.24208,-0.22457 -20.37711,-2.48577 -29.36959,-2.30237 -7.79361,0.15895 -9.31275,-2.26761 -14.71195,-1.94636 -12.23041,0.72769 -21.90009,2.69503 -25.12931,2.25129 -5.68979,-0.78186 -0.76887,-5.15611 -7.93211,-6.17107 -35.792998,-5.07153 -54.682848,3.20248 -55.738148,-6.05703 9.52899,-13.89672 19.40637,-23.76244 31.100488,-26.7152 1.5317,-0.25596 4.19511,0.3343 6.67586,0.31301 2.48076,-0.0213 4.77885,-0.65416 7.00849,-0.4992 4.32538,0.3006 9.18057,-2.33758 13.64892,-3.89034 4.46835,-1.55277 6.76416,0.47988 8.47076,-0.59215 0.518,-0.32538 2.73326,-2.80451 5.06817,-4.53416 2.33491,-1.72965 4.79729,-2.69701 7.26159,-4.24614 7.9357,-4.98864 16.90466,-1.54306 17.03242,-3.99878 0.3951,-7.59427 12.26478,-19.07483 17.33612,-22.75894 4.09055,-2.97161 4.87951,-4.89829 6.81229,-5.7751 7.73111,-3.50721 6.47266,-0.19292 9.38862,-1.596 3.66167,-1.7619 0.12941,-1.35844 7.66145,-4.97638 7.53204,-3.61794 7.37772,-0.16075 11.18618,-2.88279 5.02113,-3.58878 -4.12163,-4.30348 6.04929,-8.52386 2.66332,-1.10513 6.06353,0.0312 9.27101,-0.34149 3.20748,-0.37272 6.22224,-2.25451 8.11469,-2.25307 7.18607,0.005 2.93648,4.66942 9.10583,5.02656 5.90745,0.34198 14.25219,-3.65827 21.32942,-0.38145 7.07722,3.27683 5.03968,11.70305 8.78364,16.58633 7.48794,9.76657 13.15267,15.36138 19.74463,21.53152 4.80999,4.5022 5.58068,6.15794 10.3905,11.57435 6.02341,6.78303 -5.46934,8.19472 0.99807,9.99742 6.46741,1.80269 17.95116,-2.3096 25.10451,-0.0234 5.02809,1.60696 22.60317,6.93025 22.60317,13.14345 z"
       id="path53189-3"
       inkscape:connector-curvature="0"
       sodipodi:nodetypes="sssssssssssccsssssssssssssssssssssss" />
    <path
       style="fill:#e6e6e6;fill-opacity:1;fill-rule:nonzero;stroke:none"
       d="m 279.36501,704.29144 c 0,1.60394 13.20393,4.10535 10.21816,11.40343 -1.38577,3.38722 -8.49285,0.55797 -10.55953,1.86162 -1.03334,0.65182 -3.06709,0.1171 -4.8638,1.03181 -1.79672,0.91471 -3.3564,3.27884 -4.45175,3.66746 -1.09536,0.38863 -2.23147,-2.96603 -4.31746,-4.14501 -2.08599,-1.17897 -5.12186,-0.18225 -5.97613,-0.18225 -1.70855,0 -6.46138,1.07968 -12.62956,2.59896 -6.16819,1.51927 -15.01443,-6.37084 -19.85903,-4.61247 -7.12221,2.58506 -11.24339,12.1551 -16.55731,12.87241 -5.31391,0.71731 -13.33102,1.60419 -13.33102,2.5e-4 0,-5.48073 11.61285,-15.96106 26.35279,-24.37674 3.68499,-2.10392 13.16862,-4.03145 16.69364,-7.57018 3.52503,-3.53874 5.88967,-7.93107 7.45854,-8.39861 3.27739,-0.9767 5.3724,0.96941 7.60834,1.76563 2.23593,0.79622 4.41949,-0.0584 5.27376,-0.0584 6.83418,0 18.94036,7.72638 18.94036,14.14214 z"
       id="path53700-7"
       inkscape:connector-curvature="0"
       sodipodi:nodetypes="cssssssssssssssssc" />
    <path
       style="fill:#e6e6e6;fill-opacity:1;fill-rule:nonzero;stroke:none"
       d="m 324.56931,760.86001 c 0.18191,0.54581 -1.68726,0.97821 -2.61803,1.22971 -5.25338,1.4195 -13.31084,0.47393 -16.26118,1.44596 -2.95034,0.97203 -5.55174,6.79641 -6.59141,7.32657 -0.88094,0.44923 -8.49906,0.61032 -9.13627,1.61715 -1.154,1.82339 -0.27173,3.91323 -0.55813,5.49375 -0.40285,2.22314 -0.10172,5.44946 -1.79502,5.44724 -1.75418,-0.002 -6.1634,-1.80729 -11.25727,-1.67349 -4.42541,0.11624 -9.10461,-0.31848 -13.34482,-0.39173 -4.04536,-0.0699 -6.86942,3.35987 -7.39799,1.62991 -0.70108,-2.29461 -5.73681,-3.68979 -7.81147,-3.68979 -4.14932,0 -9.20415,-0.74356 -13.85997,-1.38884 -9.13543,-1.26614 -11.07265,-3.87414 -13.45095,-7.49178 -1.01454,-1.54323 -5.80357,-4.74553 -8.31865,-6.33446 -2.51509,-1.58892 -4.01892,-3.0797 -4.01892,-4.23035 0,-2.3013 0.83831,-4.80504 9.05458,-4.20806 4.10813,0.29849 9.55568,2.63484 15.5186,3.63389 5.96293,0.99904 12.44122,0.66077 16.59054,0.66077 4.14932,0 11.46,0.77129 19.16775,0.48122 7.70775,-0.29006 15.56002,-0.63133 23.823,-0.83615 8.26297,-0.20482 16.05276,-0.65199 21.86776,-0.39625 5.815,0.25575 9.90776,0.20425 10.27158,1.29587 z"
       id="path53703-7"
       inkscape:connector-curvature="0"
       sodipodi:nodetypes="sasssssssssssssssssssss" />
    <path
       style="fill:#e6e6e6;fill-opacity:1;fill-rule:nonzero;stroke:none"
       d="m 193.24947,754.294 c 3.03673,-0.73919 -16.93864,9.59645 -20.8344,11.8693 -2.71056,1.58138 -14.81812,6.49764 -16.28871,4.29314 -0.44194,-0.66249 1.86137,-4.0025 3.66022,-7.14513 1.95591,-3.41701 2.96386,-7.18541 3.5283,-7.23313 2.81795,-0.23824 10.30904,-0.26895 11.87811,-0.26895 3.13814,0 15.11345,-0.79885 18.05648,-1.51523 z"
       id="path53706-9"
       inkscape:connector-curvature="0"
       sodipodi:nodetypes="sssssss" />
    <path
       style="opacity:0.5575221;fill:#b3b3b3;fill-opacity:1;fill-rule:nonzero;stroke:none"
       d="m 247.61303,787.03612 c -0.60948,0.26777 -12.10583,-0.33938 -17.69416,-0.64312 -2.79417,-0.15187 -5.08591,-0.93843 -5.55526,-0.35739 -0.46936,0.58104 0.88365,2.52969 0.32823,3.80762 -0.2154,0.4956 -5.72524,0.59661 -9.49342,-0.61741 -3.76818,-1.21402 -5.7947,-3.74306 -8.63991,-3.96187 -2.8452,-0.21881 -6.13701,2.05702 -10.90555,1.99101 -4.86179,-0.0673 -8.10601,-4.28874 -8.51065,-4.24676 -2.97156,0.30828 -3.26035,2.29803 -4.77206,3.16962 -1.87589,1.08157 -3.68436,-2.87647 -6.44951,-5.66816 -1.35124,-1.36421 -0.13966,5.20614 -4.28609,5.33814 -3.80566,0.12115 -3.27642,-3.55988 -4.62047,-3.50312 -1.53571,0.0649 -1.02569,1.21377 -4.37656,0.70959 -1.67543,-0.25208 -2.76929,-0.22296 -3.56218,-0.68092 -0.79289,-0.45797 -1.2848,-1.40302 -2.26143,-1.58316 -1.95324,-0.36029 -4.58262,-0.59666 -7.60758,-1.45752 -3.02495,-0.86087 -6.44548,-2.34622 -6.44548,-2.67907 0,-0.33285 1.04757,-1.64797 2.0033,-1.92681 0.95573,-0.27885 3.46111,0.73111 5.11404,0.50273 1.65292,-0.22838 1.44323,-2.70527 3.53481,-2.88673 2.09157,-0.18147 3.60509,-0.0612 5.22059,1.54186 0.6939,0.68857 2.43589,3.27638 3.2684,3.40692 1.71333,0.26865 4.2911,-2.9538 5.38774,-3.76054 1.76849,-1.30099 1.12599,-2.82913 2.98232,-2.89109 1.85633,-0.062 4.60202,2.90569 5.37174,3.90475 0.37788,0.49047 1.54905,1.14265 2.6766,0.66206 1.12756,-0.48059 2.21149,-2.09395 2.4149,-2.09395 0.40682,0 1.76479,0.13649 3.82976,0.38054 2.06498,0.24405 1.30142,-5.46524 4.53627,-5.03498 3.23484,0.43026 8.19524,0.93917 12.11166,1.4978 3.91642,0.55863 3.74989,3.11859 5.84782,3.56391 1.3168,0.27952 3.14324,-6.29702 6.95796,-5.65518 3.81472,0.64185 9.63271,8.0941 12.66415,10.20602 2.53505,1.7661 17.67098,1.91395 19.43084,2.40764 1.75986,0.49369 2.25679,6.22472 1.49918,6.55757 z"
       id="path53709-5"
       inkscape:connector-curvature="0"
       sodipodi:nodetypes="sssssssssssssssssssssssssssssssssss" />
    <path
       style="fill:#f2f2f2;fill-opacity:1;fill-rule:nonzero;stroke:none"
       d="m 639.22607,768.39205 c 0,4.78282 28.28933,18.28165 13.88133,28.85402 -6.90655,5.06791 -46.89263,-12.1551 -56.32485,-6.03901 -7.05616,4.57558 -8.6316,12.83981 -18.60768,14.75508 -9.97587,1.91528 -33.25126,7.27936 -38.39266,7.27936 -5.1416,0 -14.5121,-7.27228 -23.83844,-8.37566 -9.32654,-1.10339 0.98659,-9.50983 -8.87804,-11.77817 -9.86442,-2.26833 -22.53689,11.10855 -30.12845,11.5786 -22.67703,1.40407 -27.55713,-11.94698 -28.19118,-16.68761 -2.44955,-18.3128 9.27886,-16.96126 9.54202,-18.39456 1.34634,-7.33392 4.98226,-12.38745 9.33439,-16.73289 8.70425,-8.69086 19.97507,-15.14321 35.43599,-16.06468 8.99837,-0.53631 22.67807,-7.87251 31.64651,-17.16632 6.07906,-6.29945 20.71976,-17.22786 25.86136,-17.22786 5.1416,0 15.01923,3.45908 20.44855,8.94665 5.42953,5.48757 24.10187,13.0036 32.23419,21.11749 8.13253,8.11389 -0.79263,16.86606 10.42081,17.96864 8.92613,0.87767 36.18681,1.50734 34.10631,9.59743 -1.45986,5.67673 -18.55016,5.97807 -18.55016,8.36949 z"
       id="path53750-9"
       inkscape:connector-curvature="0"
       sodipodi:nodetypes="sssssssssssssssssss" />
    <path
       style="fill:#cfcfcf;fill-opacity:1;fill-rule:nonzero;stroke:none"
       d="m 531.12729,765.07914 c 3.04604,2.41829 -1.62456,8.08813 -4.89887,14.39048 -0.79546,1.5309 -8.45823,9.60196 -11.86112,10.99668 -3.4029,1.39474 -0.70878,-5.72396 -5.89723,-7.01632 -1.8871,-0.47003 -25.70119,10.69038 -24.70264,8.64928 0.99835,-2.04109 27.27519,-18.14088 28.98913,-19.36561 5.77834,-4.12918 13.47186,-11.54379 18.37073,-7.65451 z"
       id="path54261-0"
       inkscape:connector-curvature="0"
       sodipodi:nodetypes="sssssss" />
    <path
       style="fill:#e6e6e6;fill-opacity:1;fill-rule:nonzero;stroke:none"
       d="m 582.56559,750.38249 c 0.86688,2.47353 1.98123,18.31278 -1.69742,19.87732 -3.67885,1.56455 -13.01737,-5.48684 -16.06113,-5.48684 -3.04376,0 -8.86111,6.59213 -13.30529,6.40538 -4.44418,-0.18679 -6.29021,-10.21414 -6.29021,-12.83518 0,-2.62102 0.7744,-9.28045 6.5965,-14.67225 5.82189,-5.39182 15.4665,-6.4542 18.51026,-6.4542 6.08753,0 10.41014,7.9237 12.24729,13.16577 z"
       id="path54263-6"
       inkscape:connector-curvature="0"
       sodipodi:nodetypes="ssssssss" />
    <path
       style="fill:#e6e6e6;fill-opacity:1;fill-rule:nonzero;stroke:none"
       d="m 564.19465,793.86009 c -2.44954,3.5511 -15.40024,13.77814 -19.28941,13.77814 -3.88938,0 3.18886,-10.85501 5.20517,-13.77814 2.44954,-3.55107 6.82685,-8.26687 10.71623,-8.26687 3.88917,0 5.38432,5.34375 3.36801,8.26687 z"
       id="path54265-8"
       inkscape:connector-curvature="0"
       sodipodi:nodetypes="sssss" />
    <path
       style="fill:#cfcfcf;fill-opacity:1;fill-rule:nonzero;stroke:none"
       d="m 495.61039,780.38817 c -1.53086,2.11373 -9.61488,3.72117 -17.0632,6.63727 -7.44831,2.91611 -14.26092,7.14085 -15.69828,7.14085 -1.43736,0 -5.00228,-6.08307 -1.64128,-9.39253 3.361,-3.30944 13.64771,-3.84525 15.41944,-4.99795 3.67431,-2.39039 14.57753,-10.10397 17.45225,-10.10397 2.87473,0 4.01075,7.29253 1.53107,10.71633 z"
       id="path54270-7"
       inkscape:connector-curvature="0"
       sodipodi:nodetypes="sssssss" />
    <path
       style="fill:#f2f2f2;fill-opacity:1;fill-rule:nonzero;stroke:none"
       d="m 458.92303,908.95057 c 0,2.15305 -0.2513,5.69819 -5.97789,8.32909 -1.45732,0.66951 -5.28283,-2.4014 -10.27826,-0.84671 -3.30814,1.02954 1.84271,4.56107 -5.93041,5.57164 -7.77312,1.0106 -49.76554,4.90236 -53.4192,4.90236 -1.82671,0 -7.62581,-0.55502 -11.69301,-2.70264 -4.56927,-2.4128 -4.63099,-4.11336 -11.10919,-5.04467 -6.47842,-0.93131 -21.44322,-3.07352 -28.99673,-4.29947 -7.55351,-1.22597 -19.63153,8.74689 -27.4952,7.79668 -9.68543,-1.17032 -14.79936,-12.0951 -22.00239,-13.56834 -7.20303,-1.47322 -30.1888,10.91311 -33.42171,5.91739 -0.59847,-0.92464 11.57589,-12.72282 8.05783,-13.98731 -3.51784,-1.26449 -6.64285,0.41541 -7.06766,-0.57369 -4.72536,-10.99979 4.23861,-11.73334 8.22923,-14.61462 6.6789,-4.82244 17.18421,-7.43769 21.86295,-9.54445 9.35725,-4.21352 14.89799,2.31671 20.42296,0.61043 6.61718,-2.04365 10.98163,-7.83438 19.97917,-12.8981 8.99776,-5.06373 19.71915,-9.62755 28.22859,-10.86622 7.97786,-1.16129 9.6147,2.65261 13.26836,2.65261 1.82672,0 2.9081,-5.4367 6.70795,-5.9141 7.00211,-0.87969 12.1007,7.41989 17.00626,9.38712 4.90533,1.9672 11.28825,5.62122 16.84926,8.14751 5.56102,2.5263 9.91045,3.70463 15.59309,6.39306 6.62957,3.1365 3.45522,11.01815 6.22053,14.14769 3.85345,4.36103 16.48234,2.17528 20.14028,2.67595 4.66951,0.63912 9.61966,3.45866 11.91019,5.39115 2.2907,1.93252 2.915,11.86112 2.915,12.93764 z"
       id="path54306-9"
       inkscape:connector-curvature="0"
       sodipodi:nodetypes="sssssssssssssssssssssssssss" />
    <path
       style="fill:#e6e6e6;fill-opacity:1;fill-rule:nonzero;stroke:none"
       d="m 453.72516,904.6977 c -4.01022,1.59393 -17.63199,-1.65601 -24.36809,-1.77829 -2.37608,-0.0687 -11.40988,-2.33903 -17.68469,-0.6933 -3.38765,0.88845 -1.54922,9.84878 -12.31874,4.73726 -3.94512,-1.87244 -3.53158,-6.08813 -8.31776,-6.91799 -4.78617,-0.82988 -3.3739,-2.90306 -5.15039,-4.45444 -2.2299,-1.94749 -2.96915,0.63847 -5.92523,0.37568 -2.00871,-0.17861 -5.52227,-3.35897 -6.56627,-4.02742 -2.9518,-1.89015 -8.26798,-8.27634 -13.43684,-8.63422 -5.88064,-0.40718 -12.56291,3.28365 -20.13781,4.89251 -7.57468,1.60889 -16.042,1.13581 -16.042,-0.0385 0,-2.34876 9.27436,-9.90936 19.16859,-14.04754 9.89423,-4.13818 24.18834,-4.85393 26.66781,-4.85393 1.23951,0 17.98472,0.0313 26.10268,5.34949 8.11774,5.3182 14.22384,18.28604 17.81241,20.0598 19.74115,9.7578 40.19633,3.9019 40.19633,10.03098 z"
       id="path54303-6"
       inkscape:connector-curvature="0"
       sodipodi:nodetypes="ccsssssssssssssc" />
    <path
       style="fill:url(#radialGradient54943);fill-opacity:1;fill-rule:nonzero;stroke:none"
       d="m 458.92323,908.95024 c 0,2.15305 -0.2514,5.69819 -5.97796,8.32909 -1.45732,0.66951 -5.28283,-2.4014 -10.27826,-0.84671 -3.30814,1.02954 1.84271,4.56107 -5.93041,5.57164 -7.77312,1.0106 -49.76554,4.90236 -53.4192,4.90236 -1.82671,0 -7.62581,-0.55502 -11.69301,-2.70264 -4.56927,-2.4128 -4.63099,-4.11336 -11.10919,-5.04467 -6.47842,-0.93131 -21.44322,-3.07352 -28.99673,-4.29947 -7.55351,-1.22597 -19.63153,8.74689 -27.4952,7.79668 -9.68543,-1.17032 -14.79936,-12.0951 -22.00239,-13.56834 -7.20303,-1.47322 -30.18881,10.91311 -33.42172,5.91739 -0.59847,-0.92464 11.5759,-12.72282 8.05783,-13.98731 -3.51784,-1.26449 -6.64285,0.41541 -7.06766,-0.57369 -4.72536,-10.99979 4.23861,-11.73334 8.22924,-14.61462 6.6789,-4.82244 17.18421,-7.43769 21.86295,-9.54445 9.35725,-4.21352 14.89799,2.31671 20.42296,0.61043 6.61718,-2.04365 10.98163,-7.83438 19.97917,-12.8981 8.99776,-5.06373 19.71915,-9.62755 28.22859,-10.86622 7.97786,-1.16129 9.6147,2.65261 13.26836,2.65261 1.82672,0 2.9081,-5.4367 6.70795,-5.9141 7.00211,-0.87969 12.1007,7.41989 17.00626,9.38712 4.90533,1.9672 11.28825,5.62122 16.84926,8.14751 5.56102,2.5263 9.91045,3.70463 15.59309,6.39306 6.62957,3.1365 3.45522,11.01815 6.22053,14.14769 3.85345,4.36103 16.48234,2.17528 20.14028,2.67595 4.66951,0.63912 9.61966,3.45866 11.91016,5.39115 2.2907,1.93252 2.9151,11.86112 2.9151,12.93764 z"
       id="path54306-9-0"
       inkscape:connector-curvature="0"
       sodipodi:nodetypes="sssssssssssssssssssssssssss" />
    <path
       style="fill:url(#radialGradient54969);fill-opacity:1;fill-rule:nonzero;stroke:none"
       d="m 365.28612,759.79649 c 0,6.2132 -31.43009,4.73463 -29.78549,12.19033 2.42194,10.9797 -19.34188,3.88718 -14.27557,6.90089 8.94224,5.31932 0.53302,9.56171 -10.05622,11.61945 -21.17847,4.11548 -33.12199,3.53299 -56.79134,3.53299 -2.95866,0 -16.09574,-3.70209 -23.86796,-3.67932 -6.58207,0.0193 -13.21002,-0.27018 -22.48843,-0.52299 -8.24208,-0.22457 -20.37711,-2.48577 -29.36959,-2.30237 -7.79361,0.15895 -9.31275,-2.26761 -14.71195,-1.94636 -12.23041,0.72769 -21.90009,2.69503 -25.12931,2.25129 -5.68979,-0.78186 -0.76887,-5.15611 -7.93211,-6.17107 -35.793,-5.07153 -54.68285,3.20248 -55.73815,-6.05703 9.52899,-13.89672 19.40637,-23.76244 31.10049,-26.7152 1.5317,-0.25596 4.19511,0.3343 6.67586,0.31301 2.48076,-0.0213 4.77885,-0.65416 7.00849,-0.4992 4.32538,0.3006 9.18057,-2.33758 13.64892,-3.89034 4.46835,-1.55277 6.76416,0.47988 8.47076,-0.59215 0.518,-0.32538 2.73326,-2.80451 5.06817,-4.53416 2.33491,-1.72965 4.79729,-2.69701 7.26159,-4.24614 7.9357,-4.98864 16.90466,-1.54306 17.03242,-3.99878 0.3951,-7.59427 12.26478,-19.07483 17.33612,-22.75894 4.09055,-2.97161 4.87951,-4.89829 6.81229,-5.7751 7.73111,-3.50721 6.47266,-0.19292 9.38862,-1.596 3.66167,-1.7619 0.12941,-1.35844 7.66145,-4.97638 7.53204,-3.61794 7.37772,-0.16075 11.18618,-2.88279 5.02113,-3.58878 -4.12163,-4.30348 6.04929,-8.52386 2.66332,-1.10513 6.06353,0.0312 9.27101,-0.34149 3.20748,-0.37272 6.22224,-2.25451 8.11469,-2.25307 7.18607,0.005 2.93648,4.66942 9.10583,5.02656 5.90745,0.34198 14.25219,-3.65827 21.32942,-0.38145 7.07722,3.27683 5.03968,11.70305 8.78364,16.58633 7.48794,9.76657 13.15267,15.36138 19.74463,21.53152 4.80999,4.5022 5.58068,6.15794 10.3905,11.57435 6.02341,6.78303 -5.46934,8.19472 0.99807,9.99742 6.46741,1.80269 17.95116,-2.3096 25.10451,-0.0234 5.02809,1.60696 22.60317,6.93025 22.60317,13.14345 z"
       id="path53189-3-9"
       inkscape:connector-curvature="0"
       sodipodi:nodetypes="sssssssssssccsssssssssssssssssssssss" />
    <path
       style="fill:url(#radialGradient54995);fill-opacity:1;fill-rule:nonzero;stroke:none"
       d="m 639.22622,768.39205 c 0,4.78282 28.28933,18.28165 13.88133,28.85402 -6.90655,5.06791 -46.89263,-12.1551 -56.32485,-6.03901 -7.05616,4.57558 -8.6316,12.83981 -18.60768,14.75508 -9.97587,1.91528 -33.25126,7.27936 -38.39266,7.27936 -5.1416,0 -14.5121,-7.27228 -23.83844,-8.37566 -9.32654,-1.10339 0.98659,-9.50983 -8.87804,-11.77817 -9.86442,-2.26833 -22.53689,11.10855 -30.12845,11.5786 -22.67703,1.40407 -27.55713,-11.94698 -28.19118,-16.68761 -2.44955,-18.3128 9.27886,-16.96126 9.54202,-18.39456 1.34634,-7.33392 4.98226,-12.38745 9.33439,-16.73289 8.70425,-8.69086 19.97507,-15.14321 35.43599,-16.06468 8.99837,-0.53631 22.67807,-7.87251 31.64651,-17.16632 6.07906,-6.29945 20.71976,-17.22786 25.86136,-17.22786 5.1416,0 15.01923,3.45908 20.44855,8.94665 5.42953,5.48757 24.10187,13.0036 32.23419,21.11749 8.13253,8.11389 -0.79263,16.86606 10.42081,17.96864 8.92613,0.87767 36.18681,1.50734 34.10631,9.59743 -1.45986,5.67673 -18.55016,5.97807 -18.55016,8.36949 z"
       id="path53750-9-1"
       inkscape:connector-curvature="0"
       sodipodi:nodetypes="sssssssssssssssssss" />
    <text
       xml:space="preserve"
       style="font-size:40px;font-style:normal;font-weight:normal;line-height:125%;letter-spacing:0px;word-spacing:0px;fill:#000000;fill-opacity:1;stroke:none;font-family:Sans"
       x="303.04578"
       y="620.01691"
       id="text54997"
       sodipodi:linespacing="125%"><tspan
         sodipodi:role="line"
         id="tspan54999"
         x="303.04578"
         y="620.01691">Aprem</tspan></text>
    <text
       xml:space="preserve"
       style="font-size:40px;font-style:normal;font-weight:normal;line-height:125%;letter-spacing:0px;word-spacing:0px;fill:#000000;fill-opacity:1;stroke:none;font-family:Sans"
       x="361.63461"
       y="272.52441"
       id="text55275"
       sodipodi:linespacing="125%"><tspan
         sodipodi:role="line"
         id="tspan55277"
         x="361.63461"
         y="272.52441">Matin</tspan></text>
    <path
       style="fill:url(#radialGradient55423);fill-opacity:1;fill-rule:nonzero;stroke:none"
       d="m 392.73099,1183.3012 c 0,6.2132 -31.43009,4.7346 -29.78549,12.1903 2.42194,10.9797 -19.34188,3.8872 -14.27557,6.9009 8.94224,5.3193 0.53302,9.5617 -10.05622,11.6194 -21.17847,4.1155 -33.12199,3.533 -56.79134,3.533 -2.95866,0 -16.09574,-3.7021 -23.86796,-3.6793 -6.58207,0.019 -13.21002,-0.2702 -22.48843,-0.523 -8.24208,-0.2245 -20.37711,-2.4857 -29.36959,-2.3023 -7.79361,0.1589 -9.31275,-2.2677 -14.71195,-1.9464 -12.23041,0.7277 -21.90009,2.695 -25.12931,2.2513 -5.68979,-0.7819 -0.76887,-5.1561 -7.93211,-6.1711 -35.793,-5.0715 -54.68285,3.2025 -55.73815,-6.057 9.52899,-13.8967 19.40637,-23.7625 31.10049,-26.7152 1.5317,-0.256 4.19511,0.3343 6.67586,0.313 2.48076,-0.021 4.77885,-0.6542 7.00849,-0.4992 4.32538,0.3006 9.18057,-2.3376 13.64892,-3.8903 4.46835,-1.5528 6.76416,0.4798 8.47076,-0.5922 0.518,-0.3254 2.73326,-2.8045 5.06817,-4.5342 2.33491,-1.7296 4.79729,-2.697 7.26159,-4.2461 7.9357,-4.9886 16.90466,-1.5431 17.03242,-3.9988 0.3951,-7.5942 12.26478,-19.0748 17.33612,-22.7589 4.09055,-2.9716 4.87951,-4.8983 6.81229,-5.7751 7.73111,-3.5072 6.47266,-0.1929 9.38862,-1.596 3.66167,-1.7619 0.12941,-1.3585 7.66145,-4.9764 7.53204,-3.6179 7.37772,-0.1607 11.18618,-2.8828 5.02113,-3.5888 -4.12163,-4.3035 6.04929,-8.5238 2.66332,-1.1052 6.06353,0.031 9.27101,-0.3415 3.20748,-0.3728 6.22224,-2.2545 8.11469,-2.2531 7.18607,0.01 2.93648,4.6694 9.10583,5.0266 5.90745,0.3419 14.25219,-3.6583 21.32942,-0.3815 7.07722,3.2768 5.03968,11.7031 8.78364,16.5863 7.48794,9.7666 13.15267,15.3614 19.74463,21.5316 4.80999,4.5022 5.58068,6.1579 10.3905,11.5743 6.02341,6.783 -5.46934,8.1947 0.99807,9.9974 6.46741,1.8027 17.95116,-2.3096 25.10451,-0.023 5.02809,1.607 22.60317,6.9303 22.60317,13.1435 z"
       id="path53189-3-9-5"
       inkscape:connector-curvature="0"
       sodipodi:nodetypes="sssssssssssccsssssssssssssssssssssss" />
    <path
       style="fill:#d5e5ff;fill-opacity:1;fill-rule:nonzero;stroke:none"
       d="m 306.80988,1127.796 c 0,1.604 13.20393,4.1054 10.21816,11.4035 -1.38577,3.3872 -8.49285,0.5579 -10.55953,1.8616 -1.03334,0.6518 -3.06709,0.1171 -4.8638,1.0318 -1.79672,0.9147 -3.3564,3.2788 -4.45175,3.6674 -1.09536,0.3887 -2.23147,-2.966 -4.31746,-4.145 -2.08599,-1.1789 -5.12186,-0.1822 -5.97613,-0.1822 -1.70855,0 -6.46138,1.0797 -12.62956,2.5989 -6.16819,1.5193 -15.01443,-6.3708 -19.85903,-4.6124 -7.12221,2.585 -11.24339,12.1551 -16.55731,12.8724 -5.31391,0.7173 -13.33102,1.6042 -13.33102,2e-4 0,-5.4807 11.61285,-15.961 26.35279,-24.3767 3.68499,-2.1039 13.16862,-4.0315 16.69364,-7.5702 3.52503,-3.5387 5.88967,-7.9311 7.45854,-8.3986 3.27739,-0.9767 5.3724,0.9694 7.60834,1.7656 2.23593,0.7963 4.41949,-0.058 5.27376,-0.058 6.83418,0 18.94036,7.7264 18.94036,14.1422 z"
       id="path53700-7-8"
       inkscape:connector-curvature="0"
       sodipodi:nodetypes="cssssssssssssssssc" />
    <path
       style="fill:#d5e5ff;fill-opacity:1;fill-rule:nonzero;stroke:none"
       d="m 352.01418,1184.3646 c 0.18191,0.5458 -1.68726,0.9782 -2.61803,1.2297 -5.25338,1.4195 -13.31084,0.4739 -16.26118,1.446 -2.95034,0.972 -5.55174,6.7964 -6.59141,7.3265 -0.88094,0.4493 -8.49906,0.6104 -9.13627,1.6172 -1.154,1.8234 -0.27173,3.9132 -0.55813,5.4937 -0.40285,2.2232 -0.10172,5.4495 -1.79502,5.4473 -1.75418,-0 -6.1634,-1.8073 -11.25727,-1.6735 -4.42541,0.1162 -9.10461,-0.3185 -13.34482,-0.3917 -4.04536,-0.07 -6.86942,3.3598 -7.39799,1.6299 -0.70108,-2.2946 -5.73681,-3.6898 -7.81147,-3.6898 -4.14932,0 -9.20415,-0.7436 -13.85997,-1.3889 -9.13543,-1.2661 -11.07265,-3.8741 -13.45095,-7.4917 -1.01454,-1.5433 -5.80357,-4.7456 -8.31865,-6.3345 -2.51509,-1.5889 -4.01892,-3.0797 -4.01892,-4.2304 0,-2.3013 0.83831,-4.805 9.05458,-4.208 4.10813,0.2985 9.55568,2.6348 15.5186,3.6339 5.96293,0.999 12.44122,0.6607 16.59054,0.6607 4.14932,0 11.46,0.7713 19.16775,0.4813 7.70775,-0.2901 15.56002,-0.6314 23.823,-0.8362 8.26297,-0.2048 16.05276,-0.652 21.86776,-0.3962 5.815,0.2557 9.90776,0.2042 10.27158,1.2958 z"
       id="path53703-7-5"
       inkscape:connector-curvature="0"
       sodipodi:nodetypes="sasssssssssssssssssssss" />
    <path
       style="fill:#d5e5ff;fill-opacity:1;fill-rule:nonzero;stroke:none"
       d="m 220.69434,1177.7986 c 3.03673,-0.7392 -16.93864,9.5964 -20.8344,11.8693 -2.71056,1.5814 -14.81812,6.4976 -16.28871,4.2931 -0.44194,-0.6625 1.86137,-4.0025 3.66022,-7.1451 1.95591,-3.417 2.96386,-7.1854 3.5283,-7.2331 2.81795,-0.2383 10.30904,-0.269 11.87811,-0.269 3.13814,0 15.11345,-0.7988 18.05648,-1.5152 z"
       id="path53706-9-3"
       inkscape:connector-curvature="0"
       sodipodi:nodetypes="sssssss" />
    <path
       style="opacity:0.55752210000000002;fill:#aaccff;fill-opacity:1;fill-rule:nonzero;stroke:none"
       d="m 275.0579,1210.5407 c -0.60948,0.2678 -12.10583,-0.3394 -17.69416,-0.6431 -2.79417,-0.1519 -5.08591,-0.9384 -5.55526,-0.3574 -0.46936,0.581 0.88365,2.5297 0.32823,3.8076 -0.2154,0.4956 -5.72524,0.5966 -9.49342,-0.6174 -3.76818,-1.214 -5.7947,-3.7431 -8.63991,-3.9619 -2.8452,-0.2188 -6.13701,2.0571 -10.90555,1.991 -4.86179,-0.067 -8.10601,-4.2887 -8.51065,-4.2467 -2.97156,0.3083 -3.26035,2.298 -4.77206,3.1696 -1.87589,1.0816 -3.68436,-2.8765 -6.44951,-5.6682 -1.35124,-1.3642 -0.13966,5.2062 -4.28609,5.3382 -3.80566,0.1211 -3.27642,-3.5599 -4.62047,-3.5031 -1.53571,0.065 -1.02569,1.2137 -4.37656,0.7096 -1.67543,-0.2521 -2.76929,-0.223 -3.56218,-0.681 -0.79289,-0.4579 -1.2848,-1.403 -2.26143,-1.5831 -1.95324,-0.3603 -4.58262,-0.5967 -7.60758,-1.4575 -3.02495,-0.8609 -6.44548,-2.3463 -6.44548,-2.6791 0,-0.3329 1.04757,-1.648 2.0033,-1.9268 0.95573,-0.2789 3.46111,0.7311 5.11404,0.5027 1.65292,-0.2284 1.44323,-2.7053 3.53481,-2.8867 2.09157,-0.1815 3.60509,-0.061 5.22059,1.5418 0.6939,0.6886 2.43589,3.2764 3.2684,3.407 1.71333,0.2686 4.2911,-2.9538 5.38774,-3.7606 1.76849,-1.301 1.12599,-2.8291 2.98232,-2.8911 1.85633,-0.062 4.60202,2.9057 5.37174,3.9048 0.37788,0.4904 1.54905,1.1426 2.6766,0.662 1.12756,-0.4806 2.21149,-2.0939 2.4149,-2.0939 0.40682,0 1.76479,0.1365 3.82976,0.3805 2.06498,0.2441 1.30142,-5.4652 4.53627,-5.035 3.23484,0.4303 8.19524,0.9392 12.11166,1.4978 3.91642,0.5587 3.74989,3.1186 5.84782,3.564 1.3168,0.2795 3.14324,-6.2971 6.95796,-5.6552 3.81472,0.6418 9.63271,8.0941 12.66415,10.206 2.53505,1.7661 17.67098,1.9139 19.43084,2.4076 1.75986,0.4937 2.25679,6.2248 1.49918,6.5576 z"
       id="path53709-5-1"
       inkscape:connector-curvature="0"
       sodipodi:nodetypes="sssssssssssssssssssssssssssssssssss" />
    <path
       style="fill:url(#radialGradient54995-4);fill-opacity:1;fill-rule:nonzero;stroke:none"
       d="m 666.67109,1191.8966 c 0,4.7829 28.28933,18.2817 13.88133,28.8541 -6.90655,5.0679 -46.89263,-12.1551 -56.32485,-6.0391 -7.05616,4.5756 -8.6316,12.8399 -18.60768,14.7551 -9.97587,1.9153 -33.25126,7.2794 -38.39266,7.2794 -5.1416,0 -14.5121,-7.2723 -23.83844,-8.3757 -9.32654,-1.1034 0.98659,-9.5098 -8.87804,-11.7781 -9.86442,-2.2684 -22.53689,11.1085 -30.12845,11.5786 -22.67703,1.404 -27.55713,-11.947 -28.19118,-16.6877 -2.44955,-18.3128 9.27886,-16.9612 9.54202,-18.3945 1.34634,-7.3339 4.98226,-12.3875 9.33439,-16.7329 8.70425,-8.6909 19.97507,-15.1432 35.43599,-16.0647 8.99837,-0.5363 22.67807,-7.8725 31.64651,-17.1663 6.07906,-6.2995 20.71976,-17.2279 25.86136,-17.2279 5.1416,0 15.01923,3.4591 20.44855,8.9467 5.42953,5.4876 24.10187,13.0036 32.23419,21.1175 8.13253,8.1139 -0.79263,16.866 10.42081,17.9686 8.92613,0.8777 36.18681,1.5074 34.10631,9.5974 -1.45986,5.6768 -18.55016,5.9781 -18.55016,8.3695 z"
       id="path53750-9-1-0"
       inkscape:connector-curvature="0"
       sodipodi:nodetypes="sssssssssssssssssss" />
    <path
       style="fill:#caddf9;fill-opacity:1;fill-rule:nonzero;stroke:none"
       d="m 558.57216,1188.5837 c 3.04604,2.4183 -1.62456,8.0882 -4.89887,14.3905 -0.79546,1.5309 -8.45823,9.602 -11.86112,10.9967 -3.4029,1.3947 -0.70878,-5.724 -5.89723,-7.0163 -1.8871,-0.4701 -25.70119,10.6903 -24.70264,8.6492 0.99835,-2.041 27.27519,-18.1408 28.98913,-19.3656 5.77834,-4.1291 13.47186,-11.5438 18.37073,-7.6545 z"
       id="path54261-0-08"
       inkscape:connector-curvature="0"
       sodipodi:nodetypes="sssssss" />
    <path
       style="fill:#d5e5ff;fill-opacity:1;fill-rule:nonzero;stroke:none"
       d="m 610.01046,1173.8871 c 0.86688,2.4735 1.98123,18.3128 -1.69742,19.8773 -3.67885,1.5645 -13.01737,-5.4868 -16.06113,-5.4868 -3.04376,0 -8.86111,6.5921 -13.30529,6.4053 -4.44418,-0.1868 -6.29021,-10.2141 -6.29021,-12.8351 0,-2.6211 0.7744,-9.2805 6.5965,-14.6723 5.82189,-5.3918 15.4665,-6.4542 18.51026,-6.4542 6.08753,0 10.41014,7.9237 12.24729,13.1658 z"
       id="path54263-6-4"
       inkscape:connector-curvature="0"
       sodipodi:nodetypes="ssssssss" />
    <path
       style="fill:#d5e5ff;fill-opacity:1;fill-rule:nonzero;stroke:none"
       d="m 591.63952,1217.3647 c -2.44954,3.5511 -15.40024,13.7781 -19.28941,13.7781 -3.88938,0 3.18886,-10.855 5.20517,-13.7781 2.44954,-3.5511 6.82685,-8.2669 10.71623,-8.2669 3.88917,0 5.38432,5.3438 3.36801,8.2669 z"
       id="path54265-8-8"
       inkscape:connector-curvature="0"
       sodipodi:nodetypes="sssss" />
    <path
       style="fill:#caddf9;fill-opacity:1;fill-rule:nonzero;stroke:none"
       d="m 523.05526,1203.8928 c -1.53086,2.1137 -9.61488,3.7211 -17.0632,6.6372 -7.44831,2.9161 -14.26092,7.1409 -15.69828,7.1409 -1.43736,0 -5.00228,-6.0831 -1.64128,-9.3926 3.361,-3.3094 13.64771,-3.8452 15.41944,-4.9979 3.67431,-2.3904 14.57753,-10.104 17.45225,-10.104 2.87473,0 4.01075,7.2926 1.53107,10.7164 z"
       id="path54270-7-7"
       inkscape:connector-curvature="0"
       sodipodi:nodetypes="sssssss" />
    <path
       style="fill:url(#radialGradient55502);fill-opacity:1;fill-rule:nonzero;stroke:none"
       d="m 486.3681,1332.4548 c 0,2.153 -0.2514,5.6982 -5.97796,8.3291 -1.45732,0.6695 -5.28283,-2.4014 -10.27826,-0.8467 -3.30814,1.0295 1.84271,4.561 -5.93041,5.5716 -7.77312,1.0106 -49.76554,4.9024 -53.4192,4.9024 -1.82671,0 -7.62581,-0.5551 -11.69301,-2.7027 -4.56927,-2.4128 -4.63099,-4.1133 -11.10919,-5.0446 -6.47842,-0.9314 -21.44322,-3.0736 -28.99673,-4.2995 -7.55351,-1.226 -19.63153,8.7469 -27.4952,7.7967 -9.68543,-1.1704 -14.79936,-12.0951 -22.00239,-13.5684 -7.20303,-1.4732 -30.18881,10.9131 -33.42172,5.9174 -0.59847,-0.9246 11.5759,-12.7228 8.05783,-13.9873 -3.51784,-1.2645 -6.64285,0.4154 -7.06766,-0.5737 -4.72536,-10.9998 4.23861,-11.7333 8.22924,-14.6146 6.6789,-4.8224 17.18421,-7.4377 21.86295,-9.5445 9.35725,-4.2135 14.89799,2.3168 20.42296,0.6105 6.61718,-2.0437 10.98163,-7.8344 19.97917,-12.8981 8.99776,-5.0638 19.71915,-9.6276 28.22859,-10.8662 7.97786,-1.1613 9.6147,2.6526 13.26836,2.6526 1.82672,0 2.9081,-5.4367 6.70795,-5.9141 7.00211,-0.8797 12.1007,7.4199 17.00626,9.3871 4.90533,1.9672 11.28825,5.6212 16.84926,8.1475 5.56102,2.5263 9.91045,3.7046 15.59309,6.3931 6.62957,3.1365 3.45522,11.0181 6.22053,14.1476 3.85345,4.3611 16.48234,2.1753 20.14028,2.676 4.66951,0.6391 9.61966,3.4587 11.91016,5.3911 2.2907,1.9326 2.9151,11.8612 2.9151,12.9377 z"
       id="path54306-9-0-5"
       inkscape:connector-curvature="0"
       sodipodi:nodetypes="sssssssssssssssssssssssssss" />
    <path
       style="fill:#d5e5ff;fill-opacity:1;fill-rule:nonzero;stroke:none"
       d="m 481.17003,1328.2022 c -4.01022,1.594 -17.63199,-1.656 -24.36809,-1.7782 -2.37608,-0.069 -11.40988,-2.3391 -17.68469,-0.6933 -3.38765,0.8884 -1.54922,9.8487 -12.31874,4.7372 -3.94512,-1.8724 -3.53158,-6.0881 -8.31776,-6.918 -4.78617,-0.8299 -3.3739,-2.903 -5.15039,-4.4544 -2.2299,-1.9475 -2.96915,0.6385 -5.92523,0.3757 -2.00871,-0.1786 -5.52227,-3.359 -6.56627,-4.0275 -2.9518,-1.8901 -8.26798,-8.2763 -13.43684,-8.6342 -5.88064,-0.4072 -12.56291,3.2837 -20.13781,4.8925 -7.57468,1.6089 -16.042,1.1358 -16.042,-0.038 0,-2.3487 9.27436,-9.9093 19.16859,-14.0475 9.89423,-4.1382 24.18834,-4.8539 26.66781,-4.8539 1.23951,0 17.98472,0.031 26.10268,5.3495 8.11774,5.3182 14.22384,18.286 17.81241,20.0598 19.74115,9.7578 40.19633,3.9019 40.19633,10.0309 z"
       id="path54303-6-7"
       inkscape:connector-curvature="0"
       sodipodi:nodetypes="ccsssssssssssssc" />
    <path
       inkscape:connector-curvature="0"
       style="fill:url(#radialGradient55402);fill-opacity:1;fill-rule:nonzero;stroke:none"
       d="m 274.6475,1105.8579 c -1.89245,0 -4.88627,1.877 -8.09375,2.25 -3.20748,0.3723 -6.61793,-0.7615 -9.28125,0.3437 -10.17092,4.2203 -1.01012,4.9425 -6.03125,8.5313 -0.71409,0.5102 -1.30026,0.8054 -1.8125,0.9687 -0.34149,0.1089 -0.66008,0.1682 -0.96875,0.1875 -1.69767,0.1062 -3.22797,-0.7687 -8.40625,1.7188 -7.53204,3.6177 -4.02583,3.2068 -7.6875,4.9687 -0.3645,0.1754 -0.64649,0.2933 -0.90625,0.3437 -0.12988,0.025 -0.26167,0.029 -0.375,0.031 -0.34,0.01 -0.59944,-0.06 -0.90625,-0.1563 -1.02271,-0.32 -2.35556,-0.817 -7.1875,1.375 -1.93278,0.877 -2.72195,2.8097 -6.8125,5.7813 -1.89831,1.379 -4.74871,3.8614 -7.59375,6.8125 -0.4802,0.4981 -0.96224,1.0089 -1.4375,1.5312 -4.23131,4.6519 -8.09026,10.1657 -8.3125,14.4376 -0.12776,2.4556 -9.09555,-1.0199 -17.03125,3.9687 -2.4643,1.5491 -4.91509,2.5204 -7.25,4.25 -1.75118,1.2973 -3.45523,3.0219 -4.40625,3.9375 -0.31701,0.3052 -0.52675,0.5123 -0.65625,0.5938 -0.42665,0.2679 -0.91246,0.3592 -1.4375,0.3437 -0.26252,-0.01 -0.5161,-0.054 -0.8125,-0.094 -1.48198,-0.1974 -3.42603,-0.6268 -6.21875,0.3437 -4.18908,1.4557 -8.72998,3.8897 -12.84375,3.9375 -0.27425,0 -0.54216,-0.013 -0.8125,-0.031 -2.22964,-0.1551 -4.51924,0.4789 -7,0.5 -2.48075,0.021 -5.1558,-0.5685 -6.6875,-0.3126 -11.69412,2.9529 -21.56476,12.8221 -31.09375,26.7188 1.0553,9.2595 19.92575,0.991 55.71875,6.0625 7.16324,1.015 2.24771,5.3743 7.9375,6.1563 0.40365,0.055 0.90266,0.075 1.5,0.062 0.59734,-0.013 1.28663,-0.058 2.0625,-0.125 4.65523,-0.4001 12.38969,-1.6418 21.5625,-2.1874 4.7243,-0.2813 6.4768,1.5526 12.0625,1.9062 0.39898,0.025 0.84069,0.022 1.28125,0.031 0.44056,0.01 0.8879,0.01 1.375,0 1.12406,-0.023 2.29148,-0.013 3.5,0.031 1.20852,0.045 2.45325,0.124 3.71875,0.2187 7.59303,0.5693 15.97469,1.8941 22.15625,2.0626 9.27841,0.2527 15.91793,0.5502 22.5,0.5312 7.77222,-0.023 20.88509,3.6562 23.84375,3.6562 8.87601,0 16.09778,0.083 22.78125,-0.031 2.22782,-0.038 4.41454,-0.095 6.5625,-0.1875 8.59186,-0.3688 16.87951,-1.2548 27.46875,-3.3125 5.62553,-1.0932 10.62968,-2.7773 12.75,-4.9375 0.12472,-0.1271 0.23949,-0.276 0.34375,-0.4063 1.14688,-1.4316 1.03263,-3.0568 -0.96875,-4.8124 -0.54583,-0.479 -1.25541,-0.9388 -2.09375,-1.4376 -2.21651,-1.3183 0.71768,-0.7218 4.5,-0.5312 0.54033,0.027 1.09313,0.06 1.65625,0.062 0.56312,0 1.12651,-0.027 1.6875,-0.062 0.56099,-0.035 1.1223,-0.07 1.65625,-0.1562 0.26698,-0.043 0.5257,-0.097 0.78125,-0.1563 0.25555,-0.059 0.509,-0.1427 0.75,-0.2187 0.96402,-0.3047 1.79948,-0.7571 2.40625,-1.4063 0.14606,-0.1563 0.28805,-0.3198 0.40625,-0.5 0.005,-0.01 -0.005,-0.024 0,-0.031 0.12158,-0.188 0.22414,-0.378 0.3125,-0.5937 0.35342,-0.8627 0.42774,-1.94 0.125,-3.3125 -1.43903,-6.5237 22.44407,-6.2062 28.4375,-10.1875 0.22211,-0.1475 0.42298,-0.3089 0.59375,-0.4687 0.16644,-0.1538 0.29135,-0.3027 0.40625,-0.4688 0.2298,-0.3323 0.34375,-0.6742 0.34375,-1.0625 0,-3.8832 -6.84224,-7.4395 -13.21875,-9.9375 -2.5506,-0.9992 -5.0452,-1.8145 -6.96875,-2.4375 -0.96177,-0.3115 -1.77774,-0.5803 -2.40625,-0.7813 -7.15335,-2.2865 -18.62634,1.834 -25.09375,0.031 -0.99141,-0.2763 -1.56863,-0.5651 -1.84375,-0.8437 -0.0538,-0.057 -0.12564,-0.1294 -0.15625,-0.1876 -0.18367,-0.3483 0.0599,-0.7212 0.4375,-1.1562 0.25173,-0.29 0.54704,-0.581 0.875,-0.9375 0.16939,-0.1841 0.33831,-0.3874 0.5,-0.5937 0.15705,-0.1993 0.3047,-0.4022 0.4375,-0.625 0.79682,-1.337 1.00878,-3.1127 -1.25,-5.6563 -4.80982,-5.4164 -5.59626,-7.0917 -10.40625,-11.5937 -6.59196,-6.1703 -12.26206,-11.7647 -19.75,-21.5313 -3.74396,-4.8832 -1.70403,-13.2857 -8.78125,-16.5625 -0.43343,-0.2007 -0.87041,-0.3826 -1.3125,-0.5312 -0.01,0 -0.0217,0 -0.0312,0 -5.86722,-1.9604 -12.40841,0.387 -17.65625,0.8437 -0.40368,0.035 -0.80015,0.053 -1.1875,0.062 -0.38735,0.01 -0.75578,0.021 -1.125,0 -6.16935,-0.3572 -1.93893,-5.0214 -9.125,-5.0312 z"
       id="rect55375-4" />
    <path
       inkscape:connector-curvature="0"
       style="fill:url(#radialGradient55445);fill-opacity:1;fill-rule:nonzero;stroke:none"
       d="m 588.00402,1125.9024 c -5.1416,0 -19.76469,10.9193 -25.84375,17.2188 -8.96844,9.2938 -22.65788,16.62 -31.65625,17.1562 -15.46092,0.9216 -26.73325,7.3715 -35.4375,16.0626 -4.35213,4.3452 -7.99741,9.4159 -9.34375,16.75 -0.26316,1.4332 -11.9808,0.062 -9.53125,18.375 0.63405,4.7406 5.51047,18.0914 28.1875,16.6874 7.59156,-0.4701 20.26058,-13.8309 30.125,-11.5624 8.93982,2.0555 1.31788,9.1474 6.75,11.2812 0.37463,0.1472 0.80388,0.2783 1.3125,0.375 0.25431,0.048 0.52105,0.091 0.8125,0.125 9.32634,1.1034 18.70215,8.375 23.84375,8.375 5.1414,0 28.43038,-5.3661 38.40625,-7.2812 8.72907,-1.676 11.02248,-8.2018 16.1875,-12.875 0.36893,-0.334 0.75467,-0.6565 1.15625,-0.9688 0.40158,-0.3123 0.80899,-0.6204 1.25,-0.9062 6.48465,-4.2049 27.4039,2.6258 42.09375,5.6562 0.01,0 0.0217,0 0.0312,0 6.66267,1.3728 12.06387,1.9562 14.21877,0.375 3.602,-2.6431 4.5322,-5.4544 3.9062,-8.2812 -0.078,-0.3535 -0.1876,-0.7094 -0.3125,-1.0626 -2.8707,-8.12 -17.49997,-16.0621 -17.49997,-19.5 0,-2.3913 17.10267,-2.6981 18.56247,-8.375 2.0805,-8.0899 -25.16759,-8.716 -34.09372,-9.5937 -7.70924,-0.758 -5.8973,-5.1414 -6.65625,-10.4375 -0.069,-0.4815 -0.16072,-0.974 -0.28125,-1.4688 -0.12053,-0.4945 -0.27853,-0.996 -0.46875,-1.5 -0.19022,-0.5037 -0.40942,-0.9909 -0.6875,-1.5 -0.55616,-1.0178 -1.32718,-2.0483 -2.34375,-3.0624 -8.13232,-8.1141 -26.78922,-15.6376 -32.21875,-21.125 -5.42932,-5.4877 -15.32715,-8.9376 -20.46875,-8.9376 z"
       id="rect55375-2" />
    <path
       inkscape:connector-curvature="0"
       style="fill:url(#radialGradient55483);fill-opacity:1;fill-rule:nonzero;stroke:none"
       d="m 396.37426,1273.3179 c -0.21515,0.01 -0.43743,0.035 -0.65625,0.062 -1.89992,0.2387 -3.12008,1.7061 -4.09375,3.125 -0.24342,0.3547 -0.46815,0.7044 -0.6875,1.0312 -0.65805,0.981 -1.22123,1.75 -1.90625,1.75 -0.22835,0 -0.44161,0 -0.65625,-0.031 -3.21957,-0.4148 -5.14576,-3.7137 -12.625,-2.625 -8.50945,1.2386 -19.221,5.8112 -28.21876,10.875 -8.99754,5.0637 -13.35157,10.8627 -19.96875,12.9062 -0.34531,0.1068 -0.71614,0.1719 -1.0625,0.2188 -5.19543,0.7039 -10.60258,-4.7938 -19.375,-0.8438 -4.67874,2.1069 -15.1961,4.7401 -21.875,9.5626 -2.86827,2.0708 -8.29785,3.0074 -9.375,7.4687 -0.002,0.01 0.002,0.021 0,0.031 -0.41213,1.7419 -0.16566,4.0165 1.15625,7.0937 0.1593,0.3709 0.70294,0.3649 1.5,0.2813 0.26569,-0.028 0.55648,-0.059 0.875,-0.094 1.27408,-0.1383 2.92858,-0.226 4.6875,0.4062 3.51807,1.2645 -8.66097,13.0442 -8.0625,13.9688 0.60617,0.9367 1.9267,1.267 3.6875,1.1875 0.58693,-0.026 1.22573,-0.079 1.90625,-0.1875 2.04157,-0.3268 4.4597,-1.0187 7.03125,-1.8125 0.85718,-0.2646 1.74363,-0.5265 2.625,-0.8125 7.05094,-2.288 14.58598,-5.0179 18.1875,-4.2812 7.20303,1.4732 12.31457,12.3922 22,13.5624 0.49148,0.06 1.00898,0.083 1.53125,0.063 0.52227,-0.021 1.04496,-0.067 1.59375,-0.1563 6.58553,-1.0762 14.93268,-6.7664 21.34375,-7.6875 0.53426,-0.077 1.05719,-0.1195 1.5625,-0.125 0.50531,-0.01 0.99666,0.048 1.46875,0.125 7.55351,1.2259 22.52159,3.35 29.00001,4.2812 6.4782,0.9314 6.52448,2.6496 11.09375,5.0626 4.0672,2.1476 9.86079,2.6874 11.6875,2.6874 3.65366,0 45.66438,-3.8956 53.4375,-4.9062 7.77312,-1.0106 2.62936,-4.533 5.9375,-5.5625 4.99543,-1.5547 8.79268,1.5133 10.25,0.8437 5.72656,-2.6307 6,-6.1595 6,-8.3124 0,-1.0766 -0.6468,-11.0048 -2.9375,-12.9376 -2.2905,-1.9323 -7.23674,-4.7671 -11.90625,-5.4062 -2.97208,-0.4068 -11.85847,0.9687 -17.15625,-0.8438 -0.61128,-0.209 -1.18661,-0.4798 -1.6875,-0.7812 -0.50089,-0.3014 -0.91999,-0.6536 -1.28125,-1.0625 -2.07398,-2.3471 -0.81006,-7.3445 -2.84375,-11.0313 -0.16947,-0.3071 -0.37459,-0.6198 -0.59375,-0.9062 -0.65748,-0.8591 -1.53821,-1.5994 -2.78125,-2.1875 -5.68264,-2.6885 -10.03273,-3.88 -15.59375,-6.4063 -5.56101,-2.5261 -11.93842,-6.189 -16.84375,-8.1562 -4.75226,-1.9057 -9.70534,-9.7486 -16.375,-9.4375 z"
       id="rect55375" />
    <text
       xml:space="preserve"
       style="font-size:40px;font-style:normal;font-weight:normal;line-height:125%;letter-spacing:0px;word-spacing:0px;fill:#000000;fill-opacity:1;stroke:none;font-family:Sans"
       x="353.55338"
       y="1084.6871"
       id="text55504"
       sodipodi:linespacing="125%"><tspan
         sodipodi:role="line"
         id="tspan55506"
         x="353.55338"
         y="1084.6871">Nuit</tspan></text>
    <path
       style="opacity:0.55752210000000002;fill:#ffe717;fill-opacity:1;fill-rule:nonzero;stroke:none"
       d="m 259.66983,427.6313 c -0.60948,0.26777 -12.10583,-0.33938 -17.69416,-0.64312 -2.79417,-0.15187 -5.08591,-0.93843 -5.55526,-0.35739 -0.46936,0.58104 0.88365,2.52969 0.32823,3.80762 -0.2154,0.4956 -5.72524,0.59661 -9.49342,-0.61741 -3.76818,-1.21402 -5.7947,-3.74306 -8.63991,-3.96187 -2.8452,-0.21881 -6.13701,2.05702 -10.90555,1.99101 -4.86179,-0.0673 -8.10601,-4.28874 -8.51065,-4.24676 -2.97156,0.30828 -3.26035,2.29803 -4.77206,3.16962 -1.87589,1.08157 -3.68436,-2.87647 -6.44951,-5.66816 -1.35124,-1.36421 -0.13966,5.20614 -4.28609,5.33814 -3.80566,0.12115 -3.27642,-3.55988 -4.62047,-3.50312 -1.53571,0.0649 -1.02569,1.21377 -4.37656,0.70959 -1.67543,-0.25208 -2.76929,-0.22296 -3.56218,-0.68092 -0.79289,-0.45797 -1.2848,-1.40302 -2.26143,-1.58316 -1.95324,-0.36029 -4.58262,-0.59666 -7.60758,-1.45752 -3.02495,-0.86087 -6.44548,-2.34622 -6.44548,-2.67907 0,-0.33285 1.04757,-1.64797 2.0033,-1.92681 0.95573,-0.27885 3.46111,0.73111 5.11404,0.50273 1.65292,-0.22838 1.44323,-2.70527 3.53481,-2.88673 2.09157,-0.18147 3.60509,-0.0612 5.22059,1.54186 0.6939,0.68857 2.43589,3.27638 3.2684,3.40692 1.71333,0.26865 4.2911,-2.9538 5.38774,-3.76054 1.76849,-1.30099 1.12599,-2.82913 2.98232,-2.89109 1.85633,-0.062 4.60202,2.90569 5.37174,3.90475 0.37788,0.49047 1.54905,1.14265 2.6766,0.66206 1.12756,-0.48059 2.21149,-2.09395 2.4149,-2.09395 0.40682,0 1.76479,0.13649 3.82976,0.38054 2.06498,0.24405 1.30142,-5.46524 4.53627,-5.03498 3.23484,0.43026 8.19524,0.93917 12.11166,1.4978 3.91642,0.55863 3.74989,3.11859 5.84782,3.56391 1.3168,0.27952 3.14324,-6.29702 6.95796,-5.65518 3.81472,0.64185 9.63271,8.0941 12.66415,10.20602 2.53505,1.7661 17.67098,1.91395 19.43084,2.40764 1.75986,0.49369 2.25679,6.22472 1.49918,6.55757 z"
       id="path53709-5-3"
       inkscape:connector-curvature="0"
       sodipodi:nodetypes="sssssssssssssssssssssssssssssssssss" />
  </g>
</svg>
