<?xml version="1.0" encoding="UTF-8" standalone="no"?>
<!-- Created with Inkscape (http://www.inkscape.org/) -->

<svg
   xmlns:dc="http://purl.org/dc/elements/1.1/"
   xmlns:cc="http://creativecommons.org/ns#"
   xmlns:rdf="http://www.w3.org/1999/02/22-rdf-syntax-ns#"
   xmlns:svg="http://www.w3.org/2000/svg"
   xmlns="http://www.w3.org/2000/svg"
   xmlns:xlink="http://www.w3.org/1999/xlink"
   xmlns:sodipodi="http://sodipodi.sourceforge.net/DTD/sodipodi-0.dtd"
   xmlns:inkscape="http://www.inkscape.org/namespaces/inkscape"
   width="744.09448819"
   height="1052.3622047"
   id="svg3777"
   version="1.1"
   inkscape:version="0.48.5 r10040"
   sodipodi:docname="New document 4">
  <defs
     id="defs3779">
    <linearGradient
       inkscape:collect="always"
       id="linearGradient4540">
      <stop
         style="stop-color:#55d4ff;stop-opacity:1;"
         offset="0"
         id="stop4542" />
      <stop
         style="stop-color:#55d4ff;stop-opacity:0;"
         offset="1"
         id="stop4544" />
    </linearGradient>
    <linearGradient
       inkscape:collect="always"
       id="linearGradient4470">
      <stop
         style="stop-color:#ffdd55;stop-opacity:1;"
         offset="0"
         id="stop4472" />
      <stop
         style="stop-color:#ffdd55;stop-opacity:0;"
         offset="1"
         id="stop4474" />
    </linearGradient>
    <linearGradient
       inkscape:collect="always"
       id="linearGradient4405">
      <stop
         style="stop-color:#000000;stop-opacity:1;"
         offset="0"
         id="stop4407" />
      <stop
         style="stop-color:#000000;stop-opacity:0;"
         offset="1"
         id="stop4409" />
    </linearGradient>
    <radialGradient
       inkscape:collect="always"
       xlink:href="#linearGradient4405"
       id="radialGradient4411"
       cx="345.13995"
       cy="813.02448"
       fx="345.13995"
       fy="813.02448"
       r="177.66208"
       gradientTransform="matrix(0.96374516,-1.4464867,1.6506772,1.0997905,-1205.5772,220.74761)"
       gradientUnits="userSpaceOnUse" />
    <radialGradient
       inkscape:collect="always"
       xlink:href="#linearGradient4405-5"
       id="radialGradient4411-5"
       cx="345.13995"
       cy="813.02448"
       fx="345.13995"
       fy="813.02448"
       r="177.66208"
       gradientTransform="matrix(0.96374516,-1.4464867,1.6506772,1.0997905,-1177.2929,461.65114)"
       gradientUnits="userSpaceOnUse" />
    <linearGradient
       inkscape:collect="always"
       id="linearGradient4405-5">
      <stop
         style="stop-color:#000000;stop-opacity:1;"
         offset="0"
         id="stop4407-1" />
      <stop
         style="stop-color:#000000;stop-opacity:0;"
         offset="1"
         id="stop4409-7" />
    </linearGradient>
    <radialGradient
       inkscape:collect="always"
       xlink:href="#linearGradient4470"
       id="radialGradient4476"
       cx="244.10487"
       cy="331.22159"
       fx="244.10487"
       fy="331.22159"
       r="169.81914"
       gradientTransform="matrix(-0.6204645,1.9837859,-2.177853,-0.68116229,1145.1995,154.4553)"
       gradientUnits="userSpaceOnUse" />
    <radialGradient
       inkscape:collect="always"
       xlink:href="#linearGradient4405-5-2"
       id="radialGradient4411-5-3"
       cx="345.13995"
       cy="813.02448"
       fx="345.13995"
       fy="813.02448"
       r="177.66208"
       gradientTransform="matrix(0.96374516,-1.4464867,1.6506772,1.0997905,-1169.0767,712.28074)"
       gradientUnits="userSpaceOnUse" />
    <linearGradient
       inkscape:collect="always"
       id="linearGradient4405-5-2">
      <stop
         style="stop-color:#000000;stop-opacity:1;"
         offset="0"
         id="stop4407-1-2" />
      <stop
         style="stop-color:#000000;stop-opacity:0;"
         offset="1"
         id="stop4409-7-1" />
    </linearGradient>
    <radialGradient
       inkscape:collect="always"
       xlink:href="#linearGradient4540"
       id="radialGradient4546"
       cx="345.12259"
       cy="526.57904"
       fx="345.12259"
       fy="526.57904"
       r="169.81914"
       gradientTransform="matrix(-0.45033944,1.5784419,-1.919488,-0.54764231,1445.2248,400.00341)"
       gradientUnits="userSpaceOnUse" />
  </defs>
  <sodipodi:namedview
     id="base"
     pagecolor="#ffffff"
     bordercolor="#666666"
     borderopacity="1.0"
     inkscape:pageopacity="0.0"
     inkscape:pageshadow="2"
     inkscape:zoom="0.49497475"
     inkscape:cx="306.78311"
     inkscape:cy="533.89114"
     inkscape:document-units="px"
     inkscape:current-layer="layer1"
     showgrid="false"
     inkscape:window-width="1366"
     inkscape:window-height="706"
     inkscape:window-x="-8"
     inkscape:window-y="-8"
     inkscape:window-maximized="1" />
  <metadata
     id="metadata3782">
    <rdf:RDF>
      <cc:Work
         rdf:about="">
        <dc:format>image/svg+xml</dc:format>
        <dc:type
           rdf:resource="http://purl.org/dc/dcmitype/StillImage" />
        <dc:title></dc:title>
      </cc:Work>
    </rdf:RDF>
  </metadata>
  <g
     inkscape:label="Layer 1"
     inkscape:groupmode="layer"
     id="layer1">
    <path
       style="opacity:0.5575221;fill:#a50000;fill-opacity:1;fill-rule:nonzero;stroke:none"
       d="m 228.57166,81.669686 c 6.9175,2.55843 42.14041,0.33269 27.12706,12.30562 -15.01335,11.972944 -80.26297,38.144554 -84.36045,38.144554 -4.09748,0 -113.190334,11.2118 -127.867874,2.56234 45.09955,-15.43268 65.060224,-37.160174 70.634484,-41.989784 5.08741,-4.40781 19.41524,-14.01949 27.66334,-25.98724 7.34866,-10.66269 17.4175,-20.22343 21.51498,-20.22343 2.04874,0 0.15845,2.65516 5.33853,5.46403 2.59004,1.40444 5.25188,0.72755 9.78563,2.32013 4.53375,1.59257 12.63522,7.9983 15.92972,10.00155 13.17799,8.013 25.75556,14.26628 34.23458,17.40223 z"
       id="path2987"
       inkscape:connector-curvature="0"
       sodipodi:nodetypes="ssscsssssss" />
    <path
       style="opacity:0.5575221;fill:#a50000;fill-opacity:1;fill-rule:nonzero;stroke:none"
       d="m 239.90077,86.807386 c 0,0.26904 -3.93071,1.68621 -5.98951,2.12081 -0.25735,0.0543 1.90937,2.78652 4.84461,2.72932 0.39153,2.91045 5.7911,4.72732 11.15154,3.79889 -3.22457,1.82726 -11.78766,2.18107 -15.71266,1.609 -3.91384,-0.57045 -2.57598,1.32156 -1.02659,3.684754 -4.10841,-1.632884 -13.98661,-5.415094 -17.22996,-6.542314 -2.86663,-0.99629 -10.66261,-4.05094 -11.54895,-4.17883 -2.40346,-0.34679 -7.02181,-0.41203 -13.73915,-5.92041 -1.41795,2.97063 4.60401,8.97714 8.00695,12.93074 -12.05994,-5.02331 -12.12655,-14.01875 -16.86661,-13.21885 -0.59251,0.1 1.54733,7.31178 6.46065,16.07433 -3.35373,-0.98834 -7.74954,-9.3289 -9.11874,-11.50495 -1.8905,2.21913 0.69428,9.17057 2.14817,13.037554 -2.60358,-1.804944 -4.64331,-5.348924 -5.60585,-6.817774 -2.49613,-3.80917 -2.99879,-6.59036 -4.21613,-9.99535 -2.74139,-7.66783 -5.38552,-21.85082 -6.92821,-23.42642 -2.17861,0.96811 -0.94973,42.435164 -1.10949,43.415554 -2.40164,-6.820634 -0.33914,-29.245804 -2.10383,-29.779824 -1.76468,-0.53401 1.54641,-12.45702 -1.53769,-13.32358 0.0955,1.67715 -10.01969,17.3784 -10.65623,19.09905 0.8787,9.96569 -1.33331,17.44143 -2.11458,18.94568 0.13646,-2.48813 -1.40709,-6.93068 -2.37516,-8.52394 0.31219,13.301324 -2.16991,14.017524 -3.64177,16.296184 -0.19849,0.3073 0.92832,-1.91422 -0.80638,-2.46361 -1.7347,-0.54939 -2.73779,0.96309 -3.76133,2.11334 -0.84796,-1.89641 -0.57855,-3.44308 -1.01123,-4.84695 -0.56558,1.38915 -3.6397,4.99827 -5.94105,6.62364 2.49511,-4.07042 4.86364,-11.773374 4.39134,-13.222954 -0.62218,4.3961 -7.98233,11.897904 -9.2062,13.205454 -0.25917,-2.06826 1.52477,-2.21836 -0.0657,-2.8783 -1.59045,-0.65995 -4.75664,5.21507 -11.3187,10.55048 9.80893,-12.41214 5.83742,-11.95115 2.84662,-11.53107 -4.41909,0.6207 -11.27201,8.30571 -11.74026,11.63196 -0.22007,1.56327 -3.79885,4.08855 -4.976364,5.16797 1.585284,-4.97543 0.44362,-1.724 1.851914,-4.54842 -3.801954,2.49129 -6.464754,9.77131 -9.549894,10.61658 -2.31409,0.63402 3.41144,-6.51347 1.19575,-5.49619 -7.00017,3.21396 -2.85554,7.05009 -9.80292,8.91545 -3.47369,0.93268 -6.0804,-0.19624 -7.9127,1.01803 -1.8323,1.21426 -2.8902,4.77172 -5.6645,5.48423 -5.54859,1.42503 -11.06787,-0.1359 -14.30067,-0.62145 -3.27389,-0.49173 -10.77424,-2.59374 -10.77424,-2.86278 0,-0.53808 13.92285,-4.47471 27.33595,-10.9763 12.41095,-6.01584 25.11733,-17.36685 39.865904,-28.164834 14.74858,-10.79799 24.14771,-20.92916 32.95061,-31.95817 8.59795,-10.77224 15.66497,-16.36075 18.5812,-16.36075 0.18626,0 1.14053,3.16306 5.51963,5.41037 2.18955,1.12365 4.38741,0.95849 7.34962,1.85634 2.96222,0.89784 6.6888,2.85869 8.54417,3.99485 7.42152,4.54465 8.64517,6.91703 18.1423,11.79439 18.99425,9.75471 37.16632,15.96291 37.16632,17.03907 z"
       id="path3758"
       inkscape:connector-curvature="0"
       sodipodi:nodetypes="ssccscssccscccsaccsccccsscccccscssccssssssssssssssss" />
    <path
       style="opacity:0.5575221;fill:#a50000;fill-opacity:1;fill-rule:nonzero;stroke:none"
       d="m 199.53102,77.218196 c 0,1.17071 -0.40335,5.14525 -4.44708,3.10378 -2.02186,-1.02074 -3.89394,-5.45326 -6.44483,-7.72282 -2.55088,-2.26956 -5.78056,-2.37615 -6.27811,-2.37615 -0.9951,0 -0.62414,11.29012 -2.12417,11.26483 -1.50002,-0.0253 -4.87102,-11.36598 -4.87102,-12.53668 0,-0.58536 -0.49457,-2.71119 -1.80809,-4.89485 1.83415,1.11391 7.94559,2.76955 10.06577,3.75158 -2.20486,-2.98229 -6.28513,-7.75971 -5.29002,-7.75971 1.9902,0 21.19755,14.8286 21.19755,17.17002 z"
       id="path3761"
       inkscape:connector-curvature="0"
       sodipodi:nodetypes="ssssssccss" />
    <path
       style="fill:#cccccc;fill-opacity:1;fill-rule:nonzero;stroke:none"
       d="m 504.61309,309.1843 c 11.38383,4.2103 69.34864,0.54749 44.64182,20.25082 -24.70682,19.70336 -132.08527,62.77284 -138.82832,62.77284 -6.74304,0 -186.2724,18.45077 -210.42659,4.21673 74.21838,-25.39689 107.06678,-61.15289 116.2401,-69.10076 8.37213,-7.25375 31.95081,-23.07127 45.52435,-42.76607 12.09337,-17.54713 28.66322,-33.28082 35.40627,-33.28082 3.37152,0 0.26075,4.36948 8.78538,8.99192 4.26232,2.31122 8.64279,1.19729 16.10379,3.81813 7.46099,2.62083 20.79323,13.16246 26.21484,16.45912 21.68645,13.18664 42.38481,23.47739 56.33836,28.63809 z"
       id="path2987-1"
       inkscape:connector-curvature="0"
       sodipodi:nodetypes="ssscsssssss" />
    <path
       style="fill:url(#radialGradient4411);fill-opacity:1;fill-rule:nonzero;stroke:none"
       d="m 504.61309,309.72999 c 11.38383,4.2103 69.34863,0.54747 44.64182,20.25082 -12.35341,9.85168 -45.37473,25.54489 -76.15057,38.77518 -30.77585,13.23029 -59.30623,23.99766 -62.67775,23.99766 -6.74304,0 -186.2724,18.45077 -210.42659,4.21673 74.21838,-25.39689 107.06678,-61.15289 116.2401,-69.10076 8.37213,-7.25375 31.95081,-23.07127 45.52435,-42.76607 12.09337,-17.54713 28.66322,-33.28082 35.40627,-33.28082 3.37152,0 0.26075,4.36948 8.78538,8.99192 4.26232,2.31122 8.64279,1.19729 16.10379,3.81813 7.46099,2.62083 20.79323,13.16246 26.21484,16.45912 21.68645,13.18664 42.38481,23.47739 56.33836,28.63809 z"
       id="path2987-1-4"
       inkscape:connector-curvature="0"
       sodipodi:nodetypes="sssscsssssss" />
    <path
       style="fill:#f9f9f9;fill-opacity:1;fill-rule:nonzero;stroke:none;stroke-opacity:1"
       d="m 523.25691,317.63919 c 0,0.44275 -6.4686,2.77492 -9.85667,3.49012 -0.42351,0.0894 3.14216,4.58566 7.97256,4.49153 0.64432,4.7896 9.53016,7.77954 18.3516,6.25166 -5.30653,3.00705 -19.39844,3.5893 -25.85764,2.64786 -6.44083,-0.93876 -4.23917,2.17484 -1.68941,6.06385 -6.76103,-2.68717 -23.01716,-8.91139 -28.3546,-10.76641 -4.71748,-1.63955 -17.54699,-6.66645 -19.0056,-6.87692 -3.95527,-0.57069 -11.55549,-0.67806 -22.60992,-9.74296 -2.33346,4.88864 7.57662,14.77329 13.17669,21.27956 -19.84652,-8.26664 -19.95614,-23.07005 -27.75665,-21.75369 -0.97506,0.16457 2.54638,12.03268 10.63201,26.45283 -5.51908,-1.62647 -12.75308,-15.35217 -15.00631,-18.9332 -3.11111,3.65193 1.14255,15.09161 3.53515,21.45535 -4.2846,-2.97033 -7.64129,-8.8025 -9.2253,-11.21973 -4.10777,-6.26858 -4.93498,-10.84546 -6.9383,-16.44891 -4.51139,-12.61861 -8.86272,-35.95894 -11.40146,-38.55184 -3.58524,1.59318 -1.56293,69.83371 -1.82584,71.4471 -3.95227,-11.22443 -0.5581,-48.12856 -3.46218,-49.00737 -2.90405,-0.8788 2.54486,-20.49997 -2.53051,-21.92603 0.15716,2.76001 -16.48896,28.59887 -17.53649,31.43047 1.44604,16.4001 -2.19417,28.7026 -3.47987,31.17808 0.22456,-4.09461 -2.31559,-11.40552 -3.9087,-14.02748 0.51376,21.88942 -3.57093,23.06804 -5.9931,26.81793 -0.32665,0.50571 1.52769,-3.15015 -1.32703,-4.05425 -2.85472,-0.90411 -4.50546,1.58491 -6.18985,3.47783 -1.39545,-3.12084 -0.9521,-5.66613 -1.66414,-7.97642 -0.93075,2.28607 -5.9897,8.22544 -9.77693,10.90024 4.1061,-6.69851 8.00388,-19.37494 7.22664,-21.76045 -1.0239,7.23447 -13.13617,19.57987 -15.15024,21.73165 -0.42651,-3.40364 2.50924,-3.65066 -0.10812,-4.73669 -2.61734,-1.08605 -7.8278,8.58221 -18.62669,17.36246 16.14212,-20.42611 9.60638,-19.66748 4.68455,-18.97618 -7.2723,1.02146 -18.54985,13.66835 -19.32043,19.14221 -0.36216,2.57261 -6.2516,6.72835 -8.18938,8.50471 2.60883,-8.18785 0.73005,-2.83712 3.04761,-7.48514 -6.2567,4.09981 -10.63876,16.08022 -15.71584,17.47124 -3.8082,1.04338 5.61406,-10.71893 1.9678,-9.04484 -11.51988,5.28908 -4.69924,11.60203 -16.13224,14.67177 -5.7165,1.53487 -10.00625,-0.32294 -13.02159,1.67533 -3.01534,1.99825 -4.75628,7.85261 -9.32182,9.02516 -9.13108,2.34511 -19.2558,0.0815 -24.60543,-0.48699 -11.81627,-1.25564 -18.17713,-3.91125 -18.17713,-4.354 0,-0.88549 22.28723,-8.97098 44.36059,-19.67037 20.42417,-9.9 41.45705,-28.87574 65.72813,-46.64551 6.06778,-4.44245 9.05996,-7.80615 14.14954,-12.15166 5.08957,-4.34551 14.29685,-8.66267 18.65267,-12.9917 4.35582,-4.32904 8.40587,-8.66996 12.27237,-13.06299 3.86651,-4.39303 6.47804,-9.55247 10.09968,-14.08996 14.14927,-17.7274 26.85059,-27.28131 33.43541,-27.28131 0.30652,0 0.8055,5.9196 8.012,9.6179 3.60325,1.84914 8.29159,1.2202 13.16637,2.69775 4.87479,1.47754 11.36461,5.41871 14.41792,7.28844 12.21327,7.47893 13.15555,9.95448 28.78456,17.98094 31.25801,16.0529 60.09156,27.69804 60.09156,29.46903 z"
       id="path3758-7"
       inkscape:connector-curvature="0"
       sodipodi:nodetypes="ssccscssccscccsaccsccccsscccccscssccsssssssssssssssssss" />
    <path
       style="fill:#4d4d4d;fill-opacity:1;fill-rule:nonzero;stroke:none"
       d="m 456.82217,301.85868 c 0,1.92658 -0.66377,8.46731 -7.31836,5.10775 -3.32729,-1.67979 -6.40809,-8.97419 -10.60598,-12.70911 -4.19787,-3.73491 -9.51281,-3.91032 -10.33161,-3.91032 -1.63759,0 -1.02712,18.57966 -3.49565,18.53804 -2.46852,-0.0416 -8.01603,-18.7045 -8.01603,-20.63107 0,-0.9633 -0.81389,-4.46169 -2.97549,-8.05524 3.01838,1.83311 13.07571,4.55773 16.56479,6.17381 -3.62844,-4.90783 -10.34316,-12.76982 -8.70555,-12.76982 3.27518,0 34.88388,24.40278 34.88388,28.25596 z"
       id="path3761-4"
       inkscape:connector-curvature="0"
       sodipodi:nodetypes="ssssssccss" />
    <path
       style="fill:#cccccc;fill-opacity:1;fill-rule:nonzero;stroke:none"
       d="m 532.89736,550.08783 c 11.38383,4.2103 69.34864,0.54749 44.64182,20.25082 -24.70682,19.70336 -132.08527,62.77284 -138.82832,62.77284 -6.74304,0 -186.2724,18.45077 -210.42659,4.21673 74.21838,-25.39689 107.06678,-61.15289 116.2401,-69.10076 8.37213,-7.25375 31.95081,-23.07127 45.52435,-42.76607 12.09337,-17.54713 28.66322,-33.28082 35.40627,-33.28082 3.37152,0 0.26075,4.36948 8.78538,8.99192 4.26232,2.31122 8.64279,1.19729 16.10379,3.81813 7.46099,2.62083 20.79323,13.16246 26.21484,16.45912 21.68645,13.18664 42.38481,23.47739 56.33836,28.63809 z"
       id="path2987-1-1"
       inkscape:connector-curvature="0"
       sodipodi:nodetypes="ssscsssssss" />
    <path
       style="fill:url(#radialGradient4411-5);fill-opacity:1;fill-rule:nonzero;stroke:none"
       d="m 532.89736,550.63352 c 11.38383,4.2103 69.34864,0.54749 44.64182,20.25082 -24.70682,19.70336 -132.08527,62.77284 -138.82832,62.77284 -6.74304,0 -186.2724,18.45077 -210.42659,4.21673 74.21838,-25.39689 107.06678,-61.15289 116.2401,-69.10076 8.37213,-7.25375 31.95081,-23.07127 45.52435,-42.76607 12.09337,-17.54713 28.66322,-33.28082 35.40627,-33.28082 3.37152,0 0.26075,4.36948 8.78538,8.99192 4.26232,2.31122 8.64279,1.19729 16.10379,3.81813 7.46099,2.62083 20.79323,13.16246 26.21484,16.45912 21.68645,13.18664 42.38481,23.47739 56.33836,28.63809 z"
       id="path2987-1-4-1"
       inkscape:connector-curvature="0"
       sodipodi:nodetypes="ssscsssssss" />
    <path
       style="fill:#f9f9f9;fill-opacity:1;fill-rule:nonzero;stroke:none"
       d="m 551.54118,558.54272 c 0,0.44275 -6.4686,2.77492 -9.85667,3.49012 -0.42351,0.0894 3.14216,4.58566 7.97256,4.49153 0.64432,4.7896 9.53016,7.77954 18.3516,6.25166 -5.30653,3.00705 -19.39844,3.5893 -25.85764,2.64786 -6.44083,-0.93876 -4.23917,2.17484 -1.68941,6.06385 -6.76103,-2.68717 -23.01716,-8.91139 -28.3546,-10.76641 -4.71748,-1.63955 -17.54699,-6.66645 -19.0056,-6.87692 -3.95527,-0.57069 -11.55549,-0.67806 -22.60992,-9.74296 -2.33346,4.88864 7.57662,14.77329 13.17669,21.27956 -19.84652,-8.26664 -19.95614,-23.07005 -27.75665,-21.75369 -0.97506,0.16457 2.54638,12.03268 10.63201,26.45283 -5.51908,-1.62647 -12.75308,-15.35217 -15.00631,-18.9332 -3.11111,3.65193 1.14255,15.09161 3.53515,21.45535 -4.2846,-2.97033 -7.64129,-8.8025 -9.2253,-11.21973 -4.10777,-6.26858 -4.93498,-10.84546 -6.9383,-16.44891 -4.51139,-12.61861 -8.86272,-35.95894 -11.40146,-38.55184 -3.58524,1.59318 -1.56293,69.83371 -1.82584,71.4471 -3.95227,-11.22443 -0.5581,-48.12856 -3.46218,-49.00737 -2.90405,-0.8788 2.54486,-20.49997 -2.53051,-21.92603 0.15716,2.76001 -16.48896,28.59887 -17.53649,31.43047 1.44604,16.4001 -2.19417,28.7026 -3.47987,31.17808 0.22456,-4.09461 -2.31559,-11.40552 -3.9087,-14.02748 0.51376,21.88942 -3.57093,23.06804 -5.9931,26.81793 -0.32665,0.50571 1.52769,-3.15015 -1.32703,-4.05425 -2.85472,-0.90411 -4.50546,1.58491 -6.18985,3.47783 -1.39545,-3.12084 -0.9521,-5.66613 -1.66414,-7.97642 -0.93075,2.28607 -5.9897,8.22544 -9.77693,10.90024 4.1061,-6.69851 8.00388,-19.37494 7.22664,-21.76045 -1.0239,7.23447 -13.13617,19.57987 -15.15024,21.73165 -0.42651,-3.40364 2.50924,-3.65066 -0.10812,-4.73669 -2.61734,-1.08605 -7.8278,8.58221 -18.62669,17.36246 16.14212,-20.42611 9.60638,-19.66748 4.68455,-18.97618 -7.2723,1.02146 -18.54985,13.66835 -19.32043,19.14221 -0.36216,2.57261 -6.2516,6.72835 -8.18938,8.50471 2.60883,-8.18785 0.73005,-2.83712 3.04761,-7.48514 -6.2567,4.09981 -10.63876,16.08022 -15.71584,17.47124 -3.8082,1.04338 5.61406,-10.71893 1.9678,-9.04484 -11.51988,5.28908 -4.69924,11.60203 -16.13224,14.67177 -5.7165,1.53487 -10.00625,-0.32294 -13.02159,1.67533 -3.01534,1.99825 -4.75628,7.85261 -9.32182,9.02516 -9.13108,2.34511 -19.2558,0.0815 -24.60543,-0.48699 -11.81627,-1.25564 -18.17713,-3.91125 -18.17713,-4.354 0,-0.88549 22.28723,-8.97098 44.36059,-19.67037 20.42417,-9.9 41.45705,-28.87574 65.72813,-46.64551 6.06778,-4.44245 9.05996,-7.80615 14.14954,-12.15166 5.08957,-4.34551 14.29685,-8.66267 18.65267,-12.9917 4.35582,-4.32904 8.40587,-8.66996 12.27237,-13.06299 3.86651,-4.39303 6.47804,-9.55247 10.09968,-14.08996 14.14927,-17.7274 26.85059,-27.28131 33.43541,-27.28131 0.30652,0 0.8055,5.9196 8.012,9.6179 3.60325,1.84914 8.29159,1.2202 13.16637,2.69775 4.87479,1.47754 11.36461,5.41871 14.41792,7.28844 12.21327,7.47893 13.15555,9.95448 28.78456,17.98094 31.25801,16.0529 60.09156,27.69804 60.09156,29.46903 z"
       id="path3758-7-5"
       inkscape:connector-curvature="0"
       sodipodi:nodetypes="ssccscssccscccsaccsccccsscccccscssccsssssssssssssssssss" />
    <path
       style="fill:#ffdd55;fill-opacity:1;fill-rule:nonzero;stroke:none"
       d="m 485.10644,542.76221 c 0,1.92658 -0.66377,8.46731 -7.31836,5.10775 -3.32729,-1.67979 -6.40809,-8.97419 -10.60598,-12.70911 -4.19787,-3.73491 -9.51281,-3.91032 -10.33161,-3.91032 -1.63759,0 -1.02712,18.57966 -3.49565,18.53804 -2.46852,-0.0416 -8.01603,-18.7045 -8.01603,-20.63107 0,-0.9633 -0.81389,-4.46169 -2.97549,-8.05524 3.01838,1.83311 13.07571,4.55773 16.56479,6.17381 -3.62844,-4.90783 -10.34316,-12.76982 -8.70555,-12.76982 3.27518,0 34.88388,24.40278 34.88388,28.25596 z"
       id="path3761-4-2"
       inkscape:connector-curvature="0"
       sodipodi:nodetypes="ssssssccss" />
    <path
       style="fill:url(#radialGradient4476);fill-opacity:1;fill-rule:nonzero;stroke:none"
       d="m 551.45507,558.54272 c 0,0.44275 -6.4686,2.77492 -9.85667,3.49012 -0.42351,0.0894 3.14216,4.58566 7.97256,4.49153 0.64432,4.7896 9.53016,7.77954 18.3516,6.25166 -5.30653,3.00705 -19.39844,3.5893 -25.85764,2.64786 -6.44083,-0.93876 -4.23917,2.17484 -1.68941,6.06385 -6.76103,-2.68717 -23.01716,-8.91139 -28.3546,-10.76641 -4.71748,-1.63955 -17.54699,-6.66645 -19.0056,-6.87692 -3.95527,-0.57069 -11.55549,-0.67806 -22.60992,-9.74296 -2.33346,4.88864 7.57662,14.77329 13.17669,21.27956 -19.84652,-8.26664 -19.95614,-23.07005 -27.75665,-21.75369 -0.97506,0.16457 2.54638,12.03268 10.63201,26.45283 -5.51908,-1.62647 -12.75308,-15.35217 -15.00631,-18.9332 -3.11111,3.65193 1.14255,15.09161 3.53515,21.45535 -4.2846,-2.97033 -7.64129,-8.8025 -9.2253,-11.21973 -4.10777,-6.26858 -4.93498,-10.84546 -6.9383,-16.44891 -4.51139,-12.61861 -8.86272,-35.95894 -11.40146,-38.55184 -3.58524,1.59318 -1.56293,69.83371 -1.82584,71.4471 -3.95227,-11.22443 -0.5581,-48.12856 -3.46218,-49.00737 -2.90405,-0.8788 2.54486,-20.49997 -2.53051,-21.92603 0.15716,2.76001 -16.48896,28.59887 -17.53649,31.43047 1.44604,16.4001 -2.19417,28.7026 -3.47987,31.17808 0.22456,-4.09461 -2.31559,-11.40552 -3.9087,-14.02748 0.51376,21.88942 -3.57093,23.06804 -5.9931,26.81793 -0.32665,0.50571 1.52769,-3.15015 -1.32703,-4.05425 -2.85472,-0.90411 -4.50546,1.58491 -6.18985,3.47783 -1.39545,-3.12084 -0.9521,-5.66613 -1.66414,-7.97642 -0.93075,2.28607 -5.9897,8.22544 -9.77693,10.90024 4.1061,-6.69851 8.00388,-19.37494 7.22664,-21.76045 -1.0239,7.23447 -13.13617,19.57987 -15.15024,21.73165 -0.42651,-3.40364 2.50924,-3.65066 -0.10812,-4.73669 -2.61734,-1.08605 -7.8278,8.58221 -18.62669,17.36246 16.14212,-20.42611 9.60638,-19.66748 4.68455,-18.97618 -7.2723,1.02146 -18.54985,13.66835 -19.32043,19.14221 -0.36216,2.57261 -6.2516,6.72835 -8.18938,8.50471 2.60883,-8.18785 0.73005,-2.83712 3.04761,-7.48514 -6.2567,4.09981 -10.63876,16.08022 -15.71584,17.47124 -3.8082,1.04338 5.61406,-10.71893 1.9678,-9.04484 -11.51988,5.28908 -4.69924,11.60203 -16.13224,14.67177 -5.7165,1.53487 -10.00625,-0.32294 -13.02159,1.67533 -3.01534,1.99825 -4.75628,7.85261 -9.32182,9.02516 -9.13108,2.34511 -19.2558,0.0815 -24.60543,-0.48699 -11.81627,-1.25564 -18.17713,-3.91125 -18.17713,-4.354 0,-0.88549 22.28723,-8.97098 44.36059,-19.67037 20.42417,-9.9 41.45705,-28.87574 65.72813,-46.64551 6.06778,-4.44245 9.05996,-7.80615 14.14954,-12.15166 5.08957,-4.34551 14.29685,-8.66267 18.65267,-12.9917 4.35582,-4.32904 8.40587,-8.66996 12.27237,-13.06299 3.86651,-4.39303 6.47804,-9.55247 10.09968,-14.08996 14.14927,-17.7274 26.85059,-27.28131 33.43541,-27.28131 0.30652,0 0.8055,5.9196 8.012,9.6179 3.60325,1.84914 8.29159,1.2202 13.16637,2.69775 4.87479,1.47754 11.36461,5.41871 14.41792,7.28844 12.21327,7.47893 13.15555,9.95448 28.78456,17.98094 31.25801,16.0529 60.09156,27.69804 60.09156,29.46903 z"
       id="path3758-7-5-7"
       inkscape:connector-curvature="0"
       sodipodi:nodetypes="ssccscssccscccsaccsccccsscccccscssccsssssssssssssssssss" />
    <path
       style="fill:#cccccc;fill-opacity:1;fill-rule:nonzero;stroke:none"
       d="m 541.11355,800.71743 c 11.38383,4.2103 69.34864,0.54749 44.64182,20.25082 -24.70682,19.70336 -132.08527,62.77284 -138.82832,62.77284 -6.74304,0 -186.2724,18.45077 -210.42659,4.21673 74.21838,-25.39689 107.06678,-61.15289 116.2401,-69.10076 8.37213,-7.25375 31.95081,-23.07127 45.52435,-42.76607 12.09337,-17.54713 28.66322,-33.28082 35.40627,-33.28082 3.37152,0 0.26075,4.36948 8.78538,8.99192 4.26232,2.31122 8.64279,1.19729 16.10379,3.81813 7.46099,2.62083 20.79323,13.16246 26.21484,16.45912 21.68645,13.18664 42.38481,23.47739 56.33836,28.63809 z"
       id="path2987-1-1-6"
       inkscape:connector-curvature="0"
       sodipodi:nodetypes="ssscsssssss" />
    <path
       style="fill:url(#radialGradient4411-5-3);fill-opacity:1;fill-rule:nonzero;stroke:none"
       d="m 541.11355,801.26312 c 11.38383,4.2103 69.34864,0.54749 44.64182,20.25082 -24.70682,19.70336 -132.08527,62.77284 -138.82832,62.77284 -6.74304,0 -186.2724,18.45077 -210.42659,4.21673 74.21838,-25.39689 107.06678,-61.15289 116.2401,-69.10076 8.37213,-7.25375 31.95081,-23.07127 45.52435,-42.76607 12.09337,-17.54713 28.66322,-33.28082 35.40627,-33.28082 3.37152,0 0.26075,4.36948 8.78538,8.99192 4.26232,2.31122 8.64279,1.19729 16.10379,3.81813 7.46099,2.62083 20.79323,13.16246 26.21484,16.45912 21.68645,13.18664 42.38481,23.47739 56.33836,28.63809 z"
       id="path2987-1-4-1-8"
       inkscape:connector-curvature="0"
       sodipodi:nodetypes="ssscsssssss" />
    <path
       style="fill:#f9f9f9;fill-opacity:1;fill-rule:nonzero;stroke:none"
       d="m 559.75737,809.17232 c 0,0.44275 -6.4686,2.77492 -9.85667,3.49012 -0.42351,0.0894 3.14216,4.58566 7.97256,4.49153 0.64432,4.7896 9.53016,7.77954 18.3516,6.25166 -5.30653,3.00705 -19.39844,3.5893 -25.85764,2.64786 -6.44083,-0.93876 -4.23917,2.17484 -1.68941,6.06385 -6.76103,-2.68717 -23.01716,-8.91139 -28.3546,-10.76641 -4.71748,-1.63955 -17.54699,-6.66645 -19.0056,-6.87692 -3.95527,-0.57069 -11.55549,-0.67806 -22.60992,-9.74296 -2.33346,4.88864 7.57662,14.77329 13.17669,21.27956 -19.84652,-8.26664 -19.95614,-23.07005 -27.75665,-21.75369 -0.97506,0.16457 2.54638,12.03268 10.63201,26.45283 -5.51908,-1.62647 -12.75308,-15.35217 -15.00631,-18.9332 -3.11111,3.65193 1.14255,15.09161 3.53515,21.45535 -4.2846,-2.97033 -7.64129,-8.8025 -9.2253,-11.21973 -4.10777,-6.26858 -4.93498,-10.84546 -6.9383,-16.44891 -4.51139,-12.61861 -8.86272,-35.95894 -11.40146,-38.55184 -3.58524,1.59318 -1.56293,69.83371 -1.82584,71.4471 -3.95227,-11.22443 -0.5581,-48.12856 -3.46218,-49.00737 -2.90405,-0.8788 2.54486,-20.49997 -2.53051,-21.92603 0.15716,2.76001 -16.48896,28.59887 -17.53649,31.43047 1.44604,16.4001 -2.19417,28.7026 -3.47987,31.17808 0.22456,-4.09461 -2.31559,-11.40552 -3.9087,-14.02748 0.51376,21.88942 -3.57093,23.06804 -5.9931,26.81793 -0.32665,0.50571 1.52769,-3.15015 -1.32703,-4.05425 -2.85472,-0.90411 -4.50546,1.58491 -6.18985,3.47783 -1.39545,-3.12084 -0.9521,-5.66613 -1.66414,-7.97642 -0.93075,2.28607 -5.9897,8.22544 -9.77693,10.90024 4.1061,-6.69851 8.00388,-19.37494 7.22664,-21.76045 -1.0239,7.23447 -13.13617,19.57987 -15.15024,21.73165 -0.42651,-3.40364 2.50924,-3.65066 -0.10812,-4.73669 -2.61734,-1.08605 -7.8278,8.58221 -18.62669,17.36246 16.14212,-20.42611 9.60638,-19.66748 4.68455,-18.97618 -7.2723,1.02146 -18.54985,13.66835 -19.32043,19.14221 -0.36216,2.57261 -6.2516,6.72835 -8.18938,8.50471 2.60883,-8.18785 0.73005,-2.83712 3.04761,-7.48514 -6.2567,4.09981 -10.63876,16.08022 -15.71584,17.47124 -3.8082,1.04338 5.61406,-10.71893 1.9678,-9.04484 -11.51988,5.28908 -4.69924,11.60203 -16.13224,14.67177 -5.7165,1.53487 -10.00625,-0.32294 -13.02159,1.67533 -3.01534,1.99825 -4.75628,7.85261 -9.32182,9.02516 -9.13108,2.34511 -19.2558,0.0815 -24.60543,-0.48699 -11.81627,-1.25564 -18.17713,-3.91125 -18.17713,-4.354 0,-0.88549 22.28723,-8.97098 44.36059,-19.67037 20.42417,-9.9 41.45705,-28.87574 65.72813,-46.64551 6.06778,-4.44245 9.05996,-7.80615 14.14954,-12.15166 5.08957,-4.34551 14.29685,-8.66267 18.65267,-12.9917 4.35582,-4.32904 8.40587,-8.66996 12.27237,-13.06299 3.86651,-4.39303 6.47804,-9.55247 10.09968,-14.08996 14.14927,-17.7274 26.85059,-27.28131 33.43541,-27.28131 0.30652,0 0.8055,5.9196 8.012,9.6179 3.60325,1.84914 8.29159,1.2202 13.16637,2.69775 4.87479,1.47754 11.36461,5.41871 14.41792,7.28844 12.21327,7.47893 13.15555,9.95448 28.78456,17.98094 31.25801,16.0529 60.09156,27.69804 60.09156,29.46903 z"
       id="path3758-7-5-5"
       inkscape:connector-curvature="0"
       sodipodi:nodetypes="ssccscssccscccsaccsccccsscccccscssccsssssssssssssssssss" />
    <path
       style="fill:#55ddff;fill-opacity:1;fill-rule:nonzero;stroke:none"
       d="m 493.32263,793.39181 c 0,1.92658 -0.66377,8.46731 -7.31836,5.10775 -3.32729,-1.67979 -6.40809,-8.97419 -10.60598,-12.70911 -4.19787,-3.73491 -9.51281,-3.91032 -10.33161,-3.91032 -1.63759,0 -1.02712,18.57966 -3.49565,18.53804 -2.46852,-0.0416 -8.01603,-18.7045 -8.01603,-20.63107 0,-0.9633 -0.81389,-4.46169 -2.97549,-8.05524 3.01838,1.83311 13.07571,4.55773 16.56479,6.17381 -3.62844,-4.90783 -10.34316,-12.76982 -8.70555,-12.76982 3.27518,0 34.88388,24.40278 34.88388,28.25596 z"
       id="path3761-4-2-7"
       inkscape:connector-curvature="0"
       sodipodi:nodetypes="ssssssccss" />
    <path
       style="fill:url(#radialGradient4546);fill-opacity:1;fill-rule:nonzero;stroke:none"
       d="m 559.67126,809.17232 c 0,0.44275 -6.4686,2.77492 -9.85667,3.49012 -0.42351,0.0894 3.14216,4.58566 7.97256,4.49153 0.64432,4.7896 9.53016,7.77954 18.3516,6.25166 -5.30653,3.00705 -19.39844,3.5893 -25.85764,2.64786 -6.44083,-0.93876 -4.23917,2.17484 -1.68941,6.06385 -6.76103,-2.68717 -23.01716,-8.91139 -28.3546,-10.76641 -4.71748,-1.63955 -17.54699,-6.66645 -19.0056,-6.87692 -3.95527,-0.57069 -11.55549,-0.67806 -22.60992,-9.74296 -2.33346,4.88864 7.57662,14.77329 13.17669,21.27956 -19.84652,-8.26664 -19.95614,-23.07005 -27.75665,-21.75369 -0.97506,0.16457 2.54638,12.03268 10.63201,26.45283 -5.51908,-1.62647 -12.75308,-15.35217 -15.00631,-18.9332 -3.11111,3.65193 1.14255,15.09161 3.53515,21.45535 -4.2846,-2.97033 -7.64129,-8.8025 -9.2253,-11.21973 -4.10777,-6.26858 -4.93498,-10.84546 -6.9383,-16.44891 -4.51139,-12.61861 -8.86272,-35.95894 -11.40146,-38.55184 -3.58524,1.59318 -1.56293,69.83371 -1.82584,71.4471 -3.95227,-11.22443 -0.5581,-48.12856 -3.46218,-49.00737 -2.90405,-0.8788 2.54486,-20.49997 -2.53051,-21.92603 0.15716,2.76001 -16.48896,28.59887 -17.53649,31.43047 1.44604,16.4001 -2.19417,28.7026 -3.47987,31.17808 0.22456,-4.09461 -2.31559,-11.40552 -3.9087,-14.02748 0.51376,21.88942 -3.57093,23.06804 -5.9931,26.81793 -0.32665,0.50571 1.52769,-3.15015 -1.32703,-4.05425 -2.85472,-0.90411 -4.50546,1.58491 -6.18985,3.47783 -1.39545,-3.12084 -0.9521,-5.66613 -1.66414,-7.97642 -0.93075,2.28607 -5.9897,8.22544 -9.77693,10.90024 4.1061,-6.69851 8.00388,-19.37494 7.22664,-21.76045 -1.0239,7.23447 -13.13617,19.57987 -15.15024,21.73165 -0.42651,-3.40364 2.50924,-3.65066 -0.10812,-4.73669 -2.61734,-1.08605 -7.8278,8.58221 -18.62669,17.36246 16.14212,-20.42611 9.60638,-19.66748 4.68455,-18.97618 -7.2723,1.02146 -18.54985,13.66835 -19.32043,19.14221 -0.36216,2.57261 -6.2516,6.72835 -8.18938,8.50471 2.60883,-8.18785 0.73005,-2.83712 3.04761,-7.48514 -6.2567,4.09981 -10.63876,16.08022 -15.71584,17.47124 -3.8082,1.04338 5.61406,-10.71893 1.9678,-9.04484 -11.51988,5.28908 -4.69924,11.60203 -16.13224,14.67177 -5.7165,1.53487 -10.00625,-0.32294 -13.02159,1.67533 -3.01534,1.99825 -4.75628,7.85261 -9.32182,9.02516 -9.13108,2.34511 -19.2558,0.0815 -24.60543,-0.48699 -11.81627,-1.25564 -18.17713,-3.91125 -18.17713,-4.354 0,-0.88549 22.28723,-8.97098 44.36059,-19.67037 20.42417,-9.9 41.45705,-28.87574 65.72813,-46.64551 6.06778,-4.44245 9.05996,-7.80615 14.14954,-12.15166 5.08957,-4.34551 14.29685,-8.66267 18.65267,-12.9917 4.35582,-4.32904 8.40587,-8.66996 12.27237,-13.06299 3.86651,-4.39303 6.47804,-9.55247 10.09968,-14.08996 14.14927,-17.7274 26.85059,-27.28131 33.43541,-27.28131 0.30652,0 0.8055,5.9196 8.012,9.6179 3.60325,1.84914 8.29159,1.2202 13.16637,2.69775 4.87479,1.47754 11.36461,5.41871 14.41792,7.28844 12.21327,7.47893 13.15555,9.95448 28.78456,17.98094 31.25801,16.0529 60.09156,27.69804 60.09156,29.46903 z"
       id="path3758-7-5-7-6"
       inkscape:connector-curvature="0"
       sodipodi:nodetypes="ssccscssccscccsaccsccccsscccccscssccsssssssssssssssssss" />
  </g>
</svg>
