<?xml version="1.0" encoding="UTF-8" standalone="no"?>
<!-- Created with Inkscape (http://www.inkscape.org/) -->

<svg
   xmlns:dc="http://purl.org/dc/elements/1.1/"
   xmlns:cc="http://creativecommons.org/ns#"
   xmlns:rdf="http://www.w3.org/1999/02/22-rdf-syntax-ns#"
   xmlns:svg="http://www.w3.org/2000/svg"
   xmlns="http://www.w3.org/2000/svg"
   xmlns:xlink="http://www.w3.org/1999/xlink"
   xmlns:sodipodi="http://sodipodi.sourceforge.net/DTD/sodipodi-0.dtd"
   xmlns:inkscape="http://www.inkscape.org/namespaces/inkscape"
   width="744.09448819"
   height="1052.3622047"
   id="svg21931"
   version="1.1"
   inkscape:version="0.48.5 r10040"
   sodipodi:docname="New document 88">
  <defs
     id="defs21933">
    <linearGradient
       inkscape:collect="always"
       id="linearGradient24061">
      <stop
         style="stop-color:#ffffff;stop-opacity:1;"
         offset="0"
         id="stop24063" />
      <stop
         style="stop-color:#ffffff;stop-opacity:0;"
         offset="1"
         id="stop24065" />
    </linearGradient>
    <linearGradient
       inkscape:collect="always"
       id="linearGradient24053">
      <stop
         style="stop-color:#ffffff;stop-opacity:1;"
         offset="0"
         id="stop24055" />
      <stop
         style="stop-color:#ffffff;stop-opacity:0;"
         offset="1"
         id="stop24057" />
    </linearGradient>
    <linearGradient
       inkscape:collect="always"
       id="linearGradient22554">
      <stop
         style="stop-color:#ffffff;stop-opacity:1;"
         offset="0"
         id="stop22556" />
      <stop
         style="stop-color:#ffffff;stop-opacity:0;"
         offset="1"
         id="stop22558" />
    </linearGradient>
    <linearGradient
       inkscape:collect="always"
       id="linearGradient22534">
      <stop
         style="stop-color:#008080;stop-opacity:1;"
         offset="0"
         id="stop22536" />
      <stop
         style="stop-color:#008080;stop-opacity:0;"
         offset="1"
         id="stop22538" />
    </linearGradient>
    <linearGradient
       inkscape:collect="always"
       id="linearGradient22526">
      <stop
         style="stop-color:#000080;stop-opacity:1;"
         offset="0"
         id="stop22528" />
      <stop
         style="stop-color:#000080;stop-opacity:0;"
         offset="1"
         id="stop22530" />
    </linearGradient>
    <radialGradient
       inkscape:collect="always"
       xlink:href="#linearGradient22526"
       id="radialGradient22532"
       cx="455"
       cy="136.6479"
       fx="455"
       fy="136.6479"
       r="54.193207"
       gradientTransform="matrix(3.959328,0.3387583,-0.18537868,2.1666626,-1454.7345,-317.84239)"
       gradientUnits="userSpaceOnUse" />
    <radialGradient
       inkscape:collect="always"
       xlink:href="#linearGradient22534"
       id="radialGradient22540"
       cx="456.78571"
       cy="257.71933"
       fx="456.78571"
       fy="257.71933"
       r="54.193202"
       gradientTransform="matrix(1.5206956,0.04723986,-0.04199191,1.3517596,-362.38167,-237.59052)"
       gradientUnits="userSpaceOnUse" />
    <radialGradient
       inkscape:collect="always"
       xlink:href="#linearGradient22554"
       id="radialGradient22560"
       cx="318.15009"
       cy="136.93138"
       fx="318.15009"
       fy="136.93138"
       r="54.193197"
       gradientTransform="matrix(1.5077677,0.08941875,-0.07068161,1.1918246,-153.94681,-53.212819)"
       gradientUnits="userSpaceOnUse" />
    <linearGradient
       inkscape:collect="always"
       xlink:href="#linearGradient24053"
       id="linearGradient24059"
       x1="324.24887"
       y1="195.75325"
       x2="318.71228"
       y2="29.078083"
       gradientUnits="userSpaceOnUse"
       gradientTransform="translate(-1.5908524e-5,2.3663683e-5)" />
    <linearGradient
       inkscape:collect="always"
       xlink:href="#linearGradient24061"
       id="linearGradient24067"
       x1="318.18796"
       y1="50.291275"
       x2="322.24783"
       y2="188.68217"
       gradientUnits="userSpaceOnUse"
       gradientTransform="translate(-5.9085239e-6,1.5663682e-5)" />
    <linearGradient
       inkscape:collect="always"
       xlink:href="#linearGradient24061-0"
       id="linearGradient24067-6"
       x1="318.18796"
       y1="50.291275"
       x2="324.26813"
       y2="160.90298"
       gradientUnits="userSpaceOnUse"
       gradientTransform="translate(214.40513,7.5759331)" />
    <linearGradient
       inkscape:collect="always"
       id="linearGradient24061-0">
      <stop
         style="stop-color:#ffffff;stop-opacity:1;"
         offset="0"
         id="stop24063-7" />
      <stop
         style="stop-color:#ffffff;stop-opacity:0;"
         offset="1"
         id="stop24065-2" />
    </linearGradient>
    <linearGradient
       inkscape:collect="always"
       xlink:href="#linearGradient24053-9"
       id="linearGradient24059-0"
       x1="324.24887"
       y1="185.65172"
       x2="320.73257"
       y2="110.39536"
       gradientUnits="userSpaceOnUse"
       gradientTransform="translate(214.40513,7.5759391)" />
    <linearGradient
       inkscape:collect="always"
       id="linearGradient24053-9">
      <stop
         style="stop-color:#ffffff;stop-opacity:1;"
         offset="0"
         id="stop24055-5" />
      <stop
         style="stop-color:#ffffff;stop-opacity:0;"
         offset="1"
         id="stop24057-4" />
    </linearGradient>
    <linearGradient
       inkscape:collect="always"
       xlink:href="#linearGradient24061-7"
       id="linearGradient24067-3"
       x1="318.18796"
       y1="50.291275"
       x2="322.24783"
       y2="188.68217"
       gradientUnits="userSpaceOnUse"
       gradientTransform="translate(225.01173,136.87547)" />
    <linearGradient
       inkscape:collect="always"
       id="linearGradient24061-7">
      <stop
         style="stop-color:#ffffff;stop-opacity:1;"
         offset="0"
         id="stop24063-2" />
      <stop
         style="stop-color:#ffffff;stop-opacity:0;"
         offset="1"
         id="stop24065-7" />
    </linearGradient>
    <linearGradient
       inkscape:collect="always"
       xlink:href="#linearGradient24053-3"
       id="linearGradient24059-9"
       x1="324.24887"
       y1="195.75325"
       x2="318.71228"
       y2="29.078083"
       gradientUnits="userSpaceOnUse"
       gradientTransform="translate(225.01172,136.87547)" />
    <linearGradient
       inkscape:collect="always"
       id="linearGradient24053-3">
      <stop
         style="stop-color:#ffffff;stop-opacity:1;"
         offset="0"
         id="stop24055-6" />
      <stop
         style="stop-color:#ffffff;stop-opacity:0;"
         offset="1"
         id="stop24057-3" />
    </linearGradient>
  </defs>
  <sodipodi:namedview
     id="base"
     pagecolor="#ffffff"
     bordercolor="#666666"
     borderopacity="1.0"
     inkscape:pageopacity="0.0"
     inkscape:pageshadow="2"
     inkscape:zoom="1.979899"
     inkscape:cx="395.5098"
     inkscape:cy="887.01723"
     inkscape:document-units="px"
     inkscape:current-layer="layer1"
     showgrid="false"
     inkscape:window-width="1366"
     inkscape:window-height="706"
     inkscape:window-x="-8"
     inkscape:window-y="-8"
     inkscape:window-maximized="1" />
  <metadata
     id="metadata21936">
    <rdf:RDF>
      <cc:Work
         rdf:about="">
        <dc:format>image/svg+xml</dc:format>
        <dc:type
           rdf:resource="http://purl.org/dc/dcmitype/StillImage" />
        <dc:title></dc:title>
      </cc:Work>
    </rdf:RDF>
  </metadata>
  <g
     inkscape:label="Layer 1"
     inkscape:groupmode="layer"
     id="layer1">
    <path
       style="opacity:0.3982301;fill:#00ff00;fill-opacity:0.40211636;fill-rule:nonzero;stroke:#000000;stroke-width:1.10000002;stroke-linecap:butt;stroke-linejoin:miter;stroke-miterlimit:4;stroke-opacity:1;stroke-dasharray:none"
       d="m 178.57823,88.808742 c 0,1.7496 -0.79039,9.07677 -0.84954,15.146728 -0.0914,9.37552 14.24772,28.57585 13.36854,41.32 -1.13546,16.45885 -17.62902,18.98292 -20.26623,17.716 -2.63722,-1.26692 -12.1885,0.61437 -15.5531,-3.01387 -3.3646,-3.62824 -0.54252,-12.76601 0.32311,-24.14467 0.88756,-11.6668 -5.32787,-26.49762 -10.93323,-39.529838 -2.80268,-6.51611 -6.35882,-17.79526 -6.75343,-23.44907 -0.1188,-1.70219 -5.2581,-0.81677 -5.64404,-0.81677 -3.08755,0 -5.5101,-0.44 -5.39043,0.57457 0.17109,1.45061 -0.18852,7.8341 -1.36083,14.16947 -1.17232,6.33537 -3.71639,9.92056 -3.62817,18.725898 0.10886,10.86624 6.18366,31.3208 7.38252,39.59621 0.82262,5.67835 1.50751,12.26859 -0.62397,13.31358 -4.41002,2.1621 -14.54425,3.63746 -16.03137,3.42902 -2.55279,-0.3578 -16.763879,4.01921 -21.578329,-14.00184 -2.40723,-9.01052 3.31155,-28.53553 3.66894,-36.32025 0.57502,-12.525068 -6.59019,-22.949108 -6.8828,-23.274218 -0.46587,-0.51762 -9.98226,-26.77614 1.27157,-38.49675 0.13563,-0.66918 1.57322,-3.0762 2.29133,-3.3476 10.641239,6.43718 28.149909,14.00664 43.397249,16.96665 6.61337,1.28387 11.15563,0.50017 20.20935,0.21838 9.05372,-0.28178 17.55077,-2.08671 17.97865,-2.23716 1.32505,-0.46589 4.5896,6.17541 5.65939,12.71837 1.06979,6.54295 -0.0552,12.98755 -0.0552,14.73716 z"
       id="path21917"
       inkscape:connector-curvature="0"
       sodipodi:nodetypes="csssssssssssssssssccassssc" />
    <path
       style="opacity:1;fill:#000000;fill-opacity:1;fill-rule:nonzero;stroke:#000000;stroke-width:1.10000002000000000;stroke-linecap:butt;stroke-linejoin:miter;stroke-miterlimit:4;stroke-opacity:1;stroke-dasharray:none"
       d="m 361.1633,94.869661 c 0,1.7496 -0.79039,9.076769 -0.84954,15.146729 -0.0914,9.37552 14.24772,28.57585 13.36854,41.32 -1.13546,16.45885 -17.62902,18.98292 -20.26623,17.716 -2.63722,-1.26692 -12.1885,0.61437 -15.5531,-3.01387 -3.3646,-3.62824 -0.54252,-12.76601 0.32311,-24.14467 0.88756,-11.6668 -5.32787,-26.49762 -10.93323,-39.52984 -2.80268,-6.516109 -6.35882,-17.795259 -6.75343,-23.449069 -0.1188,-1.70219 -5.2581,-0.81677 -5.64404,-0.81677 -3.08755,0 -5.5101,-0.44 -5.39043,0.57457 0.17109,1.45061 -0.18852,7.8341 -1.36083,14.16947 -1.17232,6.33537 -3.71639,9.920559 -3.62817,18.725899 0.10886,10.86624 6.18366,31.3208 7.38252,39.59621 0.82262,5.67835 1.50751,12.26859 -0.62397,13.31358 -4.41002,2.1621 -14.54425,3.63746 -16.03137,3.42902 -2.55279,-0.3578 -16.76388,4.01921 -21.57833,-14.00184 -2.40723,-9.01052 3.31155,-28.53553 3.66894,-36.32025 0.57502,-12.52507 -6.59019,-22.949109 -6.8828,-23.274219 -0.46587,-0.51762 -9.98226,-26.77614 1.27157,-38.49675 0.13563,-0.66918 1.57322,-3.0762 2.29133,-3.3476 10.64124,6.43718 28.14991,14.00664 43.39725,16.96665 6.61337,1.28387 11.15563,0.50017 20.20935,0.21838 9.05372,-0.28178 17.55077,-2.08671 17.97865,-2.23716 1.32505,-0.46589 4.5896,6.17541 5.65939,12.71837 1.06979,6.54295 -0.0552,12.98755 -0.0552,14.73716 z"
       id="path21917-5"
       inkscape:connector-curvature="0"
       sodipodi:nodetypes="csssssssssssssssssccassssc" />
    <path
       style="fill:url(#linearGradient24059);fill-opacity:1;fill-rule:nonzero;stroke:#000000;stroke-width:1.10000002;stroke-linecap:butt;stroke-linejoin:miter;stroke-miterlimit:4;stroke-opacity:1;stroke-dasharray:none"
       d="m 361.16281,94.870115 c 0,1.74959 -0.79039,9.076735 -0.84954,15.146695 -0.0914,9.37552 14.24772,28.57585 13.36854,41.32 -1.13546,16.45885 -17.62902,18.98292 -20.26623,17.716 -2.63722,-1.26692 -12.1885,0.61437 -15.5531,-3.01387 -3.3646,-3.62824 -0.54252,-12.76601 0.32311,-24.14467 0.88756,-11.6668 -5.32787,-26.49762 -10.93323,-39.52984 -2.80268,-6.516075 -6.35882,-17.795225 -6.75343,-23.449035 -0.1188,-1.70219 -5.2581,-0.81677 -5.64404,-0.81677 -3.08755,0 -5.5101,-0.44 -5.39043,0.57457 0.17109,1.45061 -0.18852,7.8341 -1.36083,14.16947 -1.17232,6.33536 -3.71639,9.920525 -3.62817,18.725865 0.10886,10.86624 6.18366,31.3208 7.38252,39.59621 0.82262,5.67835 1.50751,12.26859 -0.62397,13.31358 -4.41002,2.1621 -14.54425,3.63746 -16.03137,3.42902 -2.55279,-0.3578 -16.76388,4.01921 -21.57833,-14.00184 -2.40723,-9.01052 3.31155,-28.53553 3.66894,-36.32025 0.57502,-12.52507 -6.59019,-22.949075 -6.8828,-23.274185 -0.46587,-0.51762 -9.98226,-26.77614 1.27157,-38.49675 0.13563,-0.66918 1.57322,-3.0762 2.29133,-3.3476 10.64124,6.43718 28.14991,14.00664 43.39725,16.96665 6.61337,1.28387 11.15563,0.50017 20.20935,0.21838 9.05372,-0.28178 17.55077,-2.08671 17.97865,-2.23716 1.32505,-0.46589 4.5896,6.17541 5.65939,12.71837 1.06979,6.54295 -0.0552,12.98755 -0.0552,14.73716 z"
       id="path21917-5-1"
       inkscape:connector-curvature="0"
       sodipodi:nodetypes="csssssssssssssssssccassssc" />
    <path
       style="fill:url(#linearGradient24067);fill-opacity:1;fill-rule:nonzero;stroke:#000000;stroke-width:1.10000002;stroke-linecap:butt;stroke-linejoin:miter;stroke-miterlimit:4;stroke-opacity:1;stroke-dasharray:none"
       d="m 361.16281,94.870103 c 0,1.7496 -0.79039,9.076767 -0.84954,15.146727 -0.0914,9.37552 14.24772,28.57584 13.36854,41.31998 -1.13546,16.45885 -17.62902,18.98292 -20.26623,17.716 -2.63722,-1.26692 -12.1885,0.61437 -15.5531,-3.01387 -3.3646,-3.62824 -0.54252,-12.76601 0.32311,-24.14466 0.88756,-11.6668 -5.32787,-26.49761 -10.93323,-39.52983 -2.80268,-6.516107 -6.35882,-17.795253 -6.75343,-23.449063 -0.1188,-1.70219 -5.2581,-0.81677 -5.64404,-0.81677 -3.08755,0 -5.5101,-0.44 -5.39043,0.57457 0.17109,1.45061 -0.18852,7.8341 -1.36083,14.169466 -1.17232,6.33537 -3.71639,9.920557 -3.62817,18.725897 0.10886,10.86624 6.18366,31.32079 7.38252,39.59619 0.82262,5.67835 1.50751,12.26859 -0.62397,13.31358 -4.41002,2.1621 -14.54425,3.63746 -16.03137,3.42902 -2.55279,-0.3578 -16.76388,4.01921 -21.57833,-14.00184 -2.40723,-9.01052 3.31155,-28.53551 3.66894,-36.32023 0.57502,-12.52507 -6.59019,-22.949107 -6.8828,-23.274217 -0.46587,-0.51762 -9.98226,-26.776136 1.27157,-38.496746 0.13563,-0.66918 1.57322,-3.0762 2.29133,-3.3476 10.64124,6.43718 28.14991,14.00664 43.39725,16.96665 6.61337,1.28387 11.15563,0.50017 20.20935,0.21838 9.05372,-0.28178 17.55077,-2.08671 17.97865,-2.23716 1.32505,-0.46589 4.5896,6.17541 5.65939,12.71837 1.06979,6.54295 -0.0552,12.987546 -0.0552,14.737156 z"
       id="path21917-5-1-2"
       inkscape:connector-curvature="0"
       sodipodi:nodetypes="csssssssssssssssssccassssc" />
    <path
       style="fill:#ffcc00;fill-opacity:1;fill-rule:nonzero;stroke:#000000;stroke-width:1.10000002;stroke-linecap:butt;stroke-linejoin:miter;stroke-miterlimit:4;stroke-opacity:1;stroke-dasharray:none"
       d="m 575.56842,102.44559 c 0,1.7496 -0.79039,9.07677 -0.84954,15.14673 -0.0914,9.37552 14.24773,28.57585 13.36855,41.32 -1.13546,16.45885 -17.62903,18.98292 -20.26624,17.716 -2.63722,-1.26692 -12.1885,0.61437 -15.5531,-3.01387 -3.3646,-3.62824 -0.54252,-12.76601 0.32311,-24.14467 0.88756,-11.6668 -5.32787,-26.49762 -10.93323,-39.52984 -2.80268,-6.51611 -6.35882,-17.795258 -6.75343,-23.449068 -0.1188,-1.70219 -5.2581,-0.81677 -5.64404,-0.81677 -3.08755,0 -5.5101,-0.44 -5.39043,0.57457 0.17109,1.45061 -0.18852,7.8341 -1.36083,14.169468 -1.17232,6.33537 -3.71639,9.92056 -3.62817,18.7259 0.10886,10.86624 6.18366,31.3208 7.38252,39.59621 0.82262,5.67835 1.50751,12.26859 -0.62397,13.31358 -4.41002,2.1621 -14.54425,3.63746 -16.03137,3.42902 -2.55279,-0.3578 -16.76388,4.01921 -21.57832,-14.00184 -2.40723,-9.01052 3.31154,-28.53553 3.66893,-36.32025 0.57502,-12.52507 -6.59018,-22.94911 -6.88279,-23.27422 -0.46587,-0.51762 -9.98226,-26.776138 1.27157,-38.496748 0.13563,-0.669177 1.57322,-3.076197 2.29133,-3.347597 10.64123,6.437177 28.1499,14.006637 43.39724,16.966647 6.61337,1.28387 11.15563,0.50017 20.20935,0.21838 9.05372,-0.28178 17.55077,-2.08671 17.97865,-2.23716 1.32505,-0.46589 4.5896,6.17541 5.65939,12.71837 1.06979,6.54295 -0.0552,12.987548 -0.0552,14.737158 z"
       id="path21917-5-3"
       inkscape:connector-curvature="0"
       sodipodi:nodetypes="csssssssssssssssssccassssc" />
    <path
       style="fill:url(#linearGradient24059-0);fill-opacity:1;fill-rule:nonzero;stroke:#000000;stroke-width:1.10000002;stroke-linecap:butt;stroke-linejoin:miter;stroke-miterlimit:4;stroke-opacity:1;stroke-dasharray:none"
       d="m 575.56793,102.44603 c 0,1.74959 -0.79039,9.07675 -0.84954,15.14671 -0.0914,9.37552 14.24773,28.57585 13.36855,41.32 -1.13546,16.45885 -17.62903,18.98292 -20.26624,17.716 -2.63722,-1.26692 -12.1885,0.61437 -15.5531,-3.01387 -3.3646,-3.62824 -0.54252,-12.76601 0.32311,-24.14467 0.88756,-11.6668 -5.32787,-26.49762 -10.93323,-39.52984 -2.80268,-6.51609 -6.35882,-17.795238 -6.75343,-23.449048 -0.1188,-1.70219 -5.2581,-0.81677 -5.64404,-0.81677 -3.08755,0 -5.5101,-0.44 -5.39043,0.57457 0.17109,1.45061 -0.18852,7.8341 -1.36083,14.169468 -1.17232,6.33536 -3.71639,9.92054 -3.62817,18.72588 0.10886,10.86624 6.18366,31.3208 7.38252,39.59621 0.82262,5.67835 1.50751,12.26859 -0.62397,13.31358 -4.41002,2.1621 -14.54425,3.63746 -16.03137,3.42902 -2.55279,-0.3578 -16.76388,4.01921 -21.57832,-14.00184 -2.40723,-9.01052 3.31154,-28.53553 3.66893,-36.32025 0.57502,-12.52507 -6.59018,-22.94909 -6.88279,-23.2742 -0.46587,-0.51762 -9.98226,-26.776138 1.27157,-38.496748 0.13563,-0.669183 1.57322,-3.076203 2.29133,-3.347603 10.64123,6.437183 28.1499,14.006643 43.39724,16.966653 6.61337,1.28387 11.15563,0.50017 20.20935,0.21838 9.05372,-0.28178 17.55077,-2.08671 17.97865,-2.23716 1.32505,-0.46589 4.5896,6.17541 5.65939,12.71837 1.06979,6.54295 -0.0552,12.987548 -0.0552,14.737158 z"
       id="path21917-5-1-25"
       inkscape:connector-curvature="0"
       sodipodi:nodetypes="csssssssssssssssssccassssc" />
    <path
       style="fill:url(#linearGradient24067-6);fill-opacity:1;fill-rule:nonzero;stroke:#000000;stroke-width:1.10000002;stroke-linecap:butt;stroke-linejoin:miter;stroke-miterlimit:4;stroke-opacity:1;stroke-dasharray:none"
       d="m 575.56793,102.44602 c 0,1.7496 -0.79039,9.07676 -0.84954,15.14672 -0.0914,9.37552 14.24773,28.57585 13.36855,41.32 -1.13546,16.45885 -17.62903,18.98292 -20.26624,17.716 -2.63722,-1.26692 -12.1885,0.61437 -15.5531,-3.01387 -3.3646,-3.62824 -0.54252,-12.76601 0.32311,-24.14467 0.88756,-11.6668 -5.32787,-26.49762 -10.93323,-39.52984 -2.80268,-6.5161 -6.35882,-17.795248 -6.75343,-23.449058 -0.1188,-1.70219 -5.2581,-0.81677 -5.64404,-0.81677 -3.08755,0 -5.5101,-0.44 -5.39043,0.57457 0.17109,1.45061 -0.18852,7.8341 -1.36083,14.169468 -1.17232,6.33537 -3.71639,9.92055 -3.62817,18.72589 0.10886,10.86624 6.18366,31.3208 7.38252,39.59621 0.82262,5.67835 1.50751,12.26859 -0.62397,13.31358 -4.41002,2.1621 -14.54425,3.63746 -16.03137,3.42902 -2.55279,-0.3578 -16.76388,4.01921 -21.57832,-14.00184 -2.40723,-9.01052 3.31154,-28.53553 3.66893,-36.32025 0.57502,-12.52507 -6.59018,-22.9491 -6.88279,-23.27421 -0.46587,-0.51762 -9.98226,-26.776138 1.27157,-38.496748 0.13563,-0.669179 1.57322,-3.076199 2.29133,-3.347599 10.64123,6.437179 28.1499,14.006639 43.39724,16.966649 6.61337,1.28387 11.15563,0.50017 20.20935,0.21838 9.05372,-0.28178 17.55077,-2.08671 17.97865,-2.23716 1.32505,-0.46589 4.5896,6.17541 5.65939,12.71837 1.06979,6.54295 -0.0552,12.987548 -0.0552,14.737158 z"
       id="path21917-5-1-2-6"
       inkscape:connector-curvature="0"
       sodipodi:nodetypes="csssssssssssssssssccassssc" />
    <path
       style="fill:#ff0000;fill-opacity:1;fill-rule:nonzero;stroke:#000000;stroke-width:1.10000002;stroke-linecap:butt;stroke-linejoin:miter;stroke-miterlimit:4;stroke-opacity:1;stroke-dasharray:none"
       d="m 586.17503,231.74512 c 0,1.7496 -0.79039,9.07677 -0.84954,15.14673 -0.0914,9.37552 14.24772,28.57585 13.36854,41.32 -1.13546,16.45885 -17.62902,18.98292 -20.26623,17.716 -2.63722,-1.26692 -12.1885,0.61437 -15.5531,-3.01387 -3.3646,-3.62824 -0.54252,-12.76601 0.32311,-24.14467 0.88756,-11.6668 -5.32787,-26.49762 -10.93323,-39.52984 -2.80268,-6.51611 -6.35882,-17.79526 -6.75343,-23.44907 -0.1188,-1.70219 -5.2581,-0.81677 -5.64404,-0.81677 -3.08755,0 -5.5101,-0.44 -5.39043,0.57457 0.17109,1.45061 -0.18852,7.8341 -1.36083,14.16947 -1.17232,6.33537 -3.71639,9.92056 -3.62817,18.7259 0.10886,10.86624 6.18366,31.3208 7.38252,39.59621 0.82262,5.67835 1.50751,12.26859 -0.62397,13.31358 -4.41002,2.1621 -14.54425,3.63746 -16.03137,3.42902 -2.55279,-0.3578 -16.76388,4.01921 -21.57833,-14.00184 -2.40723,-9.01052 3.31155,-28.53553 3.66894,-36.32025 0.57502,-12.52507 -6.59019,-22.94911 -6.8828,-23.27422 -0.46587,-0.51762 -9.98226,-26.77614 1.27157,-38.49675 0.13563,-0.66918 1.57322,-3.0762 2.29133,-3.3476 10.64124,6.43718 28.14991,14.00664 43.39725,16.96665 6.61337,1.28387 11.15563,0.50017 20.20935,0.21838 9.05372,-0.28178 17.55077,-2.08671 17.97865,-2.23716 1.32505,-0.46589 4.5896,6.17541 5.65939,12.71837 1.06979,6.54295 -0.0552,12.98755 -0.0552,14.73716 z"
       id="path21917-5-8"
       inkscape:connector-curvature="0"
       sodipodi:nodetypes="csssssssssssssssssccassssc" />
    <path
       style="fill:url(#linearGradient24059-9);fill-opacity:1;fill-rule:nonzero;stroke:#000000;stroke-width:1.10000002;stroke-linecap:butt;stroke-linejoin:miter;stroke-miterlimit:4;stroke-opacity:1;stroke-dasharray:none"
       d="m 586.17454,231.74557 c 0,1.74959 -0.79039,9.07674 -0.84954,15.1467 -0.0914,9.37552 14.24772,28.57585 13.36854,41.32 -1.13546,16.45885 -17.62902,18.98292 -20.26623,17.716 -2.63722,-1.26692 -12.1885,0.61437 -15.5531,-3.01387 -3.3646,-3.62824 -0.54252,-12.76601 0.32311,-24.14467 0.88756,-11.6668 -5.32787,-26.49762 -10.93323,-39.52984 -2.80268,-6.51608 -6.35882,-17.79523 -6.75343,-23.44904 -0.1188,-1.70219 -5.2581,-0.81677 -5.64404,-0.81677 -3.08755,0 -5.5101,-0.44 -5.39043,0.57457 0.17109,1.45061 -0.18852,7.8341 -1.36083,14.16947 -1.17232,6.33536 -3.71639,9.92053 -3.62817,18.72587 0.10886,10.86624 6.18366,31.3208 7.38252,39.59621 0.82262,5.67835 1.50751,12.26859 -0.62397,13.31358 -4.41002,2.1621 -14.54425,3.63746 -16.03137,3.42902 -2.55279,-0.3578 -16.76388,4.01921 -21.57833,-14.00184 -2.40723,-9.01052 3.31155,-28.53553 3.66894,-36.32025 0.57502,-12.52507 -6.59019,-22.94908 -6.8828,-23.27419 -0.46587,-0.51762 -9.98226,-26.77614 1.27157,-38.49675 0.13563,-0.66918 1.57322,-3.0762 2.29133,-3.3476 10.64124,6.43718 28.14991,14.00664 43.39725,16.96665 6.61337,1.28387 11.15563,0.50017 20.20935,0.21838 9.05372,-0.28178 17.55077,-2.08671 17.97865,-2.23716 1.32505,-0.46589 4.5896,6.17541 5.65939,12.71837 1.06979,6.54295 -0.0552,12.98755 -0.0552,14.73716 z"
       id="path21917-5-1-1"
       inkscape:connector-curvature="0"
       sodipodi:nodetypes="csssssssssssssssssccassssc" />
    <path
       style="fill:url(#linearGradient24067-3);fill-opacity:1;fill-rule:nonzero;stroke:#000000;stroke-width:1.10000002;stroke-linecap:butt;stroke-linejoin:miter;stroke-miterlimit:4;stroke-opacity:1;stroke-dasharray:none"
       d="m 586.17454,231.74556 c 0,1.7496 -0.79039,9.07676 -0.84954,15.14672 -0.0914,9.37552 14.24772,28.57585 13.36854,41.31999 -1.13546,16.45885 -17.62902,18.98292 -20.26623,17.716 -2.63722,-1.26692 -12.1885,0.61437 -15.5531,-3.01387 -3.3646,-3.62824 -0.54252,-12.76601 0.32311,-24.14466 0.88756,-11.6668 -5.32787,-26.49762 -10.93323,-39.52984 -2.80268,-6.5161 -6.35882,-17.79525 -6.75343,-23.44906 -0.1188,-1.70219 -5.2581,-0.81677 -5.64404,-0.81677 -3.08755,0 -5.5101,-0.44 -5.39043,0.57457 0.17109,1.45061 -0.18852,7.8341 -1.36083,14.16947 -1.17232,6.33537 -3.71639,9.92055 -3.62817,18.72589 0.10886,10.86624 6.18366,31.3208 7.38252,39.5962 0.82262,5.67835 1.50751,12.26859 -0.62397,13.31358 -4.41002,2.1621 -14.54425,3.63746 -16.03137,3.42902 -2.55279,-0.3578 -16.76388,4.01921 -21.57833,-14.00184 -2.40723,-9.01052 3.31155,-28.53552 3.66894,-36.32024 0.57502,-12.52507 -6.59019,-22.9491 -6.8828,-23.27421 -0.46587,-0.51762 -9.98226,-26.77614 1.27157,-38.49675 0.13563,-0.66918 1.57322,-3.0762 2.29133,-3.3476 10.64124,6.43718 28.14991,14.00664 43.39725,16.96665 6.61337,1.28387 11.15563,0.50017 20.20935,0.21838 9.05372,-0.28178 17.55077,-2.08671 17.97865,-2.23716 1.32505,-0.46589 4.5896,6.17541 5.65939,12.71837 1.06979,6.54295 -0.0552,12.98755 -0.0552,14.73716 z"
       id="path21917-5-1-2-0"
       inkscape:connector-curvature="0"
       sodipodi:nodetypes="csssssssssssssssssccassssc" />
  </g>
</svg>
